<?xml version="1.0" encoding="UTF-8" standalone="no"?>
<!DOCTYPE svg PUBLIC "-//W3C//DTD SVG 1.1//EN"
 "http://www.w3.org/Graphics/SVG/1.1/DTD/svg11.dtd">
<!-- Generated by graphviz version 2.43.0 (0)
 -->
<!-- Title: G Pages: 1 -->
<svg width="864pt" height="848pt"
 viewBox="0.00 0.00 864.00 848.00" xmlns="http://www.w3.org/2000/svg" xmlns:xlink="http://www.w3.org/1999/xlink">
<g id="graph0" class="graph" transform="scale(1 1) rotate(0) translate(4 844)">
<title>G</title>
<polygon fill="white" stroke="transparent" points="-4,4 -4,-844 860,-844 860,4 -4,4"/>
<!-- 1367869265 -->
<g id="node1" class="node">
<title>1367869265</title>
<ellipse fill="none" stroke="black" cx="636" cy="-822" rx="92.88" ry="18"/>
<text text-anchor="middle" x="636" y="-818.3" font-family="Times,serif" font-size="14.00">animation(menu, map)</text>
</g>
<!-- 41681215 -->
<g id="node19" class="node">
<title>41681215</title>
<ellipse fill="none" stroke="black" cx="360" cy="-735" rx="27" ry="18"/>
<text text-anchor="middle" x="360" y="-731.3" font-family="Times,serif" font-size="14.00">map</text>
</g>
<!-- 1367869265&#45;&gt;41681215 -->
<g id="edge14" class="edge">
<title>1367869265&#45;&gt;41681215</title>
<path fill="none" stroke="black" d="M588.87,-806.48C533.38,-789.4 442.62,-761.45 393.73,-746.39"/>
<polygon fill="black" stroke="black" points="394.55,-742.98 383.96,-743.38 392.49,-749.67 394.55,-742.98"/>
<text text-anchor="middle" x="526" y="-774.8" font-family="Times,serif" font-size="14.00">End</text>
</g>
<!-- 284492598 -->
<g id="node2" class="node">
<title>284492598</title>
<ellipse fill="none" stroke="black" cx="125" cy="-453" rx="45.49" ry="18"/>
<text text-anchor="middle" x="125" y="-449.3" font-family="Times,serif" font-size="14.00">edit(map)</text>
</g>
<!-- 605291737 -->
<g id="node7" class="node">
<title>605291737</title>
<ellipse fill="none" stroke="black" cx="84" cy="-366" rx="60.39" ry="18"/>
<text text-anchor="middle" x="84" y="-362.3" font-family="Times,serif" font-size="14.00">selected(map)</text>
</g>
<!-- 284492598&#45;&gt;605291737 -->
<g id="edge22" class="edge">
<title>284492598&#45;&gt;605291737</title>
<path fill="none" stroke="black" d="M101.62,-437.14C95.03,-431.67 88.66,-424.86 85,-417 81.72,-409.97 80.61,-401.75 80.55,-394.03"/>
<polygon fill="black" stroke="black" points="84.05,-394.13 81.02,-383.98 77.06,-393.8 84.05,-394.13"/>
<text text-anchor="middle" x="115.5" y="-405.8" font-family="Times,serif" font-size="14.00">ToSelected</text>
</g>
<!-- 349766566 -->
<g id="node3" class="node">
<title>349766566</title>
<ellipse fill="none" stroke="black" cx="392" cy="-453" rx="44.69" ry="18"/>
<text text-anchor="middle" x="392" y="-449.3" font-family="Times,serif" font-size="14.00">idle(play)</text>
</g>
<!-- 603063532 -->
<g id="node13" class="node">
<title>603063532</title>
<ellipse fill="none" stroke="black" cx="333" cy="-366" rx="55.79" ry="18"/>
<text text-anchor="middle" x="333" y="-362.3" font-family="Times,serif" font-size="14.00">in_rect(play)</text>
</g>
<!-- 349766566&#45;&gt;603063532 -->
<g id="edge33" class="edge">
<title>349766566&#45;&gt;603063532</title>
<path fill="none" stroke="black" d="M386.42,-434.91C382.66,-424.81 377.1,-412.08 370,-402 367.16,-397.97 363.8,-394.03 360.28,-390.33"/>
<polygon fill="black" stroke="black" points="362.54,-387.65 352.95,-383.15 357.64,-392.65 362.54,-387.65"/>
<text text-anchor="middle" x="397.5" y="-405.8" font-family="Times,serif" font-size="14.00">InRect</text>
</g>
<!-- 71500215 -->
<g id="node14" class="node">
<title>71500215</title>
<ellipse fill="none" stroke="black" cx="456" cy="-540" rx="27" ry="18"/>
<text text-anchor="middle" x="456" y="-536.3" font-family="Times,serif" font-size="14.00">play</text>
</g>
<!-- 349766566&#45;&gt;71500215 -->
<g id="edge32" class="edge">
<title>349766566&#45;&gt;71500215</title>
<path fill="none" stroke="black" d="M413.85,-469.05C420.94,-474.7 428.41,-481.57 434,-489 439.35,-496.11 443.74,-504.73 447.14,-512.79"/>
<polygon fill="black" stroke="black" points="443.92,-514.16 450.81,-522.21 450.45,-511.62 443.92,-514.16"/>
<text text-anchor="middle" x="454.5" y="-492.8" font-family="Times,serif" font-size="14.00">Exit</text>
</g>
<!-- 1505101769 -->
<g id="node4" class="node">
<title>1505101769</title>
<ellipse fill="none" stroke="black" cx="614" cy="-453" rx="91.78" ry="18"/>
<text text-anchor="middle" x="614" y="-449.3" font-family="Times,serif" font-size="14.00">animation(play, menu)</text>
</g>
<!-- 70779318 -->
<g id="node8" class="node">
<title>70779318</title>
<ellipse fill="none" stroke="black" cx="659" cy="-366" rx="30.59" ry="18"/>
<text text-anchor="middle" x="659" y="-362.3" font-family="Times,serif" font-size="14.00">menu</text>
</g>
<!-- 1505101769&#45;&gt;70779318 -->
<g id="edge43" class="edge">
<title>1505101769&#45;&gt;70779318</title>
<path fill="none" stroke="black" d="M623.11,-434.8C629.58,-422.58 638.37,-405.98 645.63,-392.26"/>
<polygon fill="black" stroke="black" points="648.78,-393.79 650.37,-383.31 642.59,-390.51 648.78,-393.79"/>
<text text-anchor="middle" x="651" y="-405.8" font-family="Times,serif" font-size="14.00">End</text>
</g>
<!-- 71696827 -->
<g id="node5" class="node">
<title>71696827</title>
<ellipse fill="none" stroke="black" cx="779" cy="-279" rx="27" ry="18"/>
<text text-anchor="middle" x="779" y="-275.3" font-family="Times,serif" font-size="14.00">exit</text>
</g>
<!-- 602277099 -->
<g id="node6" class="node">
<title>602277099</title>
<ellipse fill="none" stroke="black" cx="624" cy="-192" rx="61.19" ry="18"/>
<text text-anchor="middle" x="624" y="-188.3" font-family="Times,serif" font-size="14.00">in_rect(menu)</text>
</g>
<!-- 602277099&#45;&gt;70779318 -->
<g id="edge5" class="edge">
<title>602277099&#45;&gt;70779318</title>
<path fill="none" stroke="black" d="M615.84,-209.97C606.98,-230.59 594.98,-266.42 602,-297 605.65,-312.89 608.03,-317.1 618,-330 622.06,-335.25 627.01,-340.27 632.05,-344.8"/>
<polygon fill="black" stroke="black" points="630.03,-347.67 639.93,-351.45 634.55,-342.33 630.03,-347.67"/>
<text text-anchor="middle" x="613.5" y="-275.3" font-family="Times,serif" font-size="14.00">Exit</text>
</g>
<!-- 699925840 -->
<g id="node9" class="node">
<title>699925840</title>
<ellipse fill="none" stroke="black" cx="610" cy="-18" rx="64.99" ry="18"/>
<text text-anchor="middle" x="610" y="-14.3" font-family="Times,serif" font-size="14.00">selected(menu)</text>
</g>
<!-- 602277099&#45;&gt;699925840 -->
<g id="edge12" class="edge">
<title>602277099&#45;&gt;699925840</title>
<path fill="none" stroke="black" d="M641.84,-174.58C646.81,-169.12 651.73,-162.71 655,-156 675.1,-114.75 694,-93.71 671,-54 667.46,-47.9 662.42,-42.76 656.72,-38.48"/>
<polygon fill="black" stroke="black" points="658.3,-35.32 648.01,-32.78 654.47,-41.18 658.3,-35.32"/>
<text text-anchor="middle" x="711.5" y="-101.3" font-family="Times,serif" font-size="14.00">ToSelected</text>
</g>
<!-- 351667117 -->
<g id="node10" class="node">
<title>351667117</title>
<ellipse fill="none" stroke="black" cx="600" cy="-105" rx="50.09" ry="18"/>
<text text-anchor="middle" x="600" y="-101.3" font-family="Times,serif" font-size="14.00">edit(menu)</text>
</g>
<!-- 602277099&#45;&gt;351667117 -->
<g id="edge7" class="edge">
<title>602277099&#45;&gt;351667117</title>
<path fill="none" stroke="black" d="M619.14,-173.8C615.83,-162.05 611.36,-146.24 607.58,-132.84"/>
<polygon fill="black" stroke="black" points="610.94,-131.85 604.85,-123.18 604.2,-133.75 610.94,-131.85"/>
<text text-anchor="middle" x="632.5" y="-144.8" font-family="Times,serif" font-size="14.00">ToEdit</text>
</g>
<!-- 348980133 -->
<g id="node12" class="node">
<title>348980133</title>
<ellipse fill="none" stroke="black" cx="684" cy="-279" rx="50.09" ry="18"/>
<text text-anchor="middle" x="684" y="-275.3" font-family="Times,serif" font-size="14.00">idle(menu)</text>
</g>
<!-- 602277099&#45;&gt;348980133 -->
<g id="edge6" class="edge">
<title>602277099&#45;&gt;348980133</title>
<path fill="none" stroke="black" d="M644.5,-209.07C650.67,-214.6 657.1,-221.14 662,-228 667.1,-235.13 671.38,-243.63 674.77,-251.58"/>
<polygon fill="black" stroke="black" points="671.52,-252.87 678.47,-260.88 678.03,-250.29 671.52,-252.87"/>
<text text-anchor="middle" x="689" y="-231.8" font-family="Times,serif" font-size="14.00">ToIdle</text>
</g>
<!-- 605291737&#45;&gt;284492598 -->
<g id="edge25" class="edge">
<title>605291737&#45;&gt;284492598</title>
<path fill="none" stroke="black" d="M121.65,-380.12C131.27,-385.37 140.45,-392.5 146,-402 150.55,-409.8 148.75,-418.77 144.71,-426.94"/>
<polygon fill="black" stroke="black" points="141.58,-425.35 139.42,-435.73 147.58,-428.97 141.58,-425.35"/>
<text text-anchor="middle" x="160.5" y="-405.8" font-family="Times,serif" font-size="14.00">Edit</text>
</g>
<!-- 282329902 -->
<g id="node11" class="node">
<title>282329902</title>
<ellipse fill="none" stroke="black" cx="217" cy="-648" rx="45.49" ry="18"/>
<text text-anchor="middle" x="217" y="-644.3" font-family="Times,serif" font-size="14.00">idle(map)</text>
</g>
<!-- 605291737&#45;&gt;282329902 -->
<g id="edge24" class="edge">
<title>605291737&#45;&gt;282329902</title>
<path fill="none" stroke="black" d="M77.39,-384.02C70.26,-405 61.14,-441.49 71,-471 93,-536.89 153.13,-594.93 188.99,-625.07"/>
<polygon fill="black" stroke="black" points="187.18,-628.11 197.12,-631.77 191.63,-622.71 187.18,-628.11"/>
<text text-anchor="middle" x="104" y="-492.8" font-family="Times,serif" font-size="14.00">ToIdle</text>
</g>
<!-- 605291737&#45;&gt;41681215 -->
<g id="edge23" class="edge">
<title>605291737&#45;&gt;41681215</title>
<path fill="none" stroke="black" d="M54.15,-381.79C30,-396.1 0,-420.26 0,-452 0,-649 0,-649 0,-649 0,-714.79 230.6,-729.72 322.68,-733.06"/>
<polygon fill="black" stroke="black" points="322.83,-736.56 332.94,-733.4 323.06,-729.57 322.83,-736.56"/>
<text text-anchor="middle" x="11.5" y="-536.3" font-family="Times,serif" font-size="14.00">Exit</text>
</g>
<!-- 70779318&#45;&gt;1367869265 -->
<g id="edge13" class="edge">
<title>70779318&#45;&gt;1367869265</title>
<path fill="none" stroke="black" d="M689.09,-369.74C734.93,-375.75 817,-394.53 817,-452 817,-736 817,-736 817,-736 817,-779.91 772.83,-801.18 728.12,-811.46"/>
<polygon fill="black" stroke="black" points="727.34,-808.05 718.29,-813.55 728.8,-814.89 727.34,-808.05"/>
<text text-anchor="middle" x="836.5" y="-590.3" font-family="Times,serif" font-size="14.00">ToPlay</text>
</g>
<!-- 70779318&#45;&gt;71696827 -->
<g id="edge1" class="edge">
<title>70779318&#45;&gt;71696827</title>
<path fill="none" stroke="black" d="M677.75,-351.72C697.97,-337.39 730.32,-314.48 752.99,-298.42"/>
<polygon fill="black" stroke="black" points="755.03,-301.27 761.16,-292.63 750.98,-295.56 755.03,-301.27"/>
<text text-anchor="middle" x="737.5" y="-318.8" font-family="Times,serif" font-size="14.00">Exit</text>
</g>
<!-- 70779318&#45;&gt;348980133 -->
<g id="edge2" class="edge">
<title>70779318&#45;&gt;348980133</title>
<path fill="none" stroke="black" d="M639.9,-351.85C628.09,-342 616.51,-328.05 624,-315 628.05,-307.94 634.14,-302.17 640.91,-297.5"/>
<polygon fill="black" stroke="black" points="643,-300.33 649.74,-292.16 639.37,-294.34 643,-300.33"/>
<text text-anchor="middle" x="648.5" y="-318.8" font-family="Times,serif" font-size="14.00">ToEditor</text>
</g>
<!-- 699925840&#45;&gt;70779318 -->
<g id="edge9" class="edge">
<title>699925840&#45;&gt;70779318</title>
<path fill="none" stroke="black" d="M577.73,-33.98C552.62,-48.12 522,-71.93 522,-104 522,-280 522,-280 522,-280 522,-326.45 579.56,-348.39 620.06,-358.09"/>
<polygon fill="black" stroke="black" points="619.42,-361.53 629.95,-360.3 620.95,-354.7 619.42,-361.53"/>
<text text-anchor="middle" x="533.5" y="-188.3" font-family="Times,serif" font-size="14.00">Exit</text>
</g>
<!-- 699925840&#45;&gt;351667117 -->
<g id="edge11" class="edge">
<title>699925840&#45;&gt;351667117</title>
<path fill="none" stroke="black" d="M590.47,-35.35C585.43,-40.72 580.68,-47.09 578,-54 574.84,-62.13 576.8,-70.88 580.59,-78.75"/>
<polygon fill="black" stroke="black" points="577.64,-80.62 585.7,-87.49 583.68,-77.09 577.64,-80.62"/>
<text text-anchor="middle" x="589.5" y="-57.8" font-family="Times,serif" font-size="14.00">Edit</text>
</g>
<!-- 699925840&#45;&gt;348980133 -->
<g id="edge10" class="edge">
<title>699925840&#45;&gt;348980133</title>
<path fill="none" stroke="black" d="M660.5,-29.52C691.35,-38.9 728.2,-56.13 746,-87 777.81,-142.18 732.65,-215.87 704.17,-253.55"/>
<polygon fill="black" stroke="black" points="701.4,-251.41 698.04,-261.46 706.93,-255.7 701.4,-251.41"/>
<text text-anchor="middle" x="774" y="-144.8" font-family="Times,serif" font-size="14.00">ToIdle</text>
</g>
<!-- 351667117&#45;&gt;699925840 -->
<g id="edge8" class="edge">
<title>351667117&#45;&gt;699925840</title>
<path fill="none" stroke="black" d="M602.02,-86.8C603.39,-75.16 605.23,-59.55 606.8,-46.24"/>
<polygon fill="black" stroke="black" points="610.29,-46.52 607.98,-36.18 603.33,-45.7 610.29,-46.52"/>
<text text-anchor="middle" x="636.5" y="-57.8" font-family="Times,serif" font-size="14.00">ToSelected</text>
</g>
<!-- 514262132 -->
<g id="node17" class="node">
<title>514262132</title>
<ellipse fill="none" stroke="black" cx="206" cy="-540" rx="56.59" ry="18"/>
<text text-anchor="middle" x="206" y="-536.3" font-family="Times,serif" font-size="14.00">in_rect(map)</text>
</g>
<!-- 282329902&#45;&gt;514262132 -->
<g id="edge18" class="edge">
<title>282329902&#45;&gt;514262132</title>
<path fill="none" stroke="black" d="M221.85,-629.85C225.22,-615.33 228.37,-594.06 224,-576 223.27,-572.98 222.23,-569.92 221.01,-566.94"/>
<polygon fill="black" stroke="black" points="224.13,-565.35 216.69,-557.81 217.8,-568.34 224.13,-565.35"/>
<text text-anchor="middle" x="245.5" y="-590.3" font-family="Times,serif" font-size="14.00">InRect</text>
</g>
<!-- 282329902&#45;&gt;41681215 -->
<g id="edge17" class="edge">
<title>282329902&#45;&gt;41681215</title>
<path fill="none" stroke="black" d="M213.32,-666.13C212.08,-676.76 212.56,-690.03 220,-699 233.09,-714.77 286.64,-724.68 323.58,-729.78"/>
<polygon fill="black" stroke="black" points="323.14,-733.25 333.51,-731.09 324.05,-726.31 323.14,-733.25"/>
<text text-anchor="middle" x="231.5" y="-687.8" font-family="Times,serif" font-size="14.00">Exit</text>
</g>
<!-- 348980133&#45;&gt;602277099 -->
<g id="edge4" class="edge">
<title>348980133&#45;&gt;602277099</title>
<path fill="none" stroke="black" d="M650.41,-265.65C640.49,-260.27 630.76,-252.88 625,-243 621.09,-236.3 619.79,-228.18 619.75,-220.45"/>
<polygon fill="black" stroke="black" points="623.26,-220.52 620.36,-210.33 616.27,-220.1 623.26,-220.52"/>
<text text-anchor="middle" x="643.5" y="-231.8" font-family="Times,serif" font-size="14.00">InRect</text>
</g>
<!-- 348980133&#45;&gt;70779318 -->
<g id="edge3" class="edge">
<title>348980133&#45;&gt;70779318</title>
<path fill="none" stroke="black" d="M680.92,-297.31C679.01,-307.02 676.29,-319.3 673,-330 672.09,-332.97 671.03,-336.04 669.92,-339.07"/>
<polygon fill="black" stroke="black" points="666.63,-337.88 666.26,-348.47 673.15,-340.42 666.63,-337.88"/>
<text text-anchor="middle" x="689.5" y="-318.8" font-family="Times,serif" font-size="14.00">Exit</text>
</g>
<!-- 603063532&#45;&gt;349766566 -->
<g id="edge35" class="edge">
<title>603063532&#45;&gt;349766566</title>
<path fill="none" stroke="black" d="M327.39,-384.32C325.16,-394.5 324.3,-407.24 330,-417 334.52,-424.75 341.47,-430.92 349.1,-435.78"/>
<polygon fill="black" stroke="black" points="347.82,-439.08 358.26,-440.9 351.24,-432.97 347.82,-439.08"/>
<text text-anchor="middle" x="348" y="-405.8" font-family="Times,serif" font-size="14.00">ToIdle</text>
</g>
<!-- 603063532&#45;&gt;71500215 -->
<g id="edge34" class="edge">
<title>603063532&#45;&gt;71500215</title>
<path fill="none" stroke="black" d="M323.56,-383.78C312.74,-405.48 298.49,-443.72 315,-471 337.31,-507.88 386.09,-525.16 419.99,-532.97"/>
<polygon fill="black" stroke="black" points="419.47,-536.44 429.98,-535.11 420.93,-529.6 419.47,-536.44"/>
<text text-anchor="middle" x="326.5" y="-449.3" font-family="Times,serif" font-size="14.00">Exit</text>
</g>
<!-- 352453550 -->
<g id="node15" class="node">
<title>352453550</title>
<ellipse fill="none" stroke="black" cx="388" cy="-192" rx="44.69" ry="18"/>
<text text-anchor="middle" x="388" y="-188.3" font-family="Times,serif" font-size="14.00">edit(play)</text>
</g>
<!-- 603063532&#45;&gt;352453550 -->
<g id="edge36" class="edge">
<title>603063532&#45;&gt;352453550</title>
<path fill="none" stroke="black" d="M328.1,-347.78C322.97,-326.6 317.07,-289.91 328,-261 334.69,-243.32 348.3,-227.26 360.87,-215.2"/>
<polygon fill="black" stroke="black" points="363.48,-217.56 368.5,-208.22 358.75,-212.39 363.48,-217.56"/>
<text text-anchor="middle" x="346.5" y="-275.3" font-family="Times,serif" font-size="14.00">ToEdit</text>
</g>
<!-- 700712273 -->
<g id="node16" class="node">
<title>700712273</title>
<ellipse fill="none" stroke="black" cx="434" cy="-279" rx="59.59" ry="18"/>
<text text-anchor="middle" x="434" y="-275.3" font-family="Times,serif" font-size="14.00">selected(play)</text>
</g>
<!-- 603063532&#45;&gt;700712273 -->
<g id="edge41" class="edge">
<title>603063532&#45;&gt;700712273</title>
<path fill="none" stroke="black" d="M338.26,-347.92C342.25,-337.32 348.66,-324.05 358,-315 365.59,-307.65 375.01,-301.65 384.59,-296.83"/>
<polygon fill="black" stroke="black" points="386.19,-299.94 393.79,-292.56 383.24,-293.59 386.19,-299.94"/>
<text text-anchor="middle" x="388.5" y="-318.8" font-family="Times,serif" font-size="14.00">ToSelected</text>
</g>
<!-- 71500215&#45;&gt;349766566 -->
<g id="edge31" class="edge">
<title>71500215&#45;&gt;349766566</title>
<path fill="none" stroke="black" d="M430.68,-533.71C414.58,-528.89 394.94,-519.99 385,-504 380.7,-497.09 380.44,-488.62 381.86,-480.63"/>
<polygon fill="black" stroke="black" points="385.25,-481.47 384.36,-470.91 378.47,-479.72 385.25,-481.47"/>
<text text-anchor="middle" x="409.5" y="-492.8" font-family="Times,serif" font-size="14.00">ToEditor</text>
</g>
<!-- 71500215&#45;&gt;1505101769 -->
<g id="edge42" class="edge">
<title>71500215&#45;&gt;1505101769</title>
<path fill="none" stroke="black" d="M476.33,-528.06C501.21,-514.68 543.88,-491.72 575.14,-474.91"/>
<polygon fill="black" stroke="black" points="576.88,-477.94 584.03,-470.12 573.57,-471.78 576.88,-477.94"/>
<text text-anchor="middle" x="568.5" y="-492.8" font-family="Times,serif" font-size="14.00">ToMenu</text>
</g>
<!-- 352453550&#45;&gt;700712273 -->
<g id="edge37" class="edge">
<title>352453550&#45;&gt;700712273</title>
<path fill="none" stroke="black" d="M400.13,-209.33C404.15,-215.08 408.49,-221.69 412,-228 416.15,-235.46 420.1,-243.85 423.48,-251.6"/>
<polygon fill="black" stroke="black" points="420.31,-253.1 427.43,-260.96 426.76,-250.38 420.31,-253.1"/>
<text text-anchor="middle" x="450.5" y="-231.8" font-family="Times,serif" font-size="14.00">ToSelected</text>
</g>
<!-- 700712273&#45;&gt;349766566 -->
<g id="edge39" class="edge">
<title>700712273&#45;&gt;349766566</title>
<path fill="none" stroke="black" d="M435.27,-297.19C436.6,-323.9 436.56,-376.5 420,-417 418.49,-420.7 416.45,-424.33 414.16,-427.76"/>
<polygon fill="black" stroke="black" points="411.32,-425.72 408.12,-435.82 416.92,-429.92 411.32,-425.72"/>
<text text-anchor="middle" x="453" y="-362.3" font-family="Times,serif" font-size="14.00">ToIdle</text>
</g>
<!-- 700712273&#45;&gt;71500215 -->
<g id="edge38" class="edge">
<title>700712273&#45;&gt;71500215</title>
<path fill="none" stroke="black" d="M447.62,-296.68C457.37,-309.75 469.68,-328.88 475,-348 493.59,-414.83 484.53,-436.17 470,-504 469.35,-507.04 468.46,-510.15 467.44,-513.21"/>
<polygon fill="black" stroke="black" points="464.14,-512.04 463.88,-522.63 470.69,-514.51 464.14,-512.04"/>
<text text-anchor="middle" x="497.5" y="-405.8" font-family="Times,serif" font-size="14.00">Exit</text>
</g>
<!-- 700712273&#45;&gt;352453550 -->
<g id="edge40" class="edge">
<title>700712273&#45;&gt;352453550</title>
<path fill="none" stroke="black" d="M404.08,-263.31C396.48,-258.02 389.26,-251.27 385,-243 381.44,-236.09 380.74,-227.91 381.32,-220.19"/>
<polygon fill="black" stroke="black" points="384.81,-220.51 382.78,-210.11 377.88,-219.51 384.81,-220.51"/>
<text text-anchor="middle" x="396.5" y="-231.8" font-family="Times,serif" font-size="14.00">Edit</text>
</g>
<!-- 514262132&#45;&gt;284492598 -->
<g id="edge21" class="edge">
<title>514262132&#45;&gt;284492598</title>
<path fill="none" stroke="black" d="M179.68,-524.05C171.19,-518.45 162.14,-511.59 155,-504 148.35,-496.93 142.47,-488.14 137.72,-479.91"/>
<polygon fill="black" stroke="black" points="140.71,-478.08 132.85,-470.98 134.56,-481.43 140.71,-478.08"/>
<text text-anchor="middle" x="173.5" y="-492.8" font-family="Times,serif" font-size="14.00">ToEdit</text>
</g>
<!-- 514262132&#45;&gt;605291737 -->
<g id="edge26" class="edge">
<title>514262132&#45;&gt;605291737</title>
<path fill="none" stroke="black" d="M207.13,-521.57C208.01,-493.08 205.57,-436.3 176,-402 167.38,-391.99 155.57,-384.84 143.29,-379.73"/>
<polygon fill="black" stroke="black" points="144.45,-376.42 133.86,-376.2 142,-382.98 144.45,-376.42"/>
<text text-anchor="middle" x="235.5" y="-449.3" font-family="Times,serif" font-size="14.00">ToSelected</text>
</g>
<!-- 514262132&#45;&gt;282329902 -->
<g id="edge20" class="edge">
<title>514262132&#45;&gt;282329902</title>
<path fill="none" stroke="black" d="M192.96,-557.52C189.33,-563.08 185.87,-569.52 184,-576 179.57,-591.37 178.1,-597.13 184,-612 185.67,-616.22 188.13,-620.22 190.95,-623.91"/>
<polygon fill="black" stroke="black" points="188.34,-626.24 197.56,-631.46 193.6,-621.63 188.34,-626.24"/>
<text text-anchor="middle" x="202" y="-590.3" font-family="Times,serif" font-size="14.00">ToIdle</text>
</g>
<!-- 514262132&#45;&gt;41681215 -->
<g id="edge19" class="edge">
<title>514262132&#45;&gt;41681215</title>
<path fill="none" stroke="black" d="M238.16,-554.99C248.5,-560.51 259.47,-567.58 268,-576 307.31,-614.79 335.69,-673.84 349.83,-707.69"/>
<polygon fill="black" stroke="black" points="346.75,-709.4 353.76,-717.34 353.23,-706.76 346.75,-709.4"/>
<text text-anchor="middle" x="342.5" y="-644.3" font-family="Times,serif" font-size="14.00">Exit</text>
</g>
<!-- 1355482962 -->
<g id="node18" class="node">
<title>1355482962</title>
<ellipse fill="none" stroke="black" cx="456" cy="-648" rx="87.99" ry="18"/>
<text text-anchor="middle" x="456" y="-644.3" font-family="Times,serif" font-size="14.00">animation(map, play)</text>
</g>
<!-- 1355482962&#45;&gt;71500215 -->
<g id="edge30" class="edge">
<title>1355482962&#45;&gt;71500215</title>
<path fill="none" stroke="black" d="M456,-629.97C456,-613.38 456,-587.88 456,-568.43"/>
<polygon fill="black" stroke="black" points="459.5,-568.34 456,-558.34 452.5,-568.34 459.5,-568.34"/>
<text text-anchor="middle" x="467" y="-590.3" font-family="Times,serif" font-size="14.00">End</text>
</g>
<!-- 41681215&#45;&gt;71696827 -->
<g id="edge15" class="edge">
<title>41681215&#45;&gt;71696827</title>
<path fill="none" stroke="black" d="M387.17,-734.29C480.02,-734.58 779,-729.26 779,-649 779,-649 779,-649 779,-365 779,-345.75 779,-324.05 779,-307.4"/>
<polygon fill="black" stroke="black" points="782.5,-307.26 779,-297.26 775.5,-307.26 782.5,-307.26"/>
<text text-anchor="middle" x="790.5" y="-492.8" font-family="Times,serif" font-size="14.00">Exit</text>
</g>
<!-- 41681215&#45;&gt;282329902 -->
<g id="edge16" class="edge">
<title>41681215&#45;&gt;282329902</title>
<path fill="none" stroke="black" d="M334.86,-728.29C314.58,-722.89 285.92,-713.45 264,-699 253.54,-692.1 243.74,-682.43 235.82,-673.43"/>
<polygon fill="black" stroke="black" points="238.5,-671.18 229.38,-665.78 233.15,-675.68 238.5,-671.18"/>
<text text-anchor="middle" x="288.5" y="-687.8" font-family="Times,serif" font-size="14.00">ToEditor</text>
</g>
<!-- 41681215&#45;&gt;1355482962 -->
<g id="edge29" class="edge">
<title>41681215&#45;&gt;1355482962</title>
<path fill="none" stroke="black" d="M375.85,-719.96C390.45,-707.04 412.38,-687.62 429.61,-672.37"/>
<polygon fill="black" stroke="black" points="431.99,-674.94 437.16,-665.69 427.35,-669.69 431.99,-674.94"/>
<text text-anchor="middle" x="433.5" y="-687.8" font-family="Times,serif" font-size="14.00">ToPlay</text>
</g>
<!-- 1354696529 -->
<g id="node20" class="node">
<title>1354696529</title>
<ellipse fill="none" stroke="black" cx="624" cy="-594" rx="92.88" ry="18"/>
<text text-anchor="middle" x="624" y="-590.3" font-family="Times,serif" font-size="14.00">animation(map, menu)</text>
</g>
<!-- 41681215&#45;&gt;1354696529 -->
<g id="edge27" class="edge">
<title>41681215&#45;&gt;1354696529</title>
<path fill="none" stroke="black" d="M385.66,-728.81C424.23,-720.18 498.44,-700.36 553,-666 572.54,-653.69 590.87,-635.11 604.01,-620.04"/>
<polygon fill="black" stroke="black" points="606.95,-621.99 610.75,-612.1 601.61,-617.46 606.95,-621.99"/>
<text text-anchor="middle" x="542.5" y="-687.8" font-family="Times,serif" font-size="14.00">ToMenu</text>
</g>
<!-- 1354696529&#45;&gt;70779318 -->
<g id="edge28" class="edge">
<title>1354696529&#45;&gt;70779318</title>
<path fill="none" stroke="black" d="M642.34,-576.15C664.53,-554.38 700.68,-514.14 715,-471 720.04,-455.81 720.4,-450.06 715,-435 708.58,-417.12 695.21,-400.58 683.14,-388.29"/>
<polygon fill="black" stroke="black" points="685.48,-385.68 675.87,-381.21 680.59,-390.7 685.48,-385.68"/>
<text text-anchor="middle" x="718" y="-492.8" font-family="Times,serif" font-size="14.00">End</text>
</g>
</g>
</svg>
