<?xml version="1.0" encoding="UTF-8" standalone="no"?>
<!DOCTYPE svg PUBLIC "-//W3C//DTD SVG 1.1//EN"
 "http://www.w3.org/Graphics/SVG/1.1/DTD/svg11.dtd">
<!-- Generated by graphviz version 2.43.0 (0)
 -->
<!-- Title: G Pages: 1 -->
<svg width="1331pt" height="1109pt"
 viewBox="0.00 0.00 1330.64 1109.00" xmlns="http://www.w3.org/2000/svg" xmlns:xlink="http://www.w3.org/1999/xlink">
<g id="graph0" class="graph" transform="scale(1 1) rotate(0) translate(4 1105)">
<title>G</title>
<polygon fill="white" stroke="transparent" points="-4,4 -4,-1105 1326.64,-1105 1326.64,4 -4,4"/>
<!-- 1367869265 -->
<g id="node1" class="node">
<title>1367869265</title>
<ellipse fill="none" stroke="black" cx="793.64" cy="-1083" rx="92.88" ry="18"/>
<text text-anchor="middle" x="793.64" y="-1079.3" font-family="Times,serif" font-size="14.00">animation(menu, map)</text>
</g>
<!-- 41681215 -->
<g id="node18" class="node">
<title>41681215</title>
<ellipse fill="none" stroke="black" cx="458.64" cy="-996" rx="27" ry="18"/>
<text text-anchor="middle" x="458.64" y="-992.3" font-family="Times,serif" font-size="14.00">map</text>
</g>
<!-- 1367869265&#45;&gt;41681215 -->
<g id="edge16" class="edge">
<title>1367869265&#45;&gt;41681215</title>
<path fill="none" stroke="black" d="M739.45,-1068.25C670.09,-1050.65 551.96,-1020.68 493.51,-1005.85"/>
<polygon fill="black" stroke="black" points="494.2,-1002.41 483.65,-1003.35 492.48,-1009.2 494.2,-1002.41"/>
<text text-anchor="middle" x="656.64" y="-1035.8" font-family="Times,serif" font-size="14.00">End</text>
</g>
<!-- 1414661941 -->
<g id="node2" class="node">
<title>1414661941</title>
<ellipse fill="none" stroke="black" cx="91.64" cy="-714" rx="91.78" ry="18"/>
<text text-anchor="middle" x="91.64" y="-710.3" font-family="Times,serif" font-size="14.00">hover(map, edit(map))</text>
</g>
<!-- 284492598 -->
<g id="node3" class="node">
<title>284492598</title>
<ellipse fill="none" stroke="black" cx="271.64" cy="-627" rx="45.49" ry="18"/>
<text text-anchor="middle" x="271.64" y="-623.3" font-family="Times,serif" font-size="14.00">edit(map)</text>
</g>
<!-- 1414661941&#45;&gt;284492598 -->
<g id="edge27" class="edge">
<title>1414661941&#45;&gt;284492598</title>
<path fill="none" stroke="black" d="M108.1,-696.05C119.45,-685.24 135.36,-671.67 151.64,-663 173.24,-651.5 199.08,-643.34 221.25,-637.81"/>
<polygon fill="black" stroke="black" points="222.23,-641.18 231.15,-635.45 220.61,-634.37 222.23,-641.18"/>
<text text-anchor="middle" x="182.14" y="-666.8" font-family="Times,serif" font-size="14.00">ToSelected</text>
</g>
<!-- 1551173521 -->
<g id="node9" class="node">
<title>1551173521</title>
<ellipse fill="none" stroke="black" cx="257.64" cy="-909" rx="91.78" ry="18"/>
<text text-anchor="middle" x="257.64" y="-905.3" font-family="Times,serif" font-size="14.00">select(map, edit(map))</text>
</g>
<!-- 1414661941&#45;&gt;1551173521 -->
<g id="edge25" class="edge">
<title>1414661941&#45;&gt;1551173521</title>
<path fill="none" stroke="black" d="M75.41,-731.84C56.79,-753.27 31.09,-790.88 49.64,-819 77.65,-861.46 130.55,-883.73 175.99,-895.38"/>
<polygon fill="black" stroke="black" points="175.31,-898.82 185.86,-897.78 176.97,-892.02 175.31,-898.82"/>
<text text-anchor="middle" x="78.14" y="-797.3" font-family="Times,serif" font-size="14.00">ToOutside</text>
</g>
<!-- 1547765645 -->
<g id="node17" class="node">
<title>1547765645</title>
<ellipse fill="none" stroke="black" cx="208.64" cy="-801" rx="92.88" ry="18"/>
<text text-anchor="middle" x="208.64" y="-797.3" font-family="Times,serif" font-size="14.00">inside(map, edit(map))</text>
</g>
<!-- 1414661941&#45;&gt;1547765645 -->
<g id="edge26" class="edge">
<title>1414661941&#45;&gt;1547765645</title>
<path fill="none" stroke="black" d="M85.36,-732.36C82.77,-742.81 81.75,-755.82 88.64,-765 96.4,-775.34 107.04,-782.77 118.81,-788.07"/>
<polygon fill="black" stroke="black" points="117.87,-791.46 128.46,-791.89 120.45,-784.95 117.87,-791.46"/>
<text text-anchor="middle" x="112.64" y="-753.8" font-family="Times,serif" font-size="14.00">ToInside</text>
</g>
<!-- 1414661941&#45;&gt;41681215 -->
<g id="edge24" class="edge">
<title>1414661941&#45;&gt;41681215</title>
<path fill="none" stroke="black" d="M65.91,-731.63C59.49,-736.84 53.16,-743.06 48.64,-750 31.77,-775.92 31.67,-789.12 39.64,-819 59.11,-892.01 66.49,-927.37 134.64,-960 184.5,-983.87 346.99,-991.69 421.14,-994.06"/>
<polygon fill="black" stroke="black" points="421.32,-997.56 431.42,-994.37 421.53,-990.57 421.32,-997.56"/>
<text text-anchor="middle" x="77.14" y="-851.3" font-family="Times,serif" font-size="14.00">ToBack</text>
</g>
<!-- 284492598&#45;&gt;1551173521 -->
<g id="edge29" class="edge">
<title>284492598&#45;&gt;1551173521</title>
<path fill="none" stroke="black" d="M280.82,-644.79C287.73,-658.23 296.81,-677.79 301.64,-696 311.74,-734.07 329.3,-838.32 310.64,-873 308,-877.92 304.33,-882.26 300.14,-886.06"/>
<polygon fill="black" stroke="black" points="297.86,-883.4 292.15,-892.32 302.18,-888.9 297.86,-883.4"/>
<text text-anchor="middle" x="343.14" y="-753.8" font-family="Times,serif" font-size="14.00">ToOutside</text>
</g>
<!-- 284492598&#45;&gt;41681215 -->
<g id="edge28" class="edge">
<title>284492598&#45;&gt;41681215</title>
<path fill="none" stroke="black" d="M308.03,-637.93C342.05,-649.69 387.64,-672.93 387.64,-713 387.64,-910 387.64,-910 387.64,-910 387.64,-938.26 411.05,-962.1 430.99,-977.27"/>
<polygon fill="black" stroke="black" points="429.08,-980.21 439.24,-983.22 433.18,-974.53 429.08,-980.21"/>
<text text-anchor="middle" x="404.64" y="-797.3" font-family="Times,serif" font-size="14.00">Finish</text>
</g>
<!-- 625345865 -->
<g id="node4" class="node">
<title>625345865</title>
<ellipse fill="none" stroke="black" cx="497.64" cy="-627" rx="55.79" ry="18"/>
<text text-anchor="middle" x="497.64" y="-623.3" font-family="Times,serif" font-size="14.00">selected_cell</text>
</g>
<!-- 71500215 -->
<g id="node14" class="node">
<title>71500215</title>
<ellipse fill="none" stroke="black" cx="490.64" cy="-540" rx="27" ry="18"/>
<text text-anchor="middle" x="490.64" y="-536.3" font-family="Times,serif" font-size="14.00">play</text>
</g>
<!-- 625345865&#45;&gt;71500215 -->
<g id="edge43" class="edge">
<title>625345865&#45;&gt;71500215</title>
<path fill="none" stroke="black" d="M496.23,-608.8C495.27,-597.16 493.98,-581.55 492.88,-568.24"/>
<polygon fill="black" stroke="black" points="496.37,-567.85 492.06,-558.18 489.39,-568.43 496.37,-567.85"/>
<text text-anchor="middle" x="514.14" y="-579.8" font-family="Times,serif" font-size="14.00">ToPlay</text>
</g>
<!-- 71696827 -->
<g id="node5" class="node">
<title>71696827</title>
<ellipse fill="none" stroke="black" cx="832.64" cy="-279" rx="27" ry="18"/>
<text text-anchor="middle" x="832.64" y="-275.3" font-family="Times,serif" font-size="14.00">exit</text>
</g>
<!-- 2047740232 -->
<g id="node6" class="node">
<title>2047740232</title>
<ellipse fill="none" stroke="black" cx="679.64" cy="-714" rx="102.88" ry="18"/>
<text text-anchor="middle" x="679.64" y="-710.3" font-family="Times,serif" font-size="14.00">hover(map, selected_cell)</text>
</g>
<!-- 2047740232&#45;&gt;625345865 -->
<g id="edge42" class="edge">
<title>2047740232&#45;&gt;625345865</title>
<path fill="none" stroke="black" d="M645.41,-697.01C614.67,-682.66 569.54,-661.58 537.25,-646.5"/>
<polygon fill="black" stroke="black" points="538.63,-643.28 528.09,-642.22 535.67,-649.62 538.63,-643.28"/>
<text text-anchor="middle" x="629.14" y="-666.8" font-family="Times,serif" font-size="14.00">ToSelected</text>
</g>
<!-- 2203912608 -->
<g id="node16" class="node">
<title>2203912608</title>
<ellipse fill="none" stroke="black" cx="542.64" cy="-801" rx="103.18" ry="18"/>
<text text-anchor="middle" x="542.64" y="-797.3" font-family="Times,serif" font-size="14.00">inside(map, selected_cell)</text>
</g>
<!-- 2047740232&#45;&gt;2203912608 -->
<g id="edge41" class="edge">
<title>2047740232&#45;&gt;2203912608</title>
<path fill="none" stroke="black" d="M650.79,-731.46C640.86,-737.22 629.7,-743.8 619.64,-750 605.17,-758.91 589.39,-769.08 575.91,-777.9"/>
<polygon fill="black" stroke="black" points="573.85,-775.07 567.42,-783.48 577.7,-780.92 573.85,-775.07"/>
<text text-anchor="middle" x="643.64" y="-753.8" font-family="Times,serif" font-size="14.00">ToInside</text>
</g>
<!-- 2047740232&#45;&gt;41681215 -->
<g id="edge39" class="edge">
<title>2047740232&#45;&gt;41681215</title>
<path fill="none" stroke="black" d="M703.34,-731.61C718.6,-743.84 737.11,-761.96 745.64,-783 770.02,-843.13 764.79,-878.55 721.64,-927 691.71,-960.61 560.2,-981.9 495.23,-990.56"/>
<polygon fill="black" stroke="black" points="494.49,-987.13 485.03,-991.89 495.4,-994.07 494.49,-987.13"/>
<text text-anchor="middle" x="781.14" y="-851.3" font-family="Times,serif" font-size="14.00">ToBack</text>
</g>
<!-- 2208369060 -->
<g id="node19" class="node">
<title>2208369060</title>
<ellipse fill="none" stroke="black" cx="609.64" cy="-909" rx="102.88" ry="18"/>
<text text-anchor="middle" x="609.64" y="-905.3" font-family="Times,serif" font-size="14.00">select(map, selected_cell)</text>
</g>
<!-- 2047740232&#45;&gt;2208369060 -->
<g id="edge40" class="edge">
<title>2047740232&#45;&gt;2208369060</title>
<path fill="none" stroke="black" d="M682.44,-732.18C686.53,-762.92 690.95,-828.29 663.64,-873 660.73,-877.77 656.9,-882.01 652.61,-885.74"/>
<polygon fill="black" stroke="black" points="650.33,-883.08 644.51,-891.93 654.58,-888.64 650.33,-883.08"/>
<text text-anchor="middle" x="713.14" y="-797.3" font-family="Times,serif" font-size="14.00">ToOutside</text>
</g>
<!-- 1874004097 -->
<g id="node7" class="node">
<title>1874004097</title>
<ellipse fill="none" stroke="black" cx="362.64" cy="-453" rx="90.18" ry="18"/>
<text text-anchor="middle" x="362.64" y="-449.3" font-family="Times,serif" font-size="14.00">select(play, edit(play))</text>
</g>
<!-- 1874004097&#45;&gt;71500215 -->
<g id="edge45" class="edge">
<title>1874004097&#45;&gt;71500215</title>
<path fill="none" stroke="black" d="M356.78,-471.42C354.42,-481.89 353.67,-494.9 360.64,-504 371.98,-518.79 419.65,-528.74 453.99,-534.14"/>
<polygon fill="black" stroke="black" points="453.75,-537.64 464.16,-535.67 454.79,-530.72 453.75,-537.64"/>
<text text-anchor="middle" x="382.14" y="-492.8" font-family="Times,serif" font-size="14.00">ToBack</text>
</g>
<!-- 1870071933 -->
<g id="node22" class="node">
<title>1870071933</title>
<ellipse fill="none" stroke="black" cx="396.64" cy="-366" rx="90.98" ry="18"/>
<text text-anchor="middle" x="396.64" y="-362.3" font-family="Times,serif" font-size="14.00">inside(play, edit(play))</text>
</g>
<!-- 1874004097&#45;&gt;1870071933 -->
<g id="edge46" class="edge">
<title>1874004097&#45;&gt;1870071933</title>
<path fill="none" stroke="black" d="M379.28,-435.08C383.67,-429.7 387.93,-423.46 390.64,-417 393.58,-409.99 395.22,-401.96 396.1,-394.43"/>
<polygon fill="black" stroke="black" points="399.6,-394.5 396.89,-384.26 392.62,-393.96 399.6,-394.5"/>
<text text-anchor="middle" x="419.64" y="-405.8" font-family="Times,serif" font-size="14.00">ToInside</text>
</g>
<!-- 1505101769 -->
<g id="node8" class="node">
<title>1505101769</title>
<ellipse fill="none" stroke="black" cx="704.64" cy="-453" rx="91.78" ry="18"/>
<text text-anchor="middle" x="704.64" y="-449.3" font-family="Times,serif" font-size="14.00">animation(play, menu)</text>
</g>
<!-- 70779318 -->
<g id="node10" class="node">
<title>70779318</title>
<ellipse fill="none" stroke="black" cx="952.64" cy="-366" rx="30.59" ry="18"/>
<text text-anchor="middle" x="952.64" y="-362.3" font-family="Times,serif" font-size="14.00">menu</text>
</g>
<!-- 1505101769&#45;&gt;70779318 -->
<g id="edge58" class="edge">
<title>1505101769&#45;&gt;70779318</title>
<path fill="none" stroke="black" d="M748.12,-437.1C796.17,-420.63 872.62,-394.43 917.18,-379.15"/>
<polygon fill="black" stroke="black" points="918.4,-382.44 926.72,-375.88 916.13,-375.82 918.4,-382.44"/>
<text text-anchor="middle" x="853.64" y="-405.8" font-family="Times,serif" font-size="14.00">End</text>
</g>
<!-- 1551173521&#45;&gt;1547765645 -->
<g id="edge20" class="edge">
<title>1551173521&#45;&gt;1547765645</title>
<path fill="none" stroke="black" d="M210.54,-893.45C201.45,-888.44 193.07,-881.78 187.64,-873 179.16,-859.28 184.04,-841.94 191.22,-827.84"/>
<polygon fill="black" stroke="black" points="194.29,-829.54 196.16,-819.11 188.19,-826.09 194.29,-829.54"/>
<text text-anchor="middle" x="211.64" y="-851.3" font-family="Times,serif" font-size="14.00">ToInside</text>
</g>
<!-- 1551173521&#45;&gt;41681215 -->
<g id="edge19" class="edge">
<title>1551173521&#45;&gt;41681215</title>
<path fill="none" stroke="black" d="M281.5,-926.62C301.75,-940.68 327.94,-958.75 330.64,-960 360.35,-973.76 396.53,-983.03 422.83,-988.55"/>
<polygon fill="black" stroke="black" points="422.25,-992.01 432.75,-990.56 423.64,-985.15 422.25,-992.01"/>
<text text-anchor="middle" x="352.14" y="-948.8" font-family="Times,serif" font-size="14.00">ToBack</text>
</g>
<!-- 70779318&#45;&gt;1367869265 -->
<g id="edge15" class="edge">
<title>70779318&#45;&gt;1367869265</title>
<path fill="none" stroke="black" d="M976.69,-377.58C1002.74,-390.86 1040.64,-416.32 1040.64,-452 1040.64,-997 1040.64,-997 1040.64,-997 1040.64,-1032.68 947.33,-1056.61 875.41,-1069.76"/>
<polygon fill="black" stroke="black" points="874.65,-1066.34 865.42,-1071.54 875.88,-1073.23 874.65,-1066.34"/>
<text text-anchor="middle" x="1060.14" y="-710.3" font-family="Times,serif" font-size="14.00">ToPlay</text>
</g>
<!-- 70779318&#45;&gt;71696827 -->
<g id="edge1" class="edge">
<title>70779318&#45;&gt;71696827</title>
<path fill="none" stroke="black" d="M923.48,-359.9C903.31,-355.1 876.91,-346.15 858.64,-330 851.4,-323.6 845.87,-314.69 841.82,-306.16"/>
<polygon fill="black" stroke="black" points="844.99,-304.68 837.85,-296.85 838.55,-307.42 844.99,-304.68"/>
<text text-anchor="middle" x="870.14" y="-318.8" font-family="Times,serif" font-size="14.00">Exit</text>
</g>
<!-- 1871579263 -->
<g id="node20" class="node">
<title>1871579263</title>
<ellipse fill="none" stroke="black" cx="1024.64" cy="-279" rx="100.98" ry="18"/>
<text text-anchor="middle" x="1024.64" y="-275.3" font-family="Times,serif" font-size="14.00">select(menu, edit(menu))</text>
</g>
<!-- 70779318&#45;&gt;1871579263 -->
<g id="edge2" class="edge">
<title>70779318&#45;&gt;1871579263</title>
<path fill="none" stroke="black" d="M948.79,-347.98C947.42,-337.66 947.49,-324.67 953.64,-315 957.31,-309.23 962.23,-304.39 967.78,-300.32"/>
<polygon fill="black" stroke="black" points="969.73,-303.23 976.28,-294.91 965.97,-297.32 969.73,-303.23"/>
<text text-anchor="middle" x="978.14" y="-318.8" font-family="Times,serif" font-size="14.00">ToEditor</text>
</g>
<!-- 352453550 -->
<g id="node11" class="node">
<title>352453550</title>
<ellipse fill="none" stroke="black" cx="360.64" cy="-192" rx="44.69" ry="18"/>
<text text-anchor="middle" x="360.64" y="-188.3" font-family="Times,serif" font-size="14.00">edit(play)</text>
</g>
<!-- 352453550&#45;&gt;1874004097 -->
<g id="edge55" class="edge">
<title>352453550&#45;&gt;1874004097</title>
<path fill="none" stroke="black" d="M393.61,-204.25C419.74,-214.86 455.16,-233.31 475.64,-261 499.3,-292.98 491.94,-308.5 496.64,-348 498.53,-363.89 504.16,-369.88 496.64,-384 483.11,-409.43 456.31,-425.58 430.22,-435.72"/>
<polygon fill="black" stroke="black" points="428.87,-432.48 420.66,-439.18 431.25,-439.06 428.87,-432.48"/>
<text text-anchor="middle" x="524.14" y="-318.8" font-family="Times,serif" font-size="14.00">ToOutside</text>
</g>
<!-- 352453550&#45;&gt;71500215 -->
<g id="edge54" class="edge">
<title>352453550&#45;&gt;71500215</title>
<path fill="none" stroke="black" d="M315.76,-193.19C256.79,-196.07 160.64,-211.03 160.64,-278 160.64,-454 160.64,-454 160.64,-454 160.64,-513.92 367.23,-532.23 453.49,-537.27"/>
<polygon fill="black" stroke="black" points="453.46,-540.77 463.64,-537.83 453.85,-533.78 453.46,-540.77"/>
<text text-anchor="middle" x="177.64" y="-362.3" font-family="Times,serif" font-size="14.00">Finish</text>
</g>
<!-- 351667117 -->
<g id="node12" class="node">
<title>351667117</title>
<ellipse fill="none" stroke="black" cx="1021.64" cy="-18" rx="50.09" ry="18"/>
<text text-anchor="middle" x="1021.64" y="-14.3" font-family="Times,serif" font-size="14.00">edit(menu)</text>
</g>
<!-- 351667117&#45;&gt;70779318 -->
<g id="edge12" class="edge">
<title>351667117&#45;&gt;70779318</title>
<path fill="none" stroke="black" d="M980.73,-28.4C943.94,-39.56 895.64,-62.18 895.64,-104 895.64,-280 895.64,-280 895.64,-280 895.64,-304.89 912.71,-327.99 928.16,-343.81"/>
<polygon fill="black" stroke="black" points="925.93,-346.51 935.54,-350.96 930.8,-341.49 925.93,-346.51"/>
<text text-anchor="middle" x="912.64" y="-188.3" font-family="Times,serif" font-size="14.00">Finish</text>
</g>
<!-- 351667117&#45;&gt;1871579263 -->
<g id="edge13" class="edge">
<title>351667117&#45;&gt;1871579263</title>
<path fill="none" stroke="black" d="M1006.46,-35.6C985.37,-60.7 950.95,-110.23 961.64,-156 970.01,-191.81 991.17,-228.77 1006.67,-252.49"/>
<polygon fill="black" stroke="black" points="1003.83,-254.53 1012.3,-260.9 1009.65,-250.64 1003.83,-254.53"/>
<text text-anchor="middle" x="990.14" y="-144.8" font-family="Times,serif" font-size="14.00">ToOutside</text>
</g>
<!-- 1867647099 -->
<g id="node13" class="node">
<title>1867647099</title>
<ellipse fill="none" stroke="black" cx="1179.64" cy="-192" rx="101.28" ry="18"/>
<text text-anchor="middle" x="1179.64" y="-188.3" font-family="Times,serif" font-size="14.00">inside(menu, edit(menu))</text>
</g>
<!-- 1867647099&#45;&gt;70779318 -->
<g id="edge5" class="edge">
<title>1867647099&#45;&gt;70779318</title>
<path fill="none" stroke="black" d="M1176.78,-210.38C1172.08,-233.46 1160.51,-273.98 1134.64,-297 1093.96,-333.2 1032.21,-350.79 992.14,-358.84"/>
<polygon fill="black" stroke="black" points="991.36,-355.42 982.2,-360.73 992.67,-362.3 991.36,-355.42"/>
<text text-anchor="middle" x="1181.14" y="-275.3" font-family="Times,serif" font-size="14.00">ToBack</text>
</g>
<!-- 1867647099&#45;&gt;351667117 -->
<g id="edge14" class="edge">
<title>1867647099&#45;&gt;351667117</title>
<path fill="none" stroke="black" d="M1194.35,-173.93C1198.13,-168.54 1201.68,-162.33 1203.64,-156 1209.4,-137.42 1207.36,-101.39 1196.64,-87 1169.24,-50.21 1119.07,-33.32 1079.45,-25.56"/>
<polygon fill="black" stroke="black" points="1079.83,-22.08 1069.37,-23.74 1078.58,-28.96 1079.83,-22.08"/>
<text text-anchor="middle" x="1236.14" y="-101.3" font-family="Times,serif" font-size="14.00">ToSelected</text>
</g>
<!-- 1723009059 -->
<g id="node15" class="node">
<title>1723009059</title>
<ellipse fill="none" stroke="black" cx="1086.64" cy="-105" rx="100.98" ry="18"/>
<text text-anchor="middle" x="1086.64" y="-101.3" font-family="Times,serif" font-size="14.00">hover(menu, edit(menu))</text>
</g>
<!-- 1867647099&#45;&gt;1723009059 -->
<g id="edge7" class="edge">
<title>1867647099&#45;&gt;1723009059</title>
<path fill="none" stroke="black" d="M1117.56,-177.65C1106.7,-172.59 1096.65,-165.62 1089.64,-156 1084.94,-149.55 1083.22,-141.3 1082.96,-133.37"/>
<polygon fill="black" stroke="black" points="1086.46,-133.42 1083.31,-123.3 1079.46,-133.17 1086.46,-133.42"/>
<text text-anchor="middle" x="1114.14" y="-144.8" font-family="Times,serif" font-size="14.00">ToHover</text>
</g>
<!-- 1867647099&#45;&gt;1871579263 -->
<g id="edge6" class="edge">
<title>1867647099&#45;&gt;1871579263</title>
<path fill="none" stroke="black" d="M1102.54,-203.69C1072.86,-209.36 1043.66,-217.39 1033.64,-228 1027.94,-234.04 1025.21,-242.41 1024.05,-250.57"/>
<polygon fill="black" stroke="black" points="1020.55,-250.38 1023.3,-260.61 1027.53,-250.9 1020.55,-250.38"/>
<text text-anchor="middle" x="1062.14" y="-231.8" font-family="Times,serif" font-size="14.00">ToOutside</text>
</g>
<!-- 71500215&#45;&gt;1874004097 -->
<g id="edge44" class="edge">
<title>71500215&#45;&gt;1874004097</title>
<path fill="none" stroke="black" d="M469.76,-528.4C457.27,-521.82 441.24,-512.93 427.64,-504 415.13,-495.78 401.92,-485.87 390.71,-477.05"/>
<polygon fill="black" stroke="black" points="392.57,-474.06 382.56,-470.56 388.21,-479.53 392.57,-474.06"/>
<text text-anchor="middle" x="452.14" y="-492.8" font-family="Times,serif" font-size="14.00">ToEditor</text>
</g>
<!-- 71500215&#45;&gt;1505101769 -->
<g id="edge57" class="edge">
<title>71500215&#45;&gt;1505101769</title>
<path fill="none" stroke="black" d="M514.97,-532.08C537.07,-525.57 570.42,-515.18 598.64,-504 620.75,-495.24 644.77,-484.06 664.34,-474.49"/>
<polygon fill="black" stroke="black" points="666.14,-477.51 673.56,-469.94 663.05,-471.23 666.14,-477.51"/>
<text text-anchor="middle" x="654.14" y="-492.8" font-family="Times,serif" font-size="14.00">ToMenu</text>
</g>
<!-- 1723009059&#45;&gt;70779318 -->
<g id="edge8" class="edge">
<title>1723009059&#45;&gt;70779318</title>
<path fill="none" stroke="black" d="M1151.22,-118.85C1204.4,-130.92 1273.56,-150.61 1289.64,-174 1298.71,-187.19 1295.59,-195.15 1289.64,-210 1242.95,-326.57 1071.87,-355.49 992.98,-362.65"/>
<polygon fill="black" stroke="black" points="992.6,-359.17 982.93,-363.49 993.19,-366.14 992.6,-359.17"/>
<text text-anchor="middle" x="1301.14" y="-231.8" font-family="Times,serif" font-size="14.00">ToBack</text>
</g>
<!-- 1723009059&#45;&gt;351667117 -->
<g id="edge11" class="edge">
<title>1723009059&#45;&gt;351667117</title>
<path fill="none" stroke="black" d="M1073.49,-86.8C1064.03,-74.43 1051.12,-57.55 1040.56,-43.74"/>
<polygon fill="black" stroke="black" points="1043.19,-41.41 1034.33,-35.6 1037.63,-45.67 1043.19,-41.41"/>
<text text-anchor="middle" x="1088.14" y="-57.8" font-family="Times,serif" font-size="14.00">ToSelected</text>
</g>
<!-- 1723009059&#45;&gt;1867647099 -->
<g id="edge10" class="edge">
<title>1723009059&#45;&gt;1867647099</title>
<path fill="none" stroke="black" d="M1114.2,-122.39C1122.44,-127.85 1131.24,-134.26 1138.64,-141 1146.74,-148.37 1154.61,-157.37 1161.26,-165.7"/>
<polygon fill="black" stroke="black" points="1158.58,-167.96 1167.47,-173.72 1164.12,-163.67 1158.58,-167.96"/>
<text text-anchor="middle" x="1175.64" y="-144.8" font-family="Times,serif" font-size="14.00">ToInside</text>
</g>
<!-- 1723009059&#45;&gt;1871579263 -->
<g id="edge9" class="edge">
<title>1723009059&#45;&gt;1871579263</title>
<path fill="none" stroke="black" d="M1059.4,-122.5C1042.47,-134.44 1022.18,-152.27 1012.64,-174 1001.79,-198.71 1007.56,-229.74 1014.33,-251.45"/>
<polygon fill="black" stroke="black" points="1011.04,-252.65 1017.55,-261 1017.67,-250.41 1011.04,-252.65"/>
<text text-anchor="middle" x="1041.14" y="-188.3" font-family="Times,serif" font-size="14.00">ToOutside</text>
</g>
<!-- 2203912608&#45;&gt;625345865 -->
<g id="edge59" class="edge">
<title>2203912608&#45;&gt;625345865</title>
<path fill="none" stroke="black" d="M531.12,-782.94C522.79,-769.66 512.08,-750.45 506.64,-732 499.22,-706.83 497.32,-676.87 497.06,-655.59"/>
<polygon fill="black" stroke="black" points="500.56,-655.32 497.06,-645.32 493.56,-655.32 500.56,-655.32"/>
<text text-anchor="middle" x="537.14" y="-710.3" font-family="Times,serif" font-size="14.00">ToSelected</text>
</g>
<!-- 2203912608&#45;&gt;2047740232 -->
<g id="edge38" class="edge">
<title>2203912608&#45;&gt;2047740232</title>
<path fill="none" stroke="black" d="M539.4,-782.85C538.41,-772.23 539.15,-758.95 546.64,-750 553.85,-741.39 573.72,-734.38 595.97,-728.95"/>
<polygon fill="black" stroke="black" points="597.02,-732.31 605.98,-726.65 595.45,-725.48 597.02,-732.31"/>
<text text-anchor="middle" x="571.14" y="-753.8" font-family="Times,serif" font-size="14.00">ToHover</text>
</g>
<!-- 2203912608&#45;&gt;41681215 -->
<g id="edge36" class="edge">
<title>2203912608&#45;&gt;41681215</title>
<path fill="none" stroke="black" d="M517.51,-818.69C496.24,-834.47 467.28,-860.25 454.64,-891 444.49,-915.7 447.4,-946.55 451.66,-968.21"/>
<polygon fill="black" stroke="black" points="448.26,-969.02 453.82,-978.04 455.1,-967.52 448.26,-969.02"/>
<text text-anchor="middle" x="476.14" y="-905.3" font-family="Times,serif" font-size="14.00">ToBack</text>
</g>
<!-- 2203912608&#45;&gt;2208369060 -->
<g id="edge37" class="edge">
<title>2203912608&#45;&gt;2208369060</title>
<path fill="none" stroke="black" d="M569.41,-818.54C576.13,-823.75 582.8,-830 587.64,-837 596.65,-850.02 602.08,-866.88 605.29,-880.9"/>
<polygon fill="black" stroke="black" points="601.91,-881.85 607.33,-890.95 608.77,-880.45 601.91,-881.85"/>
<text text-anchor="middle" x="631.14" y="-851.3" font-family="Times,serif" font-size="14.00">ToOutside</text>
</g>
<!-- 1547765645&#45;&gt;1414661941 -->
<g id="edge23" class="edge">
<title>1547765645&#45;&gt;1414661941</title>
<path fill="none" stroke="black" d="M186.34,-783.48C173.09,-773.7 155.95,-761.09 140.64,-750 135.07,-745.96 129.12,-741.68 123.36,-737.56"/>
<polygon fill="black" stroke="black" points="125.29,-734.64 115.12,-731.67 121.22,-740.33 125.29,-734.64"/>
<text text-anchor="middle" x="184.14" y="-753.8" font-family="Times,serif" font-size="14.00">ToHover</text>
</g>
<!-- 1547765645&#45;&gt;284492598 -->
<g id="edge30" class="edge">
<title>1547765645&#45;&gt;284492598</title>
<path fill="none" stroke="black" d="M213.19,-782.84C218.87,-762.03 229.24,-726.02 240.64,-696 245.99,-681.93 252.85,-666.65 258.76,-654.15"/>
<polygon fill="black" stroke="black" points="262.08,-655.32 263.25,-644.79 255.77,-652.29 262.08,-655.32"/>
<text text-anchor="middle" x="271.14" y="-710.3" font-family="Times,serif" font-size="14.00">ToSelected</text>
</g>
<!-- 1547765645&#45;&gt;1551173521 -->
<g id="edge22" class="edge">
<title>1547765645&#45;&gt;1551173521</title>
<path fill="none" stroke="black" d="M223.68,-818.97C227.99,-824.45 232.39,-830.73 235.64,-837 242.84,-850.87 248.15,-867.51 251.75,-881.2"/>
<polygon fill="black" stroke="black" points="248.38,-882.12 254.17,-890.99 255.17,-880.44 248.38,-882.12"/>
<text text-anchor="middle" x="278.14" y="-851.3" font-family="Times,serif" font-size="14.00">ToOutside</text>
</g>
<!-- 1547765645&#45;&gt;41681215 -->
<g id="edge21" class="edge">
<title>1547765645&#45;&gt;41681215</title>
<path fill="none" stroke="black" d="M180.48,-818.31C142.62,-842.29 83.35,-888.41 113.64,-927 151.3,-974.97 340.29,-989.48 421.48,-993.54"/>
<polygon fill="black" stroke="black" points="421.59,-997.05 431.74,-994.03 421.92,-990.06 421.59,-997.05"/>
<text text-anchor="middle" x="135.14" y="-905.3" font-family="Times,serif" font-size="14.00">ToBack</text>
</g>
<!-- 41681215&#45;&gt;71696827 -->
<g id="edge17" class="edge">
<title>41681215&#45;&gt;71696827</title>
<path fill="none" stroke="black" d="M485.55,-994.51C570.08,-992.24 824.64,-979.64 824.64,-910 824.64,-910 824.64,-910 824.64,-365 824.64,-345.67 826.72,-323.97 828.76,-307.34"/>
<polygon fill="black" stroke="black" points="832.25,-307.58 830.07,-297.21 825.31,-306.68 832.25,-307.58"/>
<text text-anchor="middle" x="836.14" y="-623.3" font-family="Times,serif" font-size="14.00">Exit</text>
</g>
<!-- 41681215&#45;&gt;1551173521 -->
<g id="edge18" class="edge">
<title>41681215&#45;&gt;1551173521</title>
<path fill="none" stroke="black" d="M431.52,-994.35C382.16,-992.53 280.67,-985.69 258.64,-960 253.32,-953.79 251.78,-945.38 251.96,-937.23"/>
<polygon fill="black" stroke="black" points="255.44,-937.52 252.95,-927.23 248.48,-936.83 255.44,-937.52"/>
<text text-anchor="middle" x="283.14" y="-948.8" font-family="Times,serif" font-size="14.00">ToEditor</text>
</g>
<!-- 41681215&#45;&gt;2208369060 -->
<g id="edge33" class="edge">
<title>41681215&#45;&gt;2208369060</title>
<path fill="none" stroke="black" d="M474.09,-981.19C486.75,-970.36 505.49,-955.42 523.64,-945 533.7,-939.23 544.89,-933.94 555.79,-929.31"/>
<polygon fill="black" stroke="black" points="557.34,-932.46 565.26,-925.42 554.68,-925.98 557.34,-932.46"/>
<text text-anchor="middle" x="543.14" y="-948.8" font-family="Times,serif" font-size="14.00">ToPlay</text>
</g>
<!-- 1354696529 -->
<g id="node21" class="node">
<title>1354696529</title>
<ellipse fill="none" stroke="black" cx="932.64" cy="-855" rx="92.88" ry="18"/>
<text text-anchor="middle" x="932.64" y="-851.3" font-family="Times,serif" font-size="14.00">animation(map, menu)</text>
</g>
<!-- 41681215&#45;&gt;1354696529 -->
<g id="edge31" class="edge">
<title>41681215&#45;&gt;1354696529</title>
<path fill="none" stroke="black" d="M485.83,-995.03C562.12,-994.71 776.65,-991.01 838.64,-960 873.34,-942.64 901.28,-906.57 917.42,-881.83"/>
<polygon fill="black" stroke="black" points="920.44,-883.6 922.82,-873.28 914.52,-879.86 920.44,-883.6"/>
<text text-anchor="middle" x="884.14" y="-948.8" font-family="Times,serif" font-size="14.00">ToMenu</text>
</g>
<!-- 2208369060&#45;&gt;2203912608 -->
<g id="edge35" class="edge">
<title>2208369060&#45;&gt;2203912608</title>
<path fill="none" stroke="black" d="M561.82,-893.05C553.01,-888.09 544.93,-881.55 539.64,-873 531.68,-860.12 532.04,-843.27 534.58,-829.22"/>
<polygon fill="black" stroke="black" points="538.07,-829.66 536.84,-819.14 531.23,-828.13 538.07,-829.66"/>
<text text-anchor="middle" x="563.64" y="-851.3" font-family="Times,serif" font-size="14.00">ToInside</text>
</g>
<!-- 2208369060&#45;&gt;41681215 -->
<g id="edge34" class="edge">
<title>2208369060&#45;&gt;41681215</title>
<path fill="none" stroke="black" d="M597.33,-926.89C588.69,-937.69 576.28,-951.25 562.64,-960 541.84,-973.35 515.4,-982.16 494.39,-987.6"/>
<polygon fill="black" stroke="black" points="493.44,-984.23 484.56,-990.01 495.1,-991.03 493.44,-984.23"/>
<text text-anchor="middle" x="601.14" y="-948.8" font-family="Times,serif" font-size="14.00">ToBack</text>
</g>
<!-- 1871579263&#45;&gt;70779318 -->
<g id="edge3" class="edge">
<title>1871579263&#45;&gt;70779318</title>
<path fill="none" stroke="black" d="M1019.75,-297.02C1016.19,-307.33 1010.58,-320.32 1002.64,-330 997.25,-336.57 990.34,-342.45 983.38,-347.44"/>
<polygon fill="black" stroke="black" points="981.03,-344.8 974.65,-353.26 984.91,-350.62 981.03,-344.8"/>
<text text-anchor="middle" x="1032.14" y="-318.8" font-family="Times,serif" font-size="14.00">ToBack</text>
</g>
<!-- 1871579263&#45;&gt;1867647099 -->
<g id="edge4" class="edge">
<title>1871579263&#45;&gt;1867647099</title>
<path fill="none" stroke="black" d="M1058.52,-262.03C1070.13,-256.31 1083.09,-249.63 1094.64,-243 1105.23,-236.93 1107.21,-234.34 1117.64,-228 1125.08,-223.48 1133.12,-218.8 1140.87,-214.38"/>
<polygon fill="black" stroke="black" points="1142.79,-217.32 1149.77,-209.35 1139.35,-211.22 1142.79,-217.32"/>
<text text-anchor="middle" x="1141.64" y="-231.8" font-family="Times,serif" font-size="14.00">ToInside</text>
</g>
<!-- 1354696529&#45;&gt;70779318 -->
<g id="edge32" class="edge">
<title>1354696529&#45;&gt;70779318</title>
<path fill="none" stroke="black" d="M935.53,-836.8C938.49,-817.73 942.64,-786.01 942.64,-758.5 942.64,-758.5 942.64,-758.5 942.64,-452 942.64,-432.62 945.24,-410.92 947.78,-394.3"/>
<polygon fill="black" stroke="black" points="951.28,-394.62 949.42,-384.19 944.37,-393.5 951.28,-394.62"/>
<text text-anchor="middle" x="953.64" y="-623.3" font-family="Times,serif" font-size="14.00">End</text>
</g>
<!-- 1870071933&#45;&gt;1874004097 -->
<g id="edge48" class="edge">
<title>1870071933&#45;&gt;1874004097</title>
<path fill="none" stroke="black" d="M351.86,-381.73C343.03,-386.75 334.88,-393.36 329.64,-402 324.55,-410.41 327.71,-419.42 333.73,-427.45"/>
<polygon fill="black" stroke="black" points="331.25,-429.92 340.5,-435.09 336.49,-425.28 331.25,-429.92"/>
<text text-anchor="middle" x="358.14" y="-405.8" font-family="Times,serif" font-size="14.00">ToOutside</text>
</g>
<!-- 1870071933&#45;&gt;352453550 -->
<g id="edge56" class="edge">
<title>1870071933&#45;&gt;352453550</title>
<path fill="none" stroke="black" d="M402.6,-347.76C404.25,-342.16 405.82,-335.88 406.64,-330 411.19,-297.51 413.87,-258.8 398.64,-228 396.32,-223.3 393.07,-218.91 389.44,-214.95"/>
<polygon fill="black" stroke="black" points="391.76,-212.33 382.15,-207.88 386.89,-217.35 391.76,-212.33"/>
<text text-anchor="middle" x="441.14" y="-275.3" font-family="Times,serif" font-size="14.00">ToSelected</text>
</g>
<!-- 1870071933&#45;&gt;71500215 -->
<g id="edge47" class="edge">
<title>1870071933&#45;&gt;71500215</title>
<path fill="none" stroke="black" d="M426.24,-383.16C433.94,-388.41 441.73,-394.77 447.64,-402 473.78,-433.97 484.09,-481.93 488.12,-511.8"/>
<polygon fill="black" stroke="black" points="484.67,-512.41 489.34,-521.92 491.62,-511.58 484.67,-512.41"/>
<text text-anchor="middle" x="502.14" y="-449.3" font-family="Times,serif" font-size="14.00">ToBack</text>
</g>
<!-- 1725433893 -->
<g id="node23" class="node">
<title>1725433893</title>
<ellipse fill="none" stroke="black" cx="297.64" cy="-279" rx="90.18" ry="18"/>
<text text-anchor="middle" x="297.64" y="-275.3" font-family="Times,serif" font-size="14.00">hover(play, edit(play))</text>
</g>
<!-- 1870071933&#45;&gt;1725433893 -->
<g id="edge49" class="edge">
<title>1870071933&#45;&gt;1725433893</title>
<path fill="none" stroke="black" d="M377.08,-348.21C362.17,-335.4 341.44,-317.61 324.9,-303.4"/>
<polygon fill="black" stroke="black" points="327.03,-300.62 317.16,-296.76 322.47,-305.93 327.03,-300.62"/>
<text text-anchor="middle" x="378.14" y="-318.8" font-family="Times,serif" font-size="14.00">ToHover</text>
</g>
<!-- 1725433893&#45;&gt;1874004097 -->
<g id="edge51" class="edge">
<title>1725433893&#45;&gt;1874004097</title>
<path fill="none" stroke="black" d="M276.77,-296.71C253.59,-317.38 221.68,-353.55 239.64,-384 253.54,-407.56 278.86,-423.53 302.92,-434.03"/>
<polygon fill="black" stroke="black" points="301.83,-437.37 312.41,-437.93 304.49,-430.9 301.83,-437.37"/>
<text text-anchor="middle" x="268.14" y="-362.3" font-family="Times,serif" font-size="14.00">ToOutside</text>
</g>
<!-- 1725433893&#45;&gt;352453550 -->
<g id="edge53" class="edge">
<title>1725433893&#45;&gt;352453550</title>
<path fill="none" stroke="black" d="M310.39,-260.8C319.56,-248.43 332.07,-231.55 342.31,-217.74"/>
<polygon fill="black" stroke="black" points="345.2,-219.71 348.34,-209.6 339.57,-215.55 345.2,-219.71"/>
<text text-anchor="middle" x="364.14" y="-231.8" font-family="Times,serif" font-size="14.00">ToSelected</text>
</g>
<!-- 1725433893&#45;&gt;71500215 -->
<g id="edge50" class="edge">
<title>1725433893&#45;&gt;71500215</title>
<path fill="none" stroke="black" d="M364.99,-291C378.44,-293.08 392.48,-295.18 405.64,-297 439.12,-301.63 534.21,-289.73 556.64,-315 608.73,-373.67 544.35,-471.65 509.82,-515.97"/>
<polygon fill="black" stroke="black" points="507.04,-513.84 503.56,-523.85 512.52,-518.2 507.04,-513.84"/>
<text text-anchor="middle" x="593.14" y="-405.8" font-family="Times,serif" font-size="14.00">ToBack</text>
</g>
<!-- 1725433893&#45;&gt;1870071933 -->
<g id="edge52" class="edge">
<title>1725433893&#45;&gt;1870071933</title>
<path fill="none" stroke="black" d="M289.04,-297.22C285.17,-307.61 282.83,-320.61 289.64,-330 296.19,-339.03 305.13,-345.77 315.07,-350.79"/>
<polygon fill="black" stroke="black" points="313.88,-354.1 324.44,-354.94 316.72,-347.69 313.88,-354.1"/>
<text text-anchor="middle" x="313.64" y="-318.8" font-family="Times,serif" font-size="14.00">ToInside</text>
</g>
</g>
</svg>
