<?xml version="1.0" encoding="UTF-8" standalone="no"?>
<!DOCTYPE svg PUBLIC "-//W3C//DTD SVG 1.1//EN"
 "http://www.w3.org/Graphics/SVG/1.1/DTD/svg11.dtd">
<!-- Generated by graphviz version 2.43.0 (0)
 -->
<!-- Title: G Pages: 1 -->
<svg width="668pt" height="914pt"
 viewBox="0.00 0.00 668.00 914.00" xmlns="http://www.w3.org/2000/svg" xmlns:xlink="http://www.w3.org/1999/xlink">
<g id="graph0" class="graph" transform="scale(1 1) rotate(0) translate(4 910)">
<title>G</title>
<polygon fill="white" stroke="transparent" points="-4,4 -4,-910 664,-910 664,4 -4,4"/>
<!-- 349766566 -->
<g id="node1" class="node">
<title>349766566</title>
<ellipse fill="none" stroke="black" cx="465" cy="-888" rx="44.69" ry="18"/>
<text text-anchor="middle" x="465" y="-884.3" font-family="Times,serif" font-size="14.00">idle(play)</text>
</g>
<!-- 71500215 -->
<g id="node12" class="node">
<title>71500215</title>
<ellipse fill="none" stroke="black" cx="347" cy="-540" rx="27" ry="18"/>
<text text-anchor="middle" x="347" y="-536.3" font-family="Times,serif" font-size="14.00">play</text>
</g>
<!-- 349766566&#45;&gt;71500215 -->
<g id="edge17" class="edge">
<title>349766566&#45;&gt;71500215</title>
<path fill="none" stroke="black" d="M419.84,-886.71C361.13,-883.67 266,-868.5 266,-802 266,-802 266,-802 266,-626 266,-595.41 293.84,-571.47 316.87,-556.9"/>
<polygon fill="black" stroke="black" points="318.94,-559.74 325.72,-551.6 315.34,-553.74 318.94,-559.74"/>
<text text-anchor="middle" x="277.5" y="-710.3" font-family="Times,serif" font-size="14.00">Exit</text>
</g>
<!-- 603063532 -->
<g id="node13" class="node">
<title>603063532</title>
<ellipse fill="none" stroke="black" cx="406" cy="-801" rx="55.79" ry="18"/>
<text text-anchor="middle" x="406" y="-797.3" font-family="Times,serif" font-size="14.00">in_rect(play)</text>
</g>
<!-- 349766566&#45;&gt;603063532 -->
<g id="edge18" class="edge">
<title>349766566&#45;&gt;603063532</title>
<path fill="none" stroke="black" d="M459.42,-869.91C455.66,-859.81 450.1,-847.08 443,-837 440.16,-832.97 436.8,-829.03 433.28,-825.33"/>
<polygon fill="black" stroke="black" points="435.54,-822.65 425.95,-818.15 430.64,-827.65 435.54,-822.65"/>
<text text-anchor="middle" x="470.5" y="-840.8" font-family="Times,serif" font-size="14.00">InRect</text>
</g>
<!-- 1505101769 -->
<g id="node2" class="node">
<title>1505101769</title>
<ellipse fill="none" stroke="black" cx="214" cy="-453" rx="91.78" ry="18"/>
<text text-anchor="middle" x="214" y="-449.3" font-family="Times,serif" font-size="14.00">animation(play, menu)</text>
</g>
<!-- 70779318 -->
<g id="node6" class="node">
<title>70779318</title>
<ellipse fill="none" stroke="black" cx="175" cy="-366" rx="30.59" ry="18"/>
<text text-anchor="middle" x="175" y="-362.3" font-family="Times,serif" font-size="14.00">menu</text>
</g>
<!-- 1505101769&#45;&gt;70779318 -->
<g id="edge28" class="edge">
<title>1505101769&#45;&gt;70779318</title>
<path fill="none" stroke="black" d="M206.11,-434.8C200.59,-422.78 193.13,-406.51 186.89,-392.92"/>
<polygon fill="black" stroke="black" points="189.97,-391.23 182.62,-383.6 183.6,-394.15 189.97,-391.23"/>
<text text-anchor="middle" x="208" y="-405.8" font-family="Times,serif" font-size="14.00">End</text>
</g>
<!-- 71696827 -->
<g id="node3" class="node">
<title>71696827</title>
<ellipse fill="none" stroke="black" cx="27" cy="-279" rx="27" ry="18"/>
<text text-anchor="middle" x="27" y="-275.3" font-family="Times,serif" font-size="14.00">exit</text>
</g>
<!-- 602277099 -->
<g id="node4" class="node">
<title>602277099</title>
<ellipse fill="none" stroke="black" cx="250" cy="-192" rx="61.19" ry="18"/>
<text text-anchor="middle" x="250" y="-188.3" font-family="Times,serif" font-size="14.00">in_rect(menu)</text>
</g>
<!-- 602277099&#45;&gt;70779318 -->
<g id="edge5" class="edge">
<title>602277099&#45;&gt;70779318</title>
<path fill="none" stroke="black" d="M212.5,-206.36C188.5,-217.1 159.27,-234.77 145,-261 131.25,-286.28 144.69,-318.53 157.7,-340.36"/>
<polygon fill="black" stroke="black" points="154.87,-342.44 163.17,-349.03 160.79,-338.71 154.87,-342.44"/>
<text text-anchor="middle" x="156.5" y="-275.3" font-family="Times,serif" font-size="14.00">Exit</text>
</g>
<!-- 699925840 -->
<g id="node8" class="node">
<title>699925840</title>
<ellipse fill="none" stroke="black" cx="194" cy="-18" rx="64.99" ry="18"/>
<text text-anchor="middle" x="194" y="-14.3" font-family="Times,serif" font-size="14.00">selected(menu)</text>
</g>
<!-- 602277099&#45;&gt;699925840 -->
<g id="edge12" class="edge">
<title>602277099&#45;&gt;699925840</title>
<path fill="none" stroke="black" d="M270.72,-174.76C276.62,-169.31 282.63,-162.86 287,-156 303.69,-129.81 303.39,-117.58 298,-87 295.29,-71.63 296.95,-65.12 286,-54 277.1,-44.97 265.64,-38.24 253.84,-33.22"/>
<polygon fill="black" stroke="black" points="254.94,-29.9 244.35,-29.56 252.42,-36.43 254.94,-29.9"/>
<text text-anchor="middle" x="332.5" y="-101.3" font-family="Times,serif" font-size="14.00">ToSelected</text>
</g>
<!-- 351667117 -->
<g id="node9" class="node">
<title>351667117</title>
<ellipse fill="none" stroke="black" cx="239" cy="-105" rx="50.09" ry="18"/>
<text text-anchor="middle" x="239" y="-101.3" font-family="Times,serif" font-size="14.00">edit(menu)</text>
</g>
<!-- 602277099&#45;&gt;351667117 -->
<g id="edge7" class="edge">
<title>602277099&#45;&gt;351667117</title>
<path fill="none" stroke="black" d="M247.77,-173.8C246.27,-162.16 244.25,-146.55 242.52,-133.24"/>
<polygon fill="black" stroke="black" points="245.98,-132.64 241.22,-123.18 239.04,-133.54 245.98,-132.64"/>
<text text-anchor="middle" x="264.5" y="-144.8" font-family="Times,serif" font-size="14.00">ToEdit</text>
</g>
<!-- 348980133 -->
<g id="node11" class="node">
<title>348980133</title>
<ellipse fill="none" stroke="black" cx="227" cy="-279" rx="50.09" ry="18"/>
<text text-anchor="middle" x="227" y="-275.3" font-family="Times,serif" font-size="14.00">idle(menu)</text>
</g>
<!-- 602277099&#45;&gt;348980133 -->
<g id="edge6" class="edge">
<title>602277099&#45;&gt;348980133</title>
<path fill="none" stroke="black" d="M251.39,-210.01C251.68,-219.84 251.18,-232.34 248,-243 247.05,-246.19 245.74,-249.39 244.23,-252.49"/>
<polygon fill="black" stroke="black" points="241.1,-250.92 239.3,-261.36 247.22,-254.32 241.1,-250.92"/>
<text text-anchor="middle" x="269" y="-231.8" font-family="Times,serif" font-size="14.00">ToIdle</text>
</g>
<!-- 352453550 -->
<g id="node5" class="node">
<title>352453550</title>
<ellipse fill="none" stroke="black" cx="487" cy="-714" rx="44.69" ry="18"/>
<text text-anchor="middle" x="487" y="-710.3" font-family="Times,serif" font-size="14.00">edit(play)</text>
</g>
<!-- 700712273 -->
<g id="node7" class="node">
<title>700712273</title>
<ellipse fill="none" stroke="black" cx="405" cy="-627" rx="59.59" ry="18"/>
<text text-anchor="middle" x="405" y="-623.3" font-family="Times,serif" font-size="14.00">selected(play)</text>
</g>
<!-- 352453550&#45;&gt;700712273 -->
<g id="edge22" class="edge">
<title>352453550&#45;&gt;700712273</title>
<path fill="none" stroke="black" d="M452.33,-702.47C432.58,-695.7 410.67,-686.59 405,-678 400.61,-671.35 399.37,-663.04 399.58,-655.12"/>
<polygon fill="black" stroke="black" points="403.07,-655.39 400.56,-645.1 396.1,-654.71 403.07,-655.39"/>
<text text-anchor="middle" x="435.5" y="-666.8" font-family="Times,serif" font-size="14.00">ToSelected</text>
</g>
<!-- 70779318&#45;&gt;71696827 -->
<g id="edge1" class="edge">
<title>70779318&#45;&gt;71696827</title>
<path fill="none" stroke="black" d="M144.84,-362.99C118.08,-359.78 79.27,-351.48 53,-330 45.52,-323.88 39.93,-315.04 35.9,-306.48"/>
<polygon fill="black" stroke="black" points="39.07,-304.99 31.99,-297.11 32.61,-307.68 39.07,-304.99"/>
<text text-anchor="middle" x="64.5" y="-318.8" font-family="Times,serif" font-size="14.00">Exit</text>
</g>
<!-- 1504708553 -->
<g id="node10" class="node">
<title>1504708553</title>
<ellipse fill="none" stroke="black" cx="387" cy="-279" rx="92.08" ry="18"/>
<text text-anchor="middle" x="387" y="-275.3" font-family="Times,serif" font-size="14.00">animation(menu, play)</text>
</g>
<!-- 70779318&#45;&gt;1504708553 -->
<g id="edge13" class="edge">
<title>70779318&#45;&gt;1504708553</title>
<path fill="none" stroke="black" d="M199.57,-355.3C216.83,-348.42 240.42,-338.86 261,-330 275.8,-323.63 279.12,-321.17 294,-315 307.34,-309.47 321.89,-303.81 335.44,-298.7"/>
<polygon fill="black" stroke="black" points="336.96,-301.87 345.1,-295.09 334.51,-295.32 336.96,-301.87"/>
<text text-anchor="middle" x="313.5" y="-318.8" font-family="Times,serif" font-size="14.00">ToPlay</text>
</g>
<!-- 70779318&#45;&gt;348980133 -->
<g id="edge2" class="edge">
<title>70779318&#45;&gt;348980133</title>
<path fill="none" stroke="black" d="M186.3,-349.17C190.42,-343.24 195.03,-336.38 199,-330 203.83,-322.22 208.8,-313.58 213.2,-305.7"/>
<polygon fill="black" stroke="black" points="216.29,-307.34 218.04,-296.89 210.15,-303.96 216.29,-307.34"/>
<text text-anchor="middle" x="232.5" y="-318.8" font-family="Times,serif" font-size="14.00">ToEditor</text>
</g>
<!-- 700712273&#45;&gt;349766566 -->
<g id="edge24" class="edge">
<title>700712273&#45;&gt;349766566</title>
<path fill="none" stroke="black" d="M455.41,-636.9C487.55,-645.68 525.88,-662.85 541,-696 567.98,-755.17 518.05,-826.88 487.02,-863.29"/>
<polygon fill="black" stroke="black" points="484.29,-861.1 480.35,-870.93 489.57,-865.7 484.29,-861.1"/>
<text text-anchor="middle" x="566" y="-753.8" font-family="Times,serif" font-size="14.00">ToIdle</text>
</g>
<!-- 700712273&#45;&gt;352453550 -->
<g id="edge25" class="edge">
<title>700712273&#45;&gt;352453550</title>
<path fill="none" stroke="black" d="M438.24,-641.98C448.16,-647.4 458.4,-654.4 466,-663 471.85,-669.62 476.23,-678.11 479.44,-686.2"/>
<polygon fill="black" stroke="black" points="476.17,-687.45 482.78,-695.73 482.77,-685.13 476.17,-687.45"/>
<text text-anchor="middle" x="487.5" y="-666.8" font-family="Times,serif" font-size="14.00">Edit</text>
</g>
<!-- 700712273&#45;&gt;71500215 -->
<g id="edge23" class="edge">
<title>700712273&#45;&gt;71500215</title>
<path fill="none" stroke="black" d="M393.54,-609.21C384.9,-596.55 372.94,-579.01 363.3,-564.89"/>
<polygon fill="black" stroke="black" points="366.18,-562.9 357.65,-556.61 360.4,-566.84 366.18,-562.9"/>
<text text-anchor="middle" x="391.5" y="-579.8" font-family="Times,serif" font-size="14.00">Exit</text>
</g>
<!-- 699925840&#45;&gt;70779318 -->
<g id="edge9" class="edge">
<title>699925840&#45;&gt;70779318</title>
<path fill="none" stroke="black" d="M155.57,-32.53C125.94,-45.7 90,-68.91 90,-104 90,-280 90,-280 90,-280 90,-311.09 118.78,-334.78 142.85,-349.15"/>
<polygon fill="black" stroke="black" points="141.35,-352.32 151.77,-354.2 144.79,-346.23 141.35,-352.32"/>
<text text-anchor="middle" x="101.5" y="-188.3" font-family="Times,serif" font-size="14.00">Exit</text>
</g>
<!-- 699925840&#45;&gt;351667117 -->
<g id="edge11" class="edge">
<title>699925840&#45;&gt;351667117</title>
<path fill="none" stroke="black" d="M232.62,-32.66C241.88,-37.86 250.64,-44.82 256,-54 260.39,-61.51 259.19,-70.32 255.94,-78.44"/>
<polygon fill="black" stroke="black" points="252.74,-77.02 251.4,-87.53 259,-80.15 252.74,-77.02"/>
<text text-anchor="middle" x="270.5" y="-57.8" font-family="Times,serif" font-size="14.00">Edit</text>
</g>
<!-- 699925840&#45;&gt;348980133 -->
<g id="edge10" class="edge">
<title>699925840&#45;&gt;348980133</title>
<path fill="none" stroke="black" d="M188.63,-36.08C178.83,-70.08 160.74,-148.27 180,-210 185,-226.03 195.25,-241.61 204.9,-253.8"/>
<polygon fill="black" stroke="black" points="202.34,-256.2 211.42,-261.67 207.73,-251.74 202.34,-256.2"/>
<text text-anchor="middle" x="190" y="-144.8" font-family="Times,serif" font-size="14.00">ToIdle</text>
</g>
<!-- 351667117&#45;&gt;699925840 -->
<g id="edge8" class="edge">
<title>351667117&#45;&gt;699925840</title>
<path fill="none" stroke="black" d="M212.87,-89.22C205.78,-83.83 198.98,-77.05 195,-69 191.56,-62.04 190.4,-53.85 190.35,-46.13"/>
<polygon fill="black" stroke="black" points="193.85,-46.22 190.85,-36.06 186.85,-45.87 193.85,-46.22"/>
<text text-anchor="middle" x="225.5" y="-57.8" font-family="Times,serif" font-size="14.00">ToSelected</text>
</g>
<!-- 1504708553&#45;&gt;71500215 -->
<g id="edge14" class="edge">
<title>1504708553&#45;&gt;71500215</title>
<path fill="none" stroke="black" d="M384.37,-297.06C377.57,-341.03 359.43,-458.54 351.18,-511.93"/>
<polygon fill="black" stroke="black" points="347.69,-511.59 349.62,-522.01 354.61,-512.66 347.69,-511.59"/>
<text text-anchor="middle" x="379" y="-405.8" font-family="Times,serif" font-size="14.00">End</text>
</g>
<!-- 348980133&#45;&gt;602277099 -->
<g id="edge4" class="edge">
<title>348980133&#45;&gt;602277099</title>
<path fill="none" stroke="black" d="M215.68,-261.45C210.37,-251.54 206.17,-238.82 211,-228 212.98,-223.56 215.83,-219.45 219.11,-215.72"/>
<polygon fill="black" stroke="black" points="221.63,-218.15 226.28,-208.63 216.71,-213.17 221.63,-218.15"/>
<text text-anchor="middle" x="229.5" y="-231.8" font-family="Times,serif" font-size="14.00">InRect</text>
</g>
<!-- 348980133&#45;&gt;70779318 -->
<g id="edge3" class="edge">
<title>348980133&#45;&gt;70779318</title>
<path fill="none" stroke="black" d="M195.24,-292.93C186.08,-298.32 177.17,-305.57 172,-315 168.16,-322 167.46,-330.4 168.14,-338.31"/>
<polygon fill="black" stroke="black" points="164.69,-338.91 169.68,-348.25 171.61,-337.84 164.69,-338.91"/>
<text text-anchor="middle" x="183.5" y="-318.8" font-family="Times,serif" font-size="14.00">Exit</text>
</g>
<!-- 71500215&#45;&gt;349766566 -->
<g id="edge16" class="edge">
<title>71500215&#45;&gt;349766566</title>
<path fill="none" stroke="black" d="M373.77,-543.84C440.88,-551.71 611,-576.53 611,-626 611,-802 611,-802 611,-802 611,-847.07 558.39,-868.66 516.33,-878.72"/>
<polygon fill="black" stroke="black" points="515.45,-875.33 506.45,-880.92 516.97,-882.16 515.45,-875.33"/>
<text text-anchor="middle" x="635.5" y="-710.3" font-family="Times,serif" font-size="14.00">ToEditor</text>
</g>
<!-- 71500215&#45;&gt;1505101769 -->
<g id="edge27" class="edge">
<title>71500215&#45;&gt;1505101769</title>
<path fill="none" stroke="black" d="M326.69,-527.92C314.7,-521.24 299.31,-512.42 286,-504 272.31,-495.34 257.56,-485.24 244.99,-476.39"/>
<polygon fill="black" stroke="black" points="246.87,-473.43 236.68,-470.5 242.82,-479.14 246.87,-473.43"/>
<text text-anchor="middle" x="309.5" y="-492.8" font-family="Times,serif" font-size="14.00">ToMenu</text>
</g>
<!-- 71500215&#45;&gt;71696827 -->
<g id="edge15" class="edge">
<title>71500215&#45;&gt;71696827</title>
<path fill="none" stroke="black" d="M320.06,-537.83C273.02,-534.46 175.05,-521.42 113,-471 61.2,-428.91 39.47,-349.01 31.32,-307.14"/>
<polygon fill="black" stroke="black" points="34.73,-306.33 29.49,-297.12 27.85,-307.58 34.73,-306.33"/>
<text text-anchor="middle" x="80.5" y="-405.8" font-family="Times,serif" font-size="14.00">Exit</text>
</g>
<!-- 1505888202 -->
<g id="node14" class="node">
<title>1505888202</title>
<ellipse fill="none" stroke="black" cx="462" cy="-453" rx="87.18" ry="18"/>
<text text-anchor="middle" x="462" y="-449.3" font-family="Times,serif" font-size="14.00">animation(play, play)</text>
</g>
<!-- 71500215&#45;&gt;1505888202 -->
<g id="edge29" class="edge">
<title>71500215&#45;&gt;1505888202</title>
<path fill="none" stroke="black" d="M359.67,-523.78C368.99,-513.18 382.37,-499.18 396,-489 402.95,-483.81 410.76,-478.95 418.53,-474.59"/>
<polygon fill="black" stroke="black" points="420.42,-477.55 427.56,-469.72 417.09,-471.39 420.42,-477.55"/>
<text text-anchor="middle" x="415.5" y="-492.8" font-family="Times,serif" font-size="14.00">ToPlay</text>
</g>
<!-- 603063532&#45;&gt;349766566 -->
<g id="edge20" class="edge">
<title>603063532&#45;&gt;349766566</title>
<path fill="none" stroke="black" d="M400.39,-819.32C398.16,-829.5 397.3,-842.24 403,-852 407.52,-859.75 414.47,-865.92 422.1,-870.78"/>
<polygon fill="black" stroke="black" points="420.82,-874.08 431.26,-875.9 424.24,-867.97 420.82,-874.08"/>
<text text-anchor="middle" x="421" y="-840.8" font-family="Times,serif" font-size="14.00">ToIdle</text>
</g>
<!-- 603063532&#45;&gt;352453550 -->
<g id="edge21" class="edge">
<title>603063532&#45;&gt;352453550</title>
<path fill="none" stroke="black" d="M421.62,-783.61C433.8,-770.83 450.88,-752.9 464.53,-738.58"/>
<polygon fill="black" stroke="black" points="467.34,-740.7 471.71,-731.05 462.27,-735.88 467.34,-740.7"/>
<text text-anchor="middle" x="470.5" y="-753.8" font-family="Times,serif" font-size="14.00">ToEdit</text>
</g>
<!-- 603063532&#45;&gt;700712273 -->
<g id="edge26" class="edge">
<title>603063532&#45;&gt;700712273</title>
<path fill="none" stroke="black" d="M394.85,-783.24C386.72,-769.97 376.4,-750.63 372,-732 368.32,-716.43 368.42,-711.59 372,-696 375.4,-681.22 382.45,-665.93 389.17,-653.6"/>
<polygon fill="black" stroke="black" points="392.27,-655.23 394.17,-644.81 386.18,-651.77 392.27,-655.23"/>
<text text-anchor="middle" x="402.5" y="-710.3" font-family="Times,serif" font-size="14.00">ToSelected</text>
</g>
<!-- 603063532&#45;&gt;71500215 -->
<g id="edge19" class="edge">
<title>603063532&#45;&gt;71500215</title>
<path fill="none" stroke="black" d="M389.02,-783.65C383.97,-778.1 378.79,-771.62 375,-765 347.16,-716.32 344.77,-700.39 336,-645 331.87,-618.92 335.98,-588.91 340.3,-567.85"/>
<polygon fill="black" stroke="black" points="343.74,-568.52 342.47,-558 336.9,-567.02 343.74,-568.52"/>
<text text-anchor="middle" x="353.5" y="-666.8" font-family="Times,serif" font-size="14.00">Exit</text>
</g>
<!-- 1505888202&#45;&gt;71500215 -->
<g id="edge30" class="edge">
<title>1505888202&#45;&gt;71500215</title>
<path fill="none" stroke="black" d="M456.18,-471.26C451.81,-481.93 444.88,-495.21 435,-504 420.21,-517.16 399.88,-525.68 382.48,-531.02"/>
<polygon fill="black" stroke="black" points="381.3,-527.71 372.64,-533.8 383.21,-534.45 381.3,-527.71"/>
<text text-anchor="middle" x="458" y="-492.8" font-family="Times,serif" font-size="14.00">End</text>
</g>
</g>
</svg>
