<?xml version="1.0" encoding="UTF-8" standalone="no"?>
<!DOCTYPE svg PUBLIC "-//W3C//DTD SVG 1.1//EN"
 "http://www.w3.org/Graphics/SVG/1.1/DTD/svg11.dtd">
<!-- Generated by graphviz version 2.43.0 (0)
 -->
<!-- Title: G Pages: 1 -->
<svg width="1546pt" height="935pt"
 viewBox="0.00 0.00 1546.00 935.00" xmlns="http://www.w3.org/2000/svg" xmlns:xlink="http://www.w3.org/1999/xlink">
<g id="graph0" class="graph" transform="scale(1 1) rotate(0) translate(4 931)">
<title>G</title>
<polygon fill="white" stroke="transparent" points="-4,4 -4,-931 1542,-931 1542,4 -4,4"/>
<!-- 1367869265 -->
<g id="node1" class="node">
<title>1367869265</title>
<ellipse fill="none" stroke="black" cx="988" cy="-909" rx="92.88" ry="18"/>
<text text-anchor="middle" x="988" y="-905.3" font-family="Times,serif" font-size="14.00">animation(menu, map)</text>
</g>
<!-- 41681215 -->
<g id="node18" class="node">
<title>41681215</title>
<ellipse fill="none" stroke="black" cx="465" cy="-822" rx="27" ry="18"/>
<text text-anchor="middle" x="465" y="-818.3" font-family="Times,serif" font-size="14.00">map</text>
</g>
<!-- 1367869265&#45;&gt;41681215 -->
<g id="edge17" class="edge">
<title>1367869265&#45;&gt;41681215</title>
<path fill="none" stroke="black" d="M919.36,-896.84C806.96,-878.58 587.52,-842.91 501.16,-828.88"/>
<polygon fill="black" stroke="black" points="501.5,-825.39 491.06,-827.24 500.37,-832.29 501.5,-825.39"/>
<text text-anchor="middle" x="769" y="-861.8" font-family="Times,serif" font-size="14.00">End</text>
</g>
<!-- 3824159937 -->
<g id="node2" class="node">
<title>3824159937</title>
<ellipse fill="none" stroke="black" cx="1156" cy="-192" rx="142.17" ry="18"/>
<text text-anchor="middle" x="1156" y="-188.3" font-family="Times,serif" font-size="14.00">hover(menu, selected_button(menu))</text>
</g>
<!-- 70779318 -->
<g id="node11" class="node">
<title>70779318</title>
<ellipse fill="none" stroke="black" cx="1294" cy="-453" rx="30.59" ry="18"/>
<text text-anchor="middle" x="1294" y="-449.3" font-family="Times,serif" font-size="14.00">menu</text>
</g>
<!-- 3824159937&#45;&gt;70779318 -->
<g id="edge8" class="edge">
<title>3824159937&#45;&gt;70779318</title>
<path fill="none" stroke="black" d="M1262.66,-204C1298.56,-213.39 1335.04,-230.39 1357,-261 1376.48,-288.15 1331.62,-381.46 1307.74,-426.83"/>
<polygon fill="black" stroke="black" points="1304.6,-425.27 1302.99,-435.74 1310.78,-428.56 1304.6,-425.27"/>
<text text-anchor="middle" x="1376.5" y="-318.8" font-family="Times,serif" font-size="14.00">ToBack</text>
</g>
<!-- 4032236825 -->
<g id="node12" class="node">
<title>4032236825</title>
<ellipse fill="none" stroke="black" cx="1204" cy="-279" rx="143.77" ry="18"/>
<text text-anchor="middle" x="1204" y="-275.3" font-family="Times,serif" font-size="14.00">inside(menu, selected_button(menu))</text>
</g>
<!-- 3824159937&#45;&gt;4032236825 -->
<g id="edge10" class="edge">
<title>3824159937&#45;&gt;4032236825</title>
<path fill="none" stroke="black" d="M1144.33,-210.03C1138.99,-220.11 1135.03,-232.85 1141,-243 1143.86,-247.85 1147.65,-252.08 1151.97,-255.75"/>
<polygon fill="black" stroke="black" points="1150.09,-258.71 1160.23,-261.78 1154.22,-253.06 1150.09,-258.71"/>
<text text-anchor="middle" x="1165" y="-231.8" font-family="Times,serif" font-size="14.00">ToInside</text>
</g>
<!-- 1581647947 -->
<g id="node14" class="node">
<title>1581647947</title>
<ellipse fill="none" stroke="black" cx="1255" cy="-105" rx="91.78" ry="18"/>
<text text-anchor="middle" x="1255" y="-101.3" font-family="Times,serif" font-size="14.00">selected_button(menu)</text>
</g>
<!-- 3824159937&#45;&gt;1581647947 -->
<g id="edge11" class="edge">
<title>3824159937&#45;&gt;1581647947</title>
<path fill="none" stroke="black" d="M1176.03,-173.8C1190.99,-160.96 1211.59,-143.27 1227.99,-129.19"/>
<polygon fill="black" stroke="black" points="1230.36,-131.77 1235.67,-122.6 1225.8,-126.46 1230.36,-131.77"/>
<text text-anchor="middle" x="1241.5" y="-144.8" font-family="Times,serif" font-size="14.00">ToSelected</text>
</g>
<!-- 41094554 -->
<g id="node20" class="node">
<title>41094554</title>
<ellipse fill="none" stroke="black" cx="1110" cy="-366" rx="147.57" ry="18"/>
<text text-anchor="middle" x="1110" y="-362.3" font-family="Times,serif" font-size="14.00">outside(menu, selected_button(menu))</text>
</g>
<!-- 3824159937&#45;&gt;41094554 -->
<g id="edge9" class="edge">
<title>3824159937&#45;&gt;41094554</title>
<path fill="none" stroke="black" d="M1075.73,-206.99C1044.8,-216.72 1012.49,-233.19 994,-261 971.22,-295.27 1016.49,-325.54 1056.97,-344.46"/>
<polygon fill="black" stroke="black" points="1055.75,-347.75 1066.31,-348.67 1058.63,-341.37 1055.75,-347.75"/>
<text text-anchor="middle" x="1022.5" y="-275.3" font-family="Times,serif" font-size="14.00">ToOutside</text>
</g>
<!-- 3352562643 -->
<g id="node3" class="node">
<title>3352562643</title>
<ellipse fill="none" stroke="black" cx="162" cy="-540" rx="133.78" ry="18"/>
<text text-anchor="middle" x="162" y="-536.3" font-family="Times,serif" font-size="14.00">hover(map, selected_button(map))</text>
</g>
<!-- 3549105195 -->
<g id="node16" class="node">
<title>3549105195</title>
<ellipse fill="none" stroke="black" cx="319" cy="-627" rx="134.58" ry="18"/>
<text text-anchor="middle" x="319" y="-623.3" font-family="Times,serif" font-size="14.00">inside(map, selected_button(map))</text>
</g>
<!-- 3352562643&#45;&gt;3549105195 -->
<g id="edge27" class="edge">
<title>3352562643&#45;&gt;3549105195</title>
<path fill="none" stroke="black" d="M164.03,-558.11C166.2,-568.99 170.7,-582.58 180,-591 189.31,-599.44 200.36,-605.91 212.1,-610.86"/>
<polygon fill="black" stroke="black" points="211.05,-614.2 221.64,-614.51 213.55,-607.67 211.05,-614.2"/>
<text text-anchor="middle" x="204" y="-579.8" font-family="Times,serif" font-size="14.00">ToInside</text>
</g>
<!-- 3352562643&#45;&gt;41681215 -->
<g id="edge25" class="edge">
<title>3352562643&#45;&gt;41681215</title>
<path fill="none" stroke="black" d="M134.73,-557.89C128.17,-563.02 121.71,-569.15 117,-576 99.45,-601.54 96.53,-615.83 107,-645 120.78,-683.38 189.41,-765.93 230,-786 264.11,-802.87 371.13,-813.6 428.24,-818.28"/>
<polygon fill="black" stroke="black" points="428.05,-821.78 438.3,-819.09 428.61,-814.8 428.05,-821.78"/>
<text text-anchor="middle" x="161.5" y="-677.3" font-family="Times,serif" font-size="14.00">ToBack</text>
</g>
<!-- 3835038892 -->
<g id="node21" class="node">
<title>3835038892</title>
<ellipse fill="none" stroke="black" cx="399" cy="-735" rx="139.18" ry="18"/>
<text text-anchor="middle" x="399" y="-731.3" font-family="Times,serif" font-size="14.00">outside(map, selected_button(map))</text>
</g>
<!-- 3352562643&#45;&gt;3835038892 -->
<g id="edge26" class="edge">
<title>3352562643&#45;&gt;3835038892</title>
<path fill="none" stroke="black" d="M144.8,-558.08C125.1,-579.76 97.96,-617.64 118,-645 141.21,-676.69 237.65,-702.38 311.13,-717.87"/>
<polygon fill="black" stroke="black" points="310.83,-721.38 321.34,-719.99 312.26,-714.53 310.83,-721.38"/>
<text text-anchor="middle" x="146.5" y="-623.3" font-family="Times,serif" font-size="14.00">ToOutside</text>
</g>
<!-- 1437009876 -->
<g id="node23" class="node">
<title>1437009876</title>
<ellipse fill="none" stroke="black" cx="238" cy="-453" rx="87.18" ry="18"/>
<text text-anchor="middle" x="238" y="-449.3" font-family="Times,serif" font-size="14.00">selected_button(map)</text>
</g>
<!-- 3352562643&#45;&gt;1437009876 -->
<g id="edge28" class="edge">
<title>3352562643&#45;&gt;1437009876</title>
<path fill="none" stroke="black" d="M177.38,-521.8C188.47,-509.39 203.61,-492.46 215.99,-478.62"/>
<polygon fill="black" stroke="black" points="218.85,-480.67 222.9,-470.89 213.63,-476.01 218.85,-480.67"/>
<text text-anchor="middle" x="235.5" y="-492.8" font-family="Times,serif" font-size="14.00">ToSelected</text>
</g>
<!-- 284492598 -->
<g id="node4" class="node">
<title>284492598</title>
<ellipse fill="none" stroke="black" cx="238" cy="-366" rx="45.49" ry="18"/>
<text text-anchor="middle" x="238" y="-362.3" font-family="Times,serif" font-size="14.00">edit(map)</text>
</g>
<!-- 284492598&#45;&gt;41681215 -->
<g id="edge30" class="edge">
<title>284492598&#45;&gt;41681215</title>
<path fill="none" stroke="black" d="M196,-373.17C127.67,-384.39 0,-410.87 0,-452 0,-736 0,-736 0,-736 0,-779.43 317.99,-809.16 428.05,-818.15"/>
<polygon fill="black" stroke="black" points="428.08,-821.66 438.33,-818.98 428.64,-814.68 428.08,-821.66"/>
<text text-anchor="middle" x="17" y="-579.8" font-family="Times,serif" font-size="14.00">Finish</text>
</g>
<!-- 284492598&#45;&gt;3835038892 -->
<g id="edge31" class="edge">
<title>284492598&#45;&gt;3835038892</title>
<path fill="none" stroke="black" d="M262.48,-381.3C282.91,-393.91 312.1,-413.57 334,-435 402.81,-502.33 432.81,-517.59 463,-609 475.77,-647.65 469.58,-665.82 446,-699 442.98,-703.24 439.29,-707.19 435.32,-710.79"/>
<polygon fill="black" stroke="black" points="432.94,-708.21 427.44,-717.27 437.39,-713.62 432.94,-708.21"/>
<text text-anchor="middle" x="471.5" y="-536.3" font-family="Times,serif" font-size="14.00">ToOutside</text>
</g>
<!-- 3827305667 -->
<g id="node5" class="node">
<title>3827305667</title>
<ellipse fill="none" stroke="black" cx="584" cy="-366" rx="131.88" ry="18"/>
<text text-anchor="middle" x="584" y="-362.3" font-family="Times,serif" font-size="14.00">hover(play, selected_button(play))</text>
</g>
<!-- 44240284 -->
<g id="node7" class="node">
<title>44240284</title>
<ellipse fill="none" stroke="black" cx="721" cy="-540" rx="137.58" ry="18"/>
<text text-anchor="middle" x="721" y="-536.3" font-family="Times,serif" font-size="14.00">outside(play, selected_button(play))</text>
</g>
<!-- 3827305667&#45;&gt;44240284 -->
<g id="edge44" class="edge">
<title>3827305667&#45;&gt;44240284</title>
<path fill="none" stroke="black" d="M549.96,-383.41C513.56,-403.19 464.22,-437.92 489,-471 506.24,-494.02 571.49,-511.87 628.42,-523.5"/>
<polygon fill="black" stroke="black" points="628.08,-527 638.57,-525.53 629.45,-520.14 628.08,-527"/>
<text text-anchor="middle" x="517.5" y="-449.3" font-family="Times,serif" font-size="14.00">ToOutside</text>
</g>
<!-- 1582434380 -->
<g id="node8" class="node">
<title>1582434380</title>
<ellipse fill="none" stroke="black" cx="734" cy="-279" rx="87.18" ry="18"/>
<text text-anchor="middle" x="734" y="-275.3" font-family="Times,serif" font-size="14.00">selected_button(play)</text>
</g>
<!-- 3827305667&#45;&gt;1582434380 -->
<g id="edge46" class="edge">
<title>3827305667&#45;&gt;1582434380</title>
<path fill="none" stroke="black" d="M613.28,-348.41C637.15,-334.88 671.01,-315.69 696.8,-301.08"/>
<polygon fill="black" stroke="black" points="698.58,-304.09 705.56,-296.12 695.13,-298 698.58,-304.09"/>
<text text-anchor="middle" x="698.5" y="-318.8" font-family="Times,serif" font-size="14.00">ToSelected</text>
</g>
<!-- 71500215 -->
<g id="node15" class="node">
<title>71500215</title>
<ellipse fill="none" stroke="black" cx="793" cy="-627" rx="27" ry="18"/>
<text text-anchor="middle" x="793" y="-623.3" font-family="Times,serif" font-size="14.00">play</text>
</g>
<!-- 3827305667&#45;&gt;71500215 -->
<g id="edge43" class="edge">
<title>3827305667&#45;&gt;71500215</title>
<path fill="none" stroke="black" d="M686.92,-377.29C734.4,-386.32 789.15,-403.25 830,-435 875.18,-470.11 891.18,-505.69 868,-558 858.48,-579.48 838.45,-597.07 821.48,-608.98"/>
<polygon fill="black" stroke="black" points="819.33,-606.21 812.96,-614.68 823.22,-612.03 819.33,-606.21"/>
<text text-anchor="middle" x="899.5" y="-492.8" font-family="Times,serif" font-size="14.00">ToBack</text>
</g>
<!-- 4035382555 -->
<g id="node19" class="node">
<title>4035382555</title>
<ellipse fill="none" stroke="black" cx="688" cy="-453" rx="133.48" ry="18"/>
<text text-anchor="middle" x="688" y="-449.3" font-family="Times,serif" font-size="14.00">inside(play, selected_button(play))</text>
</g>
<!-- 3827305667&#45;&gt;4035382555 -->
<g id="edge45" class="edge">
<title>3827305667&#45;&gt;4035382555</title>
<path fill="none" stroke="black" d="M628.89,-383.06C639.19,-388.09 649.57,-394.37 658,-402 665.38,-408.69 671.52,-417.62 676.28,-426.09"/>
<polygon fill="black" stroke="black" points="673.18,-427.71 680.9,-434.96 679.39,-424.48 673.18,-427.71"/>
<text text-anchor="middle" x="695" y="-405.8" font-family="Times,serif" font-size="14.00">ToInside</text>
</g>
<!-- 71696827 -->
<g id="node6" class="node">
<title>71696827</title>
<ellipse fill="none" stroke="black" cx="1460" cy="-366" rx="27" ry="18"/>
<text text-anchor="middle" x="1460" y="-362.3" font-family="Times,serif" font-size="14.00">exit</text>
</g>
<!-- 44240284&#45;&gt;71500215 -->
<g id="edge38" class="edge">
<title>44240284&#45;&gt;71500215</title>
<path fill="none" stroke="black" d="M750.48,-557.67C757.85,-562.84 765.29,-569.04 771,-576 776.65,-582.88 781.11,-591.43 784.5,-599.51"/>
<polygon fill="black" stroke="black" points="781.28,-600.88 788.11,-608.98 787.82,-598.39 781.28,-600.88"/>
<text text-anchor="middle" x="801.5" y="-579.8" font-family="Times,serif" font-size="14.00">ToBack</text>
</g>
<!-- 44240284&#45;&gt;4035382555 -->
<g id="edge39" class="edge">
<title>44240284&#45;&gt;4035382555</title>
<path fill="none" stroke="black" d="M724.63,-521.72C725.93,-511.8 726.18,-499.3 722,-489 720.5,-485.31 718.41,-481.79 715.98,-478.51"/>
<polygon fill="black" stroke="black" points="718.61,-476.19 709.44,-470.87 713.29,-480.74 718.61,-476.19"/>
<text text-anchor="middle" x="750" y="-492.8" font-family="Times,serif" font-size="14.00">ToInside</text>
</g>
<!-- 352453550 -->
<g id="node10" class="node">
<title>352453550</title>
<ellipse fill="none" stroke="black" cx="849" cy="-192" rx="44.69" ry="18"/>
<text text-anchor="middle" x="849" y="-188.3" font-family="Times,serif" font-size="14.00">edit(play)</text>
</g>
<!-- 1582434380&#45;&gt;352453550 -->
<g id="edge47" class="edge">
<title>1582434380&#45;&gt;352453550</title>
<path fill="none" stroke="black" d="M754.5,-261.46C766.94,-251.56 783.21,-238.83 798,-228 804.58,-223.18 811.74,-218.14 818.56,-213.43"/>
<polygon fill="black" stroke="black" points="820.68,-216.23 826.95,-207.7 816.72,-210.45 820.68,-216.23"/>
<text text-anchor="middle" x="816.5" y="-231.8" font-family="Times,serif" font-size="14.00">ToEdit</text>
</g>
<!-- 1505101769 -->
<g id="node9" class="node">
<title>1505101769</title>
<ellipse fill="none" stroke="black" cx="1119" cy="-540" rx="91.78" ry="18"/>
<text text-anchor="middle" x="1119" y="-536.3" font-family="Times,serif" font-size="14.00">animation(play, menu)</text>
</g>
<!-- 1505101769&#45;&gt;70779318 -->
<g id="edge52" class="edge">
<title>1505101769&#45;&gt;70779318</title>
<path fill="none" stroke="black" d="M1151.92,-523.01C1183.5,-507.67 1230.88,-484.66 1262.12,-469.49"/>
<polygon fill="black" stroke="black" points="1263.79,-472.56 1271.26,-465.05 1260.73,-466.27 1263.79,-472.56"/>
<text text-anchor="middle" x="1227" y="-492.8" font-family="Times,serif" font-size="14.00">End</text>
</g>
<!-- 352453550&#45;&gt;44240284 -->
<g id="edge49" class="edge">
<title>352453550&#45;&gt;44240284</title>
<path fill="none" stroke="black" d="M849,-210.26C849,-227.43 849,-254.54 849,-278 849,-454 849,-454 849,-454 849,-486.27 820.41,-507.03 790.26,-519.94"/>
<polygon fill="black" stroke="black" points="788.86,-516.73 780.88,-523.7 791.46,-523.23 788.86,-516.73"/>
<text text-anchor="middle" x="877.5" y="-362.3" font-family="Times,serif" font-size="14.00">ToOutside</text>
</g>
<!-- 352453550&#45;&gt;71500215 -->
<g id="edge48" class="edge">
<title>352453550&#45;&gt;71500215</title>
<path fill="none" stroke="black" d="M859.42,-209.71C887.31,-256.62 959.29,-393.3 925,-504 921.33,-515.84 873.52,-583.71 865,-591 853.63,-600.72 839.11,-608.45 826.08,-614.14"/>
<polygon fill="black" stroke="black" points="824.4,-611.05 816.49,-618.11 827.07,-617.52 824.4,-611.05"/>
<text text-anchor="middle" x="950" y="-405.8" font-family="Times,serif" font-size="14.00">Finish</text>
</g>
<!-- 70779318&#45;&gt;1367869265 -->
<g id="edge16" class="edge">
<title>70779318&#45;&gt;1367869265</title>
<path fill="none" stroke="black" d="M1324.69,-453.39C1381.88,-454.03 1499,-464.45 1499,-539 1499,-823 1499,-823 1499,-823 1499,-864.57 1232.49,-890.43 1084.41,-901.59"/>
<polygon fill="black" stroke="black" points="1084.11,-898.1 1074.4,-902.33 1084.63,-905.08 1084.11,-898.1"/>
<text text-anchor="middle" x="1518.5" y="-677.3" font-family="Times,serif" font-size="14.00">ToPlay</text>
</g>
<!-- 70779318&#45;&gt;71696827 -->
<g id="edge1" class="edge">
<title>70779318&#45;&gt;71696827</title>
<path fill="none" stroke="black" d="M1322.49,-445.88C1344.79,-440.35 1376.09,-430.92 1401,-417 1414.64,-409.38 1428.06,-398.36 1438.66,-388.6"/>
<polygon fill="black" stroke="black" points="1441.33,-390.89 1446.16,-381.46 1436.5,-385.82 1441.33,-390.89"/>
<text text-anchor="middle" x="1433.5" y="-405.8" font-family="Times,serif" font-size="14.00">Exit</text>
</g>
<!-- 70779318&#45;&gt;41094554 -->
<g id="edge2" class="edge">
<title>70779318&#45;&gt;41094554</title>
<path fill="none" stroke="black" d="M1263.41,-452.27C1229.57,-451.08 1174.94,-444.54 1138,-417 1130.03,-411.06 1124.02,-402.15 1119.65,-393.48"/>
<polygon fill="black" stroke="black" points="1122.83,-392.02 1115.54,-384.33 1116.44,-394.89 1122.83,-392.02"/>
<text text-anchor="middle" x="1162.5" y="-405.8" font-family="Times,serif" font-size="14.00">ToEditor</text>
</g>
<!-- 4032236825&#45;&gt;3824159937 -->
<g id="edge7" class="edge">
<title>4032236825&#45;&gt;3824159937</title>
<path fill="none" stroke="black" d="M1202.76,-260.89C1201.44,-250.79 1198.69,-238.06 1193,-228 1190.89,-224.28 1188.26,-220.71 1185.38,-217.38"/>
<polygon fill="black" stroke="black" points="1187.78,-214.83 1178.32,-210.05 1182.74,-219.68 1187.78,-214.83"/>
<text text-anchor="middle" x="1222.5" y="-231.8" font-family="Times,serif" font-size="14.00">ToHover</text>
</g>
<!-- 4032236825&#45;&gt;70779318 -->
<g id="edge5" class="edge">
<title>4032236825&#45;&gt;70779318</title>
<path fill="none" stroke="black" d="M1228.74,-297.02C1235.45,-302.32 1242.4,-308.49 1248,-315 1275.11,-346.5 1286.4,-394.6 1290.99,-424.63"/>
<polygon fill="black" stroke="black" points="1287.56,-425.38 1292.39,-434.81 1294.49,-424.42 1287.56,-425.38"/>
<text text-anchor="middle" x="1302.5" y="-362.3" font-family="Times,serif" font-size="14.00">ToBack</text>
</g>
<!-- 4032236825&#45;&gt;1581647947 -->
<g id="edge15" class="edge">
<title>4032236825&#45;&gt;1581647947</title>
<path fill="none" stroke="black" d="M1246.55,-261.73C1268.86,-250.75 1294.16,-233.87 1307,-210 1321.57,-182.93 1300.4,-151.26 1280.86,-130.04"/>
<polygon fill="black" stroke="black" points="1283.26,-127.5 1273.8,-122.73 1278.22,-132.36 1283.26,-127.5"/>
<text text-anchor="middle" x="1341.5" y="-188.3" font-family="Times,serif" font-size="14.00">ToSelected</text>
</g>
<!-- 4032236825&#45;&gt;41094554 -->
<g id="edge6" class="edge">
<title>4032236825&#45;&gt;41094554</title>
<path fill="none" stroke="black" d="M1197.27,-297.37C1192.54,-307.81 1185.39,-320.82 1176,-330 1170.83,-335.05 1164.79,-339.56 1158.5,-343.52"/>
<polygon fill="black" stroke="black" points="1156.7,-340.52 1149.83,-348.59 1160.23,-346.57 1156.7,-340.52"/>
<text text-anchor="middle" x="1215.5" y="-318.8" font-family="Times,serif" font-size="14.00">ToOutside</text>
</g>
<!-- 351667117 -->
<g id="node13" class="node">
<title>351667117</title>
<ellipse fill="none" stroke="black" cx="1255" cy="-18" rx="50.09" ry="18"/>
<text text-anchor="middle" x="1255" y="-14.3" font-family="Times,serif" font-size="14.00">edit(menu)</text>
</g>
<!-- 351667117&#45;&gt;70779318 -->
<g id="edge13" class="edge">
<title>351667117&#45;&gt;70779318</title>
<path fill="none" stroke="black" d="M1303.14,-23.08C1352.79,-30.23 1423,-49.9 1423,-104 1423,-280 1423,-280 1423,-280 1423,-346.97 1359.63,-404.56 1321.72,-433.02"/>
<polygon fill="black" stroke="black" points="1319.59,-430.23 1313.59,-438.97 1323.73,-435.88 1319.59,-430.23"/>
<text text-anchor="middle" x="1440" y="-231.8" font-family="Times,serif" font-size="14.00">Finish</text>
</g>
<!-- 351667117&#45;&gt;41094554 -->
<g id="edge14" class="edge">
<title>351667117&#45;&gt;41094554</title>
<path fill="none" stroke="black" d="M1205.97,-22.03C1117.21,-28.86 939,-49.39 939,-104 939,-280 939,-280 939,-280 939,-316.37 970.4,-337.18 1006.29,-349.08"/>
<polygon fill="black" stroke="black" points="1005.41,-352.47 1016,-352.06 1007.46,-345.78 1005.41,-352.47"/>
<text text-anchor="middle" x="967.5" y="-188.3" font-family="Times,serif" font-size="14.00">ToOutside</text>
</g>
<!-- 1581647947&#45;&gt;351667117 -->
<g id="edge12" class="edge">
<title>1581647947&#45;&gt;351667117</title>
<path fill="none" stroke="black" d="M1255,-86.8C1255,-75.16 1255,-59.55 1255,-46.24"/>
<polygon fill="black" stroke="black" points="1258.5,-46.18 1255,-36.18 1251.5,-46.18 1258.5,-46.18"/>
<text text-anchor="middle" x="1273.5" y="-57.8" font-family="Times,serif" font-size="14.00">ToEdit</text>
</g>
<!-- 71500215&#45;&gt;44240284 -->
<g id="edge37" class="edge">
<title>71500215&#45;&gt;44240284</title>
<path fill="none" stroke="black" d="M767.43,-620.53C751.44,-615.66 732.03,-606.77 722,-591 717.72,-584.28 716.39,-575.95 716.43,-568.03"/>
<polygon fill="black" stroke="black" points="719.92,-568.25 717.15,-558.02 712.94,-567.74 719.92,-568.25"/>
<text text-anchor="middle" x="746.5" y="-579.8" font-family="Times,serif" font-size="14.00">ToEditor</text>
</g>
<!-- 71500215&#45;&gt;1505101769 -->
<g id="edge51" class="edge">
<title>71500215&#45;&gt;1505101769</title>
<path fill="none" stroke="black" d="M818.77,-621.35C851.56,-615.26 909.84,-603.83 959,-591 994.83,-581.65 1034.56,-569.24 1065.47,-559.13"/>
<polygon fill="black" stroke="black" points="1066.78,-562.38 1075.18,-555.93 1064.59,-555.73 1066.78,-562.38"/>
<text text-anchor="middle" x="1031.5" y="-579.8" font-family="Times,serif" font-size="14.00">ToMenu</text>
</g>
<!-- 3549105195&#45;&gt;3352562643 -->
<g id="edge24" class="edge">
<title>3549105195&#45;&gt;3352562643</title>
<path fill="none" stroke="black" d="M288.36,-609.41C263.61,-596.01 228.6,-577.06 201.71,-562.5"/>
<polygon fill="black" stroke="black" points="203.03,-559.23 192.57,-557.55 199.69,-565.39 203.03,-559.23"/>
<text text-anchor="middle" x="274.5" y="-579.8" font-family="Times,serif" font-size="14.00">ToHover</text>
</g>
<!-- 3549105195&#45;&gt;41681215 -->
<g id="edge22" class="edge">
<title>3549105195&#45;&gt;41681215</title>
<path fill="none" stroke="black" d="M285.23,-644.54C242.09,-667.87 176.58,-712.18 208,-753 234.8,-787.82 363.9,-808.46 428.3,-816.75"/>
<polygon fill="black" stroke="black" points="428.07,-820.25 438.43,-818.02 428.94,-813.3 428.07,-820.25"/>
<text text-anchor="middle" x="229.5" y="-731.3" font-family="Times,serif" font-size="14.00">ToBack</text>
</g>
<!-- 3549105195&#45;&gt;3835038892 -->
<g id="edge23" class="edge">
<title>3549105195&#45;&gt;3835038892</title>
<path fill="none" stroke="black" d="M313.03,-644.99C308.76,-660.4 305.43,-683.07 316,-699 319.78,-704.69 324.68,-709.46 330.22,-713.45"/>
<polygon fill="black" stroke="black" points="328.39,-716.44 338.72,-718.77 332.1,-710.5 328.39,-716.44"/>
<text text-anchor="middle" x="344.5" y="-677.3" font-family="Times,serif" font-size="14.00">ToOutside</text>
</g>
<!-- 3549105195&#45;&gt;1437009876 -->
<g id="edge32" class="edge">
<title>3549105195&#45;&gt;1437009876</title>
<path fill="none" stroke="black" d="M319.92,-608.84C320.37,-587.41 318.8,-550.14 305,-522 296.46,-504.59 281.73,-488.88 268.25,-476.96"/>
<polygon fill="black" stroke="black" points="270.4,-474.2 260.51,-470.4 265.87,-479.54 270.4,-474.2"/>
<text text-anchor="middle" x="347.5" y="-536.3" font-family="Times,serif" font-size="14.00">ToSelected</text>
</g>
<!-- 1355482962 -->
<g id="node17" class="node">
<title>1355482962</title>
<ellipse fill="none" stroke="black" cx="685" cy="-735" rx="87.99" ry="18"/>
<text text-anchor="middle" x="685" y="-731.3" font-family="Times,serif" font-size="14.00">animation(map, play)</text>
</g>
<!-- 1355482962&#45;&gt;71500215 -->
<g id="edge36" class="edge">
<title>1355482962&#45;&gt;71500215</title>
<path fill="none" stroke="black" d="M702.35,-716.97C721.07,-698.6 750.91,-669.31 771.2,-649.4"/>
<polygon fill="black" stroke="black" points="773.78,-651.77 778.46,-642.27 768.87,-646.78 773.78,-651.77"/>
<text text-anchor="middle" x="766" y="-677.3" font-family="Times,serif" font-size="14.00">End</text>
</g>
<!-- 41681215&#45;&gt;71696827 -->
<g id="edge18" class="edge">
<title>41681215&#45;&gt;71696827</title>
<path fill="none" stroke="black" d="M491.9,-820.15C650.91,-814.97 1461,-786.08 1461,-736 1461,-736 1461,-736 1461,-452 1461,-432.75 1460.74,-411.05 1460.49,-394.4"/>
<polygon fill="black" stroke="black" points="1463.98,-394.2 1460.32,-384.26 1456.98,-394.31 1463.98,-394.2"/>
<text text-anchor="middle" x="1472.5" y="-579.8" font-family="Times,serif" font-size="14.00">Exit</text>
</g>
<!-- 41681215&#45;&gt;1355482962 -->
<g id="edge35" class="edge">
<title>41681215&#45;&gt;1355482962</title>
<path fill="none" stroke="black" d="M487.72,-812.22C522.56,-798.76 590.03,-772.69 636.28,-754.83"/>
<polygon fill="black" stroke="black" points="637.74,-758.01 645.8,-751.14 635.21,-751.48 637.74,-758.01"/>
<text text-anchor="middle" x="608.5" y="-774.8" font-family="Times,serif" font-size="14.00">ToPlay</text>
</g>
<!-- 41681215&#45;&gt;3835038892 -->
<g id="edge19" class="edge">
<title>41681215&#45;&gt;3835038892</title>
<path fill="none" stroke="black" d="M459.89,-804.15C456.25,-793.9 450.64,-780.91 443,-771 439.88,-766.95 436.19,-763.09 432.3,-759.51"/>
<polygon fill="black" stroke="black" points="434.54,-756.83 424.66,-753.01 430,-762.16 434.54,-756.83"/>
<text text-anchor="middle" x="476.5" y="-774.8" font-family="Times,serif" font-size="14.00">ToEditor</text>
</g>
<!-- 1354696529 -->
<g id="node22" class="node">
<title>1354696529</title>
<ellipse fill="none" stroke="black" cx="1103" cy="-681" rx="92.88" ry="18"/>
<text text-anchor="middle" x="1103" y="-677.3" font-family="Times,serif" font-size="14.00">animation(map, menu)</text>
</g>
<!-- 41681215&#45;&gt;1354696529 -->
<g id="edge33" class="edge">
<title>41681215&#45;&gt;1354696529</title>
<path fill="none" stroke="black" d="M490.48,-815.74C523.24,-808.96 581.89,-796.76 632,-786 775.43,-755.19 943.12,-717.85 1034.7,-697.34"/>
<polygon fill="black" stroke="black" points="1035.68,-700.71 1044.67,-695.11 1034.15,-693.88 1035.68,-700.71"/>
<text text-anchor="middle" x="720.5" y="-774.8" font-family="Times,serif" font-size="14.00">ToMenu</text>
</g>
<!-- 4035382555&#45;&gt;3827305667 -->
<g id="edge42" class="edge">
<title>4035382555&#45;&gt;3827305667</title>
<path fill="none" stroke="black" d="M638.4,-436.29C627.83,-431.32 617.36,-424.98 609,-417 602.24,-410.55 597.03,-401.87 593.15,-393.56"/>
<polygon fill="black" stroke="black" points="596.3,-392 589.21,-384.13 589.84,-394.7 596.3,-392"/>
<text text-anchor="middle" x="633.5" y="-405.8" font-family="Times,serif" font-size="14.00">ToHover</text>
</g>
<!-- 4035382555&#45;&gt;44240284 -->
<g id="edge41" class="edge">
<title>4035382555&#45;&gt;44240284</title>
<path fill="none" stroke="black" d="M669.39,-471.25C661.25,-480.94 654.81,-493.22 661,-504 663.78,-508.84 667.51,-513.07 671.76,-516.75"/>
<polygon fill="black" stroke="black" points="669.77,-519.64 679.88,-522.82 673.96,-514.03 669.77,-519.64"/>
<text text-anchor="middle" x="689.5" y="-492.8" font-family="Times,serif" font-size="14.00">ToOutside</text>
</g>
<!-- 4035382555&#45;&gt;1582434380 -->
<g id="edge50" class="edge">
<title>4035382555&#45;&gt;1582434380</title>
<path fill="none" stroke="black" d="M709.55,-435C714.78,-429.79 719.79,-423.65 723,-417 739.93,-381.94 739.75,-335.92 737.39,-307.16"/>
<polygon fill="black" stroke="black" points="740.86,-306.65 736.41,-297.03 733.89,-307.32 740.86,-306.65"/>
<text text-anchor="middle" x="769.5" y="-362.3" font-family="Times,serif" font-size="14.00">ToSelected</text>
</g>
<!-- 4035382555&#45;&gt;71500215 -->
<g id="edge40" class="edge">
<title>4035382555&#45;&gt;71500215</title>
<path fill="none" stroke="black" d="M626.41,-468.98C569.63,-485.78 498.69,-516.24 531,-558 558.44,-593.47 690.61,-613.85 756.09,-621.92"/>
<polygon fill="black" stroke="black" points="756.03,-625.44 766.37,-623.16 756.86,-618.49 756.03,-625.44"/>
<text text-anchor="middle" x="552.5" y="-536.3" font-family="Times,serif" font-size="14.00">ToBack</text>
</g>
<!-- 41094554&#45;&gt;70779318 -->
<g id="edge3" class="edge">
<title>41094554&#45;&gt;70779318</title>
<path fill="none" stroke="black" d="M1146.46,-383.48C1159.29,-389.3 1173.8,-395.91 1187,-402 1212.03,-413.54 1240.27,-426.74 1261.46,-436.68"/>
<polygon fill="black" stroke="black" points="1260.12,-439.92 1270.66,-441.01 1263.09,-433.59 1260.12,-439.92"/>
<text text-anchor="middle" x="1237.5" y="-405.8" font-family="Times,serif" font-size="14.00">ToBack</text>
</g>
<!-- 41094554&#45;&gt;4032236825 -->
<g id="edge4" class="edge">
<title>41094554&#45;&gt;4032236825</title>
<path fill="none" stroke="black" d="M1112.67,-347.96C1115.1,-337.38 1119.64,-324.11 1128,-315 1133,-309.55 1139.01,-304.89 1145.43,-300.91"/>
<polygon fill="black" stroke="black" points="1147.38,-303.84 1154.4,-295.91 1143.96,-297.73 1147.38,-303.84"/>
<text text-anchor="middle" x="1152" y="-318.8" font-family="Times,serif" font-size="14.00">ToInside</text>
</g>
<!-- 3835038892&#45;&gt;3549105195 -->
<g id="edge21" class="edge">
<title>3835038892&#45;&gt;3549105195</title>
<path fill="none" stroke="black" d="M397.19,-716.92C394.79,-701.46 389.33,-678.75 377,-663 373.28,-658.25 368.73,-654.01 363.83,-650.25"/>
<polygon fill="black" stroke="black" points="365.54,-647.18 355.32,-644.38 361.57,-652.94 365.54,-647.18"/>
<text text-anchor="middle" x="418" y="-677.3" font-family="Times,serif" font-size="14.00">ToInside</text>
</g>
<!-- 3835038892&#45;&gt;41681215 -->
<g id="edge20" class="edge">
<title>3835038892&#45;&gt;41681215</title>
<path fill="none" stroke="black" d="M393.24,-753.41C390.95,-763.62 390.08,-776.37 396,-786 403.56,-798.31 416.95,-806.46 429.94,-811.76"/>
<polygon fill="black" stroke="black" points="429.09,-815.18 439.69,-815.29 431.47,-808.6 429.09,-815.18"/>
<text text-anchor="middle" x="417.5" y="-774.8" font-family="Times,serif" font-size="14.00">ToBack</text>
</g>
<!-- 1354696529&#45;&gt;70779318 -->
<g id="edge34" class="edge">
<title>1354696529&#45;&gt;70779318</title>
<path fill="none" stroke="black" d="M1120.89,-662.97C1144.6,-640.05 1187.25,-597.56 1220,-558 1241.51,-532.01 1263.61,-500.15 1277.99,-478.59"/>
<polygon fill="black" stroke="black" points="1281.05,-480.3 1283.65,-470.03 1275.22,-476.44 1281.05,-480.3"/>
<text text-anchor="middle" x="1214" y="-579.8" font-family="Times,serif" font-size="14.00">End</text>
</g>
<!-- 1437009876&#45;&gt;284492598 -->
<g id="edge29" class="edge">
<title>1437009876&#45;&gt;284492598</title>
<path fill="none" stroke="black" d="M238,-434.8C238,-423.16 238,-407.55 238,-394.24"/>
<polygon fill="black" stroke="black" points="241.5,-394.18 238,-384.18 234.5,-394.18 241.5,-394.18"/>
<text text-anchor="middle" x="256.5" y="-405.8" font-family="Times,serif" font-size="14.00">ToEdit</text>
</g>
</g>
</svg>
