<?xml version="1.0" encoding="UTF-8" standalone="no"?>
<!DOCTYPE svg PUBLIC "-//W3C//DTD SVG 1.1//EN"
 "http://www.w3.org/Graphics/SVG/1.1/DTD/svg11.dtd">
<!-- Generated by graphviz version 2.43.0 (0)
 -->
<!-- Title: G Pages: 1 -->
<svg width="2220pt" height="1109pt"
 viewBox="0.00 0.00 2219.94 1109.00" xmlns="http://www.w3.org/2000/svg" xmlns:xlink="http://www.w3.org/1999/xlink">
<g id="graph0" class="graph" transform="scale(1 1) rotate(0) translate(4 1105)">
<title>G</title>
<polygon fill="white" stroke="transparent" points="-4,4 -4,-1105 2215.94,-1105 2215.94,4 -4,4"/>
<!-- 284492598 -->
<g id="node1" class="node">
<title>284492598</title>
<ellipse fill="none" stroke="black" cx="143.94" cy="-1083" rx="45.49" ry="18"/>
<text text-anchor="middle" x="143.94" y="-1079.3" font-family="Times,serif" font-size="14.00">edit(map)</text>
</g>
<!-- 1551173521 -->
<g id="node4" class="node">
<title>1551173521</title>
<ellipse fill="none" stroke="black" cx="262.94" cy="-996" rx="91.78" ry="18"/>
<text text-anchor="middle" x="262.94" y="-992.3" font-family="Times,serif" font-size="14.00">select(map, edit(map))</text>
</g>
<!-- 284492598&#45;&gt;1551173521 -->
<g id="edge29" class="edge">
<title>284492598&#45;&gt;1551173521</title>
<path fill="none" stroke="black" d="M164.94,-1067C183.36,-1053.85 210.39,-1034.54 231.41,-1019.53"/>
<polygon fill="black" stroke="black" points="233.61,-1022.26 239.71,-1013.59 229.54,-1016.56 233.61,-1022.26"/>
<text text-anchor="middle" x="239.44" y="-1035.8" font-family="Times,serif" font-size="14.00">ToOutside</text>
</g>
<!-- 41681215 -->
<g id="node26" class="node">
<title>41681215</title>
<ellipse fill="none" stroke="black" cx="193.94" cy="-735" rx="27" ry="18"/>
<text text-anchor="middle" x="193.94" y="-731.3" font-family="Times,serif" font-size="14.00">map</text>
</g>
<!-- 284492598&#45;&gt;41681215 -->
<g id="edge28" class="edge">
<title>284492598&#45;&gt;41681215</title>
<path fill="none" stroke="black" d="M126.26,-1066.31C110.51,-1050.53 89.94,-1024.62 89.94,-997 89.94,-997 89.94,-997 89.94,-821 89.94,-783.86 130.19,-760.03 160.61,-747.33"/>
<polygon fill="black" stroke="black" points="162.07,-750.52 170.08,-743.59 159.5,-744.01 162.07,-750.52"/>
<text text-anchor="middle" x="106.94" y="-905.3" font-family="Times,serif" font-size="14.00">Finish</text>
</g>
<!-- 1874004097 -->
<g id="node2" class="node">
<title>1874004097</title>
<ellipse fill="none" stroke="black" cx="1080.94" cy="-540" rx="90.18" ry="18"/>
<text text-anchor="middle" x="1080.94" y="-536.3" font-family="Times,serif" font-size="14.00">select(play, edit(play))</text>
</g>
<!-- 71500215 -->
<g id="node23" class="node">
<title>71500215</title>
<ellipse fill="none" stroke="black" cx="1352.94" cy="-648" rx="27" ry="18"/>
<text text-anchor="middle" x="1352.94" y="-644.3" font-family="Times,serif" font-size="14.00">play</text>
</g>
<!-- 1874004097&#45;&gt;71500215 -->
<g id="edge35" class="edge">
<title>1874004097&#45;&gt;71500215</title>
<path fill="none" stroke="black" d="M1105.13,-557.4C1112.27,-562.86 1119.81,-569.27 1125.94,-576 1138.73,-590.03 1133.12,-601.5 1148.94,-612 1175.76,-629.8 1264.95,-639.83 1316.08,-644.25"/>
<polygon fill="black" stroke="black" points="1315.82,-647.74 1326.08,-645.08 1316.4,-640.76 1315.82,-647.74"/>
<text text-anchor="middle" x="1170.44" y="-590.3" font-family="Times,serif" font-size="14.00">ToBack</text>
</g>
<!-- 1870071933 -->
<g id="node28" class="node">
<title>1870071933</title>
<ellipse fill="none" stroke="black" cx="1040.94" cy="-453" rx="90.98" ry="18"/>
<text text-anchor="middle" x="1040.94" y="-449.3" font-family="Times,serif" font-size="14.00">inside(play, edit(play))</text>
</g>
<!-- 1874004097&#45;&gt;1870071933 -->
<g id="edge36" class="edge">
<title>1874004097&#45;&gt;1870071933</title>
<path fill="none" stroke="black" d="M1078.71,-521.7C1076.96,-511.76 1073.96,-499.26 1068.94,-489 1067.27,-485.58 1065.22,-482.2 1062.99,-478.95"/>
<polygon fill="black" stroke="black" points="1065.63,-476.65 1056.82,-470.77 1060.04,-480.86 1065.63,-476.65"/>
<text text-anchor="middle" x="1097.94" y="-492.8" font-family="Times,serif" font-size="14.00">ToInside</text>
</g>
<!-- 71696827 -->
<g id="node3" class="node">
<title>71696827</title>
<ellipse fill="none" stroke="black" cx="230.94" cy="-366" rx="27" ry="18"/>
<text text-anchor="middle" x="230.94" y="-362.3" font-family="Times,serif" font-size="14.00">exit</text>
</g>
<!-- 1547765645 -->
<g id="node8" class="node">
<title>1547765645</title>
<ellipse fill="none" stroke="black" cx="445.94" cy="-909" rx="92.88" ry="18"/>
<text text-anchor="middle" x="445.94" y="-905.3" font-family="Times,serif" font-size="14.00">inside(map, edit(map))</text>
</g>
<!-- 1551173521&#45;&gt;1547765645 -->
<g id="edge20" class="edge">
<title>1551173521&#45;&gt;1547765645</title>
<path fill="none" stroke="black" d="M275.72,-977.81C284.71,-966.88 297.64,-953.29 311.94,-945 328.34,-935.49 347.34,-928.52 365.8,-923.43"/>
<polygon fill="black" stroke="black" points="366.88,-926.76 375.67,-920.86 365.11,-919.99 366.88,-926.76"/>
<text text-anchor="middle" x="335.94" y="-948.8" font-family="Times,serif" font-size="14.00">ToInside</text>
</g>
<!-- 1551173521&#45;&gt;41681215 -->
<g id="edge19" class="edge">
<title>1551173521&#45;&gt;41681215</title>
<path fill="none" stroke="black" d="M246.54,-978.2C226.3,-956.18 192.98,-915.36 179.94,-873 168.52,-835.92 177.21,-790.8 185.09,-762.74"/>
<polygon fill="black" stroke="black" points="188.53,-763.45 188.03,-752.87 181.83,-761.45 188.53,-763.45"/>
<text text-anchor="middle" x="201.44" y="-861.8" font-family="Times,serif" font-size="14.00">ToBack</text>
</g>
<!-- 3479178152 -->
<g id="node5" class="node">
<title>3479178152</title>
<ellipse fill="none" stroke="black" cx="1416.94" cy="-453" rx="120.78" ry="18"/>
<text text-anchor="middle" x="1416.94" y="-449.3" font-family="Times,serif" font-size="14.00">inside(play, select(play, place))</text>
</g>
<!-- 3485469612 -->
<g id="node21" class="node">
<title>3485469612</title>
<ellipse fill="none" stroke="black" cx="1506.94" cy="-540" rx="120.48" ry="18"/>
<text text-anchor="middle" x="1506.94" y="-536.3" font-family="Times,serif" font-size="14.00">select(play, select(play, place))</text>
</g>
<!-- 3479178152&#45;&gt;3485469612 -->
<g id="edge66" class="edge">
<title>3479178152&#45;&gt;3485469612</title>
<path fill="none" stroke="black" d="M1450.77,-470.32C1459.57,-475.53 1468.63,-481.83 1475.94,-489 1482.94,-495.86 1489.04,-504.6 1493.94,-512.84"/>
<polygon fill="black" stroke="black" points="1491.02,-514.79 1498.94,-521.82 1497.13,-511.38 1491.02,-514.79"/>
<text text-anchor="middle" x="1516.44" y="-492.8" font-family="Times,serif" font-size="14.00">ToOutside</text>
</g>
<!-- 3479178152&#45;&gt;71500215 -->
<g id="edge65" class="edge">
<title>3479178152&#45;&gt;71500215</title>
<path fill="none" stroke="black" d="M1385.59,-470.59C1367.13,-482.25 1345.4,-499.74 1334.94,-522 1319.96,-553.88 1330.88,-594.98 1341.08,-621.17"/>
<polygon fill="black" stroke="black" points="1337.99,-622.85 1345.05,-630.76 1344.46,-620.18 1337.99,-622.85"/>
<text text-anchor="middle" x="1356.44" y="-536.3" font-family="Times,serif" font-size="14.00">ToBack</text>
</g>
<!-- 1206519513 -->
<g id="node24" class="node">
<title>1206519513</title>
<ellipse fill="none" stroke="black" cx="1552.94" cy="-279" rx="74.99" ry="18"/>
<text text-anchor="middle" x="1552.94" y="-275.3" font-family="Times,serif" font-size="14.00">select(play, place)</text>
</g>
<!-- 3479178152&#45;&gt;1206519513 -->
<g id="edge83" class="edge">
<title>3479178152&#45;&gt;1206519513</title>
<path fill="none" stroke="black" d="M1455.11,-435.91C1477.68,-424.53 1505.07,-407.18 1521.94,-384 1538.52,-361.22 1546.31,-329.57 1549.92,-307.18"/>
<polygon fill="black" stroke="black" points="1553.42,-307.41 1551.37,-297.02 1546.49,-306.42 1553.42,-307.41"/>
<text text-anchor="middle" x="1569.44" y="-362.3" font-family="Times,serif" font-size="14.00">ToSelected</text>
</g>
<!-- 3282635600 -->
<g id="node27" class="node">
<title>3282635600</title>
<ellipse fill="none" stroke="black" cx="1392.94" cy="-366" rx="120.48" ry="18"/>
<text text-anchor="middle" x="1392.94" y="-362.3" font-family="Times,serif" font-size="14.00">hover(play, select(play, place))</text>
</g>
<!-- 3479178152&#45;&gt;3282635600 -->
<g id="edge67" class="edge">
<title>3479178152&#45;&gt;3282635600</title>
<path fill="none" stroke="black" d="M1420.56,-434.92C1421.93,-425.06 1422.43,-412.56 1418.94,-402 1417.84,-398.66 1416.28,-395.39 1414.47,-392.26"/>
<polygon fill="black" stroke="black" points="1417.34,-390.26 1408.86,-383.91 1411.53,-394.16 1417.34,-390.26"/>
<text text-anchor="middle" x="1445.44" y="-405.8" font-family="Times,serif" font-size="14.00">ToHover</text>
</g>
<!-- 1088095869 -->
<g id="node6" class="node">
<title>1088095869</title>
<ellipse fill="none" stroke="black" cx="1537.94" cy="-105" rx="74.99" ry="18"/>
<text text-anchor="middle" x="1537.94" y="-101.3" font-family="Times,serif" font-size="14.00">hover(play, place)</text>
</g>
<!-- 1088095869&#45;&gt;71500215 -->
<g id="edge77" class="edge">
<title>1088095869&#45;&gt;71500215</title>
<path fill="none" stroke="black" d="M1463.41,-106.39C1268.2,-108.39 756.94,-120.38 756.94,-191 756.94,-541 756.94,-541 756.94,-541 756.94,-613.55 833.9,-593.08 903.94,-612 981.35,-632.91 1222.92,-642.78 1315.92,-645.88"/>
<polygon fill="black" stroke="black" points="1315.89,-649.38 1326,-646.21 1316.12,-642.38 1315.89,-649.38"/>
<text text-anchor="middle" x="778.44" y="-362.3" font-family="Times,serif" font-size="14.00">ToBack</text>
</g>
<!-- 1088095869&#45;&gt;1206519513 -->
<g id="edge78" class="edge">
<title>1088095869&#45;&gt;1206519513</title>
<path fill="none" stroke="black" d="M1528.24,-123C1517.71,-143.66 1503.46,-179.52 1511.94,-210 1516.19,-225.28 1524.91,-240.57 1533.21,-252.76"/>
<polygon fill="black" stroke="black" points="1530.46,-254.94 1539.12,-261.05 1536.17,-250.88 1530.46,-254.94"/>
<text text-anchor="middle" x="1540.44" y="-188.3" font-family="Times,serif" font-size="14.00">ToOutside</text>
</g>
<!-- 104006150 -->
<g id="node25" class="node">
<title>104006150</title>
<ellipse fill="none" stroke="black" cx="1672.94" cy="-18" rx="29.5" ry="18"/>
<text text-anchor="middle" x="1672.94" y="-14.3" font-family="Times,serif" font-size="14.00">place</text>
</g>
<!-- 1088095869&#45;&gt;104006150 -->
<g id="edge80" class="edge">
<title>1088095869&#45;&gt;104006150</title>
<path fill="none" stroke="black" d="M1555.38,-87.39C1566.88,-76.98 1582.6,-63.74 1597.94,-54 1610.92,-45.76 1626.16,-38.29 1639.5,-32.39"/>
<polygon fill="black" stroke="black" points="1641.01,-35.55 1648.81,-28.38 1638.24,-29.12 1641.01,-35.55"/>
<text text-anchor="middle" x="1628.44" y="-57.8" font-family="Times,serif" font-size="14.00">ToSelected</text>
</g>
<!-- 1203898069 -->
<g id="node30" class="node">
<title>1203898069</title>
<ellipse fill="none" stroke="black" cx="1652.94" cy="-192" rx="75.29" ry="18"/>
<text text-anchor="middle" x="1652.94" y="-188.3" font-family="Times,serif" font-size="14.00">inside(play, place)</text>
</g>
<!-- 1088095869&#45;&gt;1203898069 -->
<g id="edge79" class="edge">
<title>1088095869&#45;&gt;1203898069</title>
<path fill="none" stroke="black" d="M1531.68,-123.35C1529.09,-133.8 1528.08,-146.8 1534.94,-156 1541.59,-164.91 1562.35,-172.36 1584.63,-178.07"/>
<polygon fill="black" stroke="black" points="1584.04,-181.53 1594.59,-180.49 1585.7,-174.73 1584.04,-181.53"/>
<text text-anchor="middle" x="1558.94" y="-144.8" font-family="Times,serif" font-size="14.00">ToInside</text>
</g>
<!-- 1723009059 -->
<g id="node7" class="node">
<title>1723009059</title>
<ellipse fill="none" stroke="black" cx="599.94" cy="-192" rx="100.98" ry="18"/>
<text text-anchor="middle" x="599.94" y="-188.3" font-family="Times,serif" font-size="14.00">hover(menu, edit(menu))</text>
</g>
<!-- 1871579263 -->
<g id="node9" class="node">
<title>1871579263</title>
<ellipse fill="none" stroke="black" cx="493.94" cy="-366" rx="100.98" ry="18"/>
<text text-anchor="middle" x="493.94" y="-362.3" font-family="Times,serif" font-size="14.00">select(menu, edit(menu))</text>
</g>
<!-- 1723009059&#45;&gt;1871579263 -->
<g id="edge9" class="edge">
<title>1723009059&#45;&gt;1871579263</title>
<path fill="none" stroke="black" d="M601.24,-210.23C602.11,-231.74 601.11,-269.09 586.94,-297 576.62,-317.32 557.06,-333.03 538.53,-344.2"/>
<polygon fill="black" stroke="black" points="536.79,-341.16 529.85,-349.16 540.27,-347.24 536.79,-341.16"/>
<text text-anchor="middle" x="626.44" y="-275.3" font-family="Times,serif" font-size="14.00">ToOutside</text>
</g>
<!-- 70779318 -->
<g id="node18" class="node">
<title>70779318</title>
<ellipse fill="none" stroke="black" cx="331.94" cy="-453" rx="30.59" ry="18"/>
<text text-anchor="middle" x="331.94" y="-449.3" font-family="Times,serif" font-size="14.00">menu</text>
</g>
<!-- 1723009059&#45;&gt;70779318 -->
<g id="edge8" class="edge">
<title>1723009059&#45;&gt;70779318</title>
<path fill="none" stroke="black" d="M620.89,-209.87C634.6,-222.35 651.34,-240.65 658.94,-261 679.89,-317.1 650.18,-345.94 603.94,-384 536.72,-439.33 430.65,-450.54 372.83,-452.27"/>
<polygon fill="black" stroke="black" points="372.54,-448.78 362.62,-452.49 372.69,-455.77 372.54,-448.78"/>
<text text-anchor="middle" x="683.44" y="-318.8" font-family="Times,serif" font-size="14.00">ToBack</text>
</g>
<!-- 351667117 -->
<g id="node20" class="node">
<title>351667117</title>
<ellipse fill="none" stroke="black" cx="383.94" cy="-105" rx="50.09" ry="18"/>
<text text-anchor="middle" x="383.94" y="-101.3" font-family="Times,serif" font-size="14.00">edit(menu)</text>
</g>
<!-- 1723009059&#45;&gt;351667117 -->
<g id="edge11" class="edge">
<title>1723009059&#45;&gt;351667117</title>
<path fill="none" stroke="black" d="M560.32,-175.41C522.26,-160.43 464.95,-137.88 426.07,-122.58"/>
<polygon fill="black" stroke="black" points="427.19,-119.26 416.6,-118.85 424.63,-125.77 427.19,-119.26"/>
<text text-anchor="middle" x="534.44" y="-144.8" font-family="Times,serif" font-size="14.00">ToSelected</text>
</g>
<!-- 1867647099 -->
<g id="node22" class="node">
<title>1867647099</title>
<ellipse fill="none" stroke="black" cx="476.94" cy="-279" rx="101.28" ry="18"/>
<text text-anchor="middle" x="476.94" y="-275.3" font-family="Times,serif" font-size="14.00">inside(menu, edit(menu))</text>
</g>
<!-- 1723009059&#45;&gt;1867647099 -->
<g id="edge10" class="edge">
<title>1723009059&#45;&gt;1867647099</title>
<path fill="none" stroke="black" d="M575.96,-209.7C561.97,-219.43 543.97,-231.93 527.94,-243 522.06,-247.06 515.8,-251.37 509.74,-255.53"/>
<polygon fill="black" stroke="black" points="507.35,-252.92 501.09,-261.47 511.31,-258.7 507.35,-252.92"/>
<text text-anchor="middle" x="570.94" y="-231.8" font-family="Times,serif" font-size="14.00">ToInside</text>
</g>
<!-- 1547765645&#45;&gt;284492598 -->
<g id="edge30" class="edge">
<title>1547765645&#45;&gt;284492598</title>
<path fill="none" stroke="black" d="M447.23,-927.31C447.21,-937.49 445.75,-950.23 439.94,-960 418.77,-995.62 400.67,-994.83 363.94,-1014 308.92,-1042.72 239.72,-1061.62 193.77,-1072.04"/>
<polygon fill="black" stroke="black" points="192.77,-1068.68 183.76,-1074.26 194.28,-1075.51 192.77,-1068.68"/>
<text text-anchor="middle" x="456.44" y="-992.3" font-family="Times,serif" font-size="14.00">ToSelected</text>
</g>
<!-- 1547765645&#45;&gt;1551173521 -->
<g id="edge22" class="edge">
<title>1547765645&#45;&gt;1551173521</title>
<path fill="none" stroke="black" d="M415.89,-926.13C405.38,-931.92 393.55,-938.6 382.94,-945 372.49,-951.3 370.87,-954.56 359.94,-960 347.3,-966.29 333.25,-972.03 319.85,-976.96"/>
<polygon fill="black" stroke="black" points="318.47,-973.73 310.23,-980.4 320.83,-980.32 318.47,-973.73"/>
<text text-anchor="middle" x="411.44" y="-948.8" font-family="Times,serif" font-size="14.00">ToOutside</text>
</g>
<!-- 1414661941 -->
<g id="node14" class="node">
<title>1414661941</title>
<ellipse fill="none" stroke="black" cx="401.94" cy="-822" rx="91.78" ry="18"/>
<text text-anchor="middle" x="401.94" y="-818.3" font-family="Times,serif" font-size="14.00">hover(map, edit(map))</text>
</g>
<!-- 1547765645&#45;&gt;1414661941 -->
<g id="edge23" class="edge">
<title>1547765645&#45;&gt;1414661941</title>
<path fill="none" stroke="black" d="M445.41,-890.97C444.49,-880.9 442.25,-868.16 436.94,-858 434.97,-854.23 432.45,-850.61 429.67,-847.22"/>
<polygon fill="black" stroke="black" points="432.19,-844.78 422.85,-839.78 427.03,-849.51 432.19,-844.78"/>
<text text-anchor="middle" x="466.44" y="-861.8" font-family="Times,serif" font-size="14.00">ToHover</text>
</g>
<!-- 1547765645&#45;&gt;41681215 -->
<g id="edge21" class="edge">
<title>1547765645&#45;&gt;41681215</title>
<path fill="none" stroke="black" d="M381.36,-895.95C342.35,-886.09 293.48,-868.92 257.94,-840 232.47,-819.27 214.4,-785.56 204.09,-762.16"/>
<polygon fill="black" stroke="black" points="207.26,-760.68 200.15,-752.83 200.82,-763.41 207.26,-760.68"/>
<text text-anchor="middle" x="279.44" y="-818.3" font-family="Times,serif" font-size="14.00">ToBack</text>
</g>
<!-- 1871579263&#45;&gt;70779318 -->
<g id="edge3" class="edge">
<title>1871579263&#45;&gt;70779318</title>
<path fill="none" stroke="black" d="M485.49,-384.17C479.29,-395.09 469.87,-408.68 457.94,-417 432.54,-434.71 398.44,-443.48 372.12,-447.82"/>
<polygon fill="black" stroke="black" points="371.46,-444.38 362.09,-449.32 372.5,-451.3 371.46,-444.38"/>
<text text-anchor="middle" x="493.44" y="-405.8" font-family="Times,serif" font-size="14.00">ToBack</text>
</g>
<!-- 1871579263&#45;&gt;1867647099 -->
<g id="edge4" class="edge">
<title>1871579263&#45;&gt;1867647099</title>
<path fill="none" stroke="black" d="M464.14,-348.69C457.63,-343.61 451.6,-337.37 447.94,-330 443.82,-321.68 446.46,-312.84 451.52,-304.95"/>
<polygon fill="black" stroke="black" points="454.45,-306.89 457.76,-296.82 448.89,-302.63 454.45,-306.89"/>
<text text-anchor="middle" x="471.94" y="-318.8" font-family="Times,serif" font-size="14.00">ToInside</text>
</g>
<!-- 1725433893 -->
<g id="node10" class="node">
<title>1725433893</title>
<ellipse fill="none" stroke="black" cx="1004.94" cy="-366" rx="90.18" ry="18"/>
<text text-anchor="middle" x="1004.94" y="-362.3" font-family="Times,serif" font-size="14.00">hover(play, edit(play))</text>
</g>
<!-- 1725433893&#45;&gt;1874004097 -->
<g id="edge41" class="edge">
<title>1725433893&#45;&gt;1874004097</title>
<path fill="none" stroke="black" d="M962.3,-381.98C917.48,-400.16 856.93,-433.1 883.94,-471 907.95,-504.68 949.79,-521.84 988.76,-530.52"/>
<polygon fill="black" stroke="black" points="988.09,-533.95 998.6,-532.55 989.51,-527.1 988.09,-533.95"/>
<text text-anchor="middle" x="912.44" y="-449.3" font-family="Times,serif" font-size="14.00">ToOutside</text>
</g>
<!-- 352453550 -->
<g id="node17" class="node">
<title>352453550</title>
<ellipse fill="none" stroke="black" cx="1081.94" cy="-279" rx="44.69" ry="18"/>
<text text-anchor="middle" x="1081.94" y="-275.3" font-family="Times,serif" font-size="14.00">edit(play)</text>
</g>
<!-- 1725433893&#45;&gt;352453550 -->
<g id="edge43" class="edge">
<title>1725433893&#45;&gt;352453550</title>
<path fill="none" stroke="black" d="M1020.15,-348.21C1031.69,-335.47 1047.7,-317.8 1060.53,-303.64"/>
<polygon fill="black" stroke="black" points="1063.16,-305.94 1067.28,-296.18 1057.98,-301.24 1063.16,-305.94"/>
<text text-anchor="middle" x="1078.44" y="-318.8" font-family="Times,serif" font-size="14.00">ToSelected</text>
</g>
<!-- 1725433893&#45;&gt;71500215 -->
<g id="edge40" class="edge">
<title>1725433893&#45;&gt;71500215</title>
<path fill="none" stroke="black" d="M941.34,-378.8C924.77,-384 907.73,-391.42 893.94,-402 880.15,-412.59 877.8,-418.31 872.94,-435 848.7,-518.24 881.76,-565.52 954.94,-612 985,-631.09 1222.89,-642.07 1315.88,-645.67"/>
<polygon fill="black" stroke="black" points="1315.84,-649.17 1325.96,-646.06 1316.1,-642.18 1315.84,-649.17"/>
<text text-anchor="middle" x="887.44" y="-492.8" font-family="Times,serif" font-size="14.00">ToBack</text>
</g>
<!-- 1725433893&#45;&gt;1870071933 -->
<g id="edge42" class="edge">
<title>1725433893&#45;&gt;1870071933</title>
<path fill="none" stroke="black" d="M986.07,-383.78C977.45,-393.55 970.45,-406.05 976.94,-417 980.21,-422.5 984.67,-427.2 989.75,-431.19"/>
<polygon fill="black" stroke="black" points="987.89,-434.16 998.12,-436.9 991.83,-428.37 987.89,-434.16"/>
<text text-anchor="middle" x="1000.94" y="-405.8" font-family="Times,serif" font-size="14.00">ToInside</text>
</g>
<!-- 1207699172 -->
<g id="node11" class="node">
<title>1207699172</title>
<ellipse fill="none" stroke="black" cx="1877.94" cy="-540" rx="74.19" ry="18"/>
<text text-anchor="middle" x="1877.94" y="-536.3" font-family="Times,serif" font-size="14.00">select(play, build)</text>
</g>
<!-- 1205077728 -->
<g id="node19" class="node">
<title>1205077728</title>
<ellipse fill="none" stroke="black" cx="1918.94" cy="-453" rx="75.29" ry="18"/>
<text text-anchor="middle" x="1918.94" y="-449.3" font-family="Times,serif" font-size="14.00">inside(play, build)</text>
</g>
<!-- 1207699172&#45;&gt;1205077728 -->
<g id="edge51" class="edge">
<title>1207699172&#45;&gt;1205077728</title>
<path fill="none" stroke="black" d="M1867.01,-522.05C1862,-512.01 1858.3,-499.27 1863.94,-489 1866.84,-483.72 1870.9,-479.13 1875.53,-475.16"/>
<polygon fill="black" stroke="black" points="1877.79,-477.84 1883.73,-469.07 1873.62,-472.22 1877.79,-477.84"/>
<text text-anchor="middle" x="1887.94" y="-492.8" font-family="Times,serif" font-size="14.00">ToInside</text>
</g>
<!-- 1207699172&#45;&gt;71500215 -->
<g id="edge50" class="edge">
<title>1207699172&#45;&gt;71500215</title>
<path fill="none" stroke="black" d="M1838.96,-555.4C1828.05,-560.71 1816.77,-567.54 1807.94,-576 1794.72,-588.66 1803.33,-602.09 1787.94,-612 1754.87,-633.29 1489.16,-643.07 1390.05,-646.01"/>
<polygon fill="black" stroke="black" points="1389.79,-642.51 1379.89,-646.3 1389.99,-649.51 1389.79,-642.51"/>
<text text-anchor="middle" x="1829.44" y="-590.3" font-family="Times,serif" font-size="14.00">ToBack</text>
</g>
<!-- 1367869265 -->
<g id="node12" class="node">
<title>1367869265</title>
<ellipse fill="none" stroke="black" cx="92.94" cy="-366" rx="92.88" ry="18"/>
<text text-anchor="middle" x="92.94" y="-362.3" font-family="Times,serif" font-size="14.00">animation(menu, map)</text>
</g>
<!-- 1367869265&#45;&gt;41681215 -->
<g id="edge16" class="edge">
<title>1367869265&#45;&gt;41681215</title>
<path fill="none" stroke="black" d="M93.26,-384.26C93.56,-401.43 93.94,-428.53 93.94,-452 93.94,-649 93.94,-649 93.94,-649 93.94,-684.93 131.88,-708.84 161.02,-721.91"/>
<polygon fill="black" stroke="black" points="159.92,-725.25 170.5,-725.93 162.66,-718.81 159.92,-725.25"/>
<text text-anchor="middle" x="104.94" y="-536.3" font-family="Times,serif" font-size="14.00">End</text>
</g>
<!-- 1089275528 -->
<g id="node13" class="node">
<title>1089275528</title>
<ellipse fill="none" stroke="black" cx="2031.94" cy="-366" rx="74.19" ry="18"/>
<text text-anchor="middle" x="2031.94" y="-362.3" font-family="Times,serif" font-size="14.00">hover(play, build)</text>
</g>
<!-- 1089275528&#45;&gt;1207699172 -->
<g id="edge56" class="edge">
<title>1089275528&#45;&gt;1207699172</title>
<path fill="none" stroke="black" d="M2034.58,-384.39C2035.49,-394.13 2035.69,-406.41 2032.94,-417 2021.41,-461.51 2014.32,-477.22 1976.94,-504 1965.55,-512.16 1952.08,-518.57 1938.8,-523.56"/>
<polygon fill="black" stroke="black" points="1937.47,-520.31 1929.2,-526.93 1939.8,-526.92 1937.47,-520.31"/>
<text text-anchor="middle" x="2055.44" y="-449.3" font-family="Times,serif" font-size="14.00">ToOutside</text>
</g>
<!-- 104464913 -->
<g id="node16" class="node">
<title>104464913</title>
<ellipse fill="none" stroke="black" cx="1925.94" cy="-279" rx="28.7" ry="18"/>
<text text-anchor="middle" x="1925.94" y="-275.3" font-family="Times,serif" font-size="14.00">build</text>
</g>
<!-- 1089275528&#45;&gt;104464913 -->
<g id="edge58" class="edge">
<title>1089275528&#45;&gt;104464913</title>
<path fill="none" stroke="black" d="M2011.5,-348.61C1994.18,-334.72 1969.29,-314.76 1950.81,-299.94"/>
<polygon fill="black" stroke="black" points="1952.82,-297.06 1942.83,-293.54 1948.44,-302.53 1952.82,-297.06"/>
<text text-anchor="middle" x="2015.44" y="-318.8" font-family="Times,serif" font-size="14.00">ToSelected</text>
</g>
<!-- 1089275528&#45;&gt;1205077728 -->
<g id="edge57" class="edge">
<title>1089275528&#45;&gt;1205077728</title>
<path fill="none" stroke="black" d="M2009.92,-383.34C2002.03,-389.21 1993.08,-395.89 1984.94,-402 1973.13,-410.87 1960.16,-420.68 1948.87,-429.25"/>
<polygon fill="black" stroke="black" points="1946.46,-426.68 1940.61,-435.52 1950.69,-432.26 1946.46,-426.68"/>
<text text-anchor="middle" x="2008.94" y="-405.8" font-family="Times,serif" font-size="14.00">ToInside</text>
</g>
<!-- 1089275528&#45;&gt;71500215 -->
<g id="edge55" class="edge">
<title>1089275528&#45;&gt;71500215</title>
<path fill="none" stroke="black" d="M2051.28,-383.55C2064.41,-396.14 2080.66,-414.7 2087.94,-435 2093.34,-450.06 2092.26,-455.6 2087.94,-471 2064.99,-552.78 2039.08,-583.86 1958.94,-612 1853.24,-649.12 1505.12,-648.72 1390.15,-647.52"/>
<polygon fill="black" stroke="black" points="1390.12,-644.02 1380.08,-647.41 1390.04,-651.02 1390.12,-644.02"/>
<text text-anchor="middle" x="2103.44" y="-492.8" font-family="Times,serif" font-size="14.00">ToBack</text>
</g>
<!-- 1414661941&#45;&gt;284492598 -->
<g id="edge27" class="edge">
<title>1414661941&#45;&gt;284492598</title>
<path fill="none" stroke="black" d="M349.44,-836.79C333.01,-842.2 315.21,-849.24 299.94,-858 229.52,-898.4 173,-958.08 161.94,-978 148.85,-1001.57 144.86,-1032.4 143.84,-1054.36"/>
<polygon fill="black" stroke="black" points="140.33,-1054.56 143.54,-1064.66 147.33,-1054.76 140.33,-1054.56"/>
<text text-anchor="middle" x="219.44" y="-948.8" font-family="Times,serif" font-size="14.00">ToSelected</text>
</g>
<!-- 1414661941&#45;&gt;1551173521 -->
<g id="edge25" class="edge">
<title>1414661941&#45;&gt;1551173521</title>
<path fill="none" stroke="black" d="M359.86,-838.02C335.03,-848.99 305.02,-866.29 286.94,-891 270.58,-913.36 265.14,-945.08 263.45,-967.6"/>
<polygon fill="black" stroke="black" points="259.94,-967.66 262.89,-977.83 266.93,-968.04 259.94,-967.66"/>
<text text-anchor="middle" x="315.44" y="-905.3" font-family="Times,serif" font-size="14.00">ToOutside</text>
</g>
<!-- 1414661941&#45;&gt;1547765645 -->
<g id="edge26" class="edge">
<title>1414661941&#45;&gt;1547765645</title>
<path fill="none" stroke="black" d="M389.3,-839.92C383.45,-849.95 378.97,-862.69 384.94,-873 388,-878.28 392.19,-882.83 396.95,-886.74"/>
<polygon fill="black" stroke="black" points="395.22,-889.8 405.4,-892.72 399.26,-884.09 395.22,-889.8"/>
<text text-anchor="middle" x="408.94" y="-861.8" font-family="Times,serif" font-size="14.00">ToInside</text>
</g>
<!-- 1414661941&#45;&gt;41681215 -->
<g id="edge24" class="edge">
<title>1414661941&#45;&gt;41681215</title>
<path fill="none" stroke="black" d="M363.79,-805.41C324.17,-789.22 262.89,-764.18 225.79,-749.01"/>
<polygon fill="black" stroke="black" points="227.03,-745.74 216.45,-745.2 224.38,-752.22 227.03,-745.74"/>
<text text-anchor="middle" x="331.44" y="-774.8" font-family="Times,serif" font-size="14.00">ToBack</text>
</g>
<!-- 1505101769 -->
<g id="node15" class="node">
<title>1505101769</title>
<ellipse fill="none" stroke="black" cx="514.94" cy="-540" rx="91.78" ry="18"/>
<text text-anchor="middle" x="514.94" y="-536.3" font-family="Times,serif" font-size="14.00">animation(play, menu)</text>
</g>
<!-- 1505101769&#45;&gt;70779318 -->
<g id="edge48" class="edge">
<title>1505101769&#45;&gt;70779318</title>
<path fill="none" stroke="black" d="M480.95,-523.21C447.65,-507.74 397.25,-484.33 364.46,-469.11"/>
<polygon fill="black" stroke="black" points="365.84,-465.89 355.3,-464.85 362.9,-472.24 365.84,-465.89"/>
<text text-anchor="middle" x="444.94" y="-492.8" font-family="Times,serif" font-size="14.00">End</text>
</g>
<!-- 104464913&#45;&gt;1207699172 -->
<g id="edge60" class="edge">
<title>104464913&#45;&gt;1207699172</title>
<path fill="none" stroke="black" d="M1909.52,-294.09C1902.99,-300.15 1895.69,-307.54 1889.94,-315 1854.15,-361.48 1840.21,-376.57 1834.94,-435 1833.5,-450.94 1830.49,-455.63 1834.94,-471 1839.41,-486.44 1848.55,-501.74 1857.26,-513.9"/>
<polygon fill="black" stroke="black" points="1854.65,-516.26 1863.45,-522.16 1860.26,-512.06 1854.65,-516.26"/>
<text text-anchor="middle" x="1862.94" y="-405.8" font-family="Times,serif" font-size="14.00">ToSelect</text>
</g>
<!-- 104464913&#45;&gt;71500215 -->
<g id="edge59" class="edge">
<title>104464913&#45;&gt;71500215</title>
<path fill="none" stroke="black" d="M1953.8,-283.57C2018.39,-292.62 2172.94,-319.08 2172.94,-365 2172.94,-541 2172.94,-541 2172.94,-541 2172.94,-620.83 2085.68,-593.81 2007.94,-612 1889.28,-639.77 1511.16,-645.57 1390.4,-646.73"/>
<polygon fill="black" stroke="black" points="1390.15,-643.23 1380.18,-646.82 1390.21,-650.23 1390.15,-643.23"/>
<text text-anchor="middle" x="2192.44" y="-449.3" font-family="Times,serif" font-size="14.00">ToPlay</text>
</g>
<!-- 352453550&#45;&gt;1874004097 -->
<g id="edge45" class="edge">
<title>352453550&#45;&gt;1874004097</title>
<path fill="none" stroke="black" d="M1099.01,-295.78C1104.18,-301.39 1109.42,-308.05 1112.94,-315 1133.89,-356.38 1122.7,-372.27 1134.94,-417 1137.17,-425.13 1139.59,-426.68 1140.94,-435 1143.5,-450.79 1144.33,-455.36 1140.94,-471 1137.53,-486.75 1135.92,-491.35 1125.94,-504 1122.65,-508.17 1118.77,-512.12 1114.68,-515.77"/>
<polygon fill="black" stroke="black" points="1112.15,-513.33 1106.67,-522.4 1116.61,-518.72 1112.15,-513.33"/>
<text text-anchor="middle" x="1163.44" y="-405.8" font-family="Times,serif" font-size="14.00">ToOutside</text>
</g>
<!-- 352453550&#45;&gt;71500215 -->
<g id="edge44" class="edge">
<title>352453550&#45;&gt;71500215</title>
<path fill="none" stroke="black" d="M1119.82,-288.86C1156.29,-299.91 1205.94,-322.72 1205.94,-365 1205.94,-541 1205.94,-541 1205.94,-541 1205.94,-596.02 1274.54,-625.34 1318.01,-638.39"/>
<polygon fill="black" stroke="black" points="1317.09,-641.77 1327.67,-641.15 1319.02,-635.04 1317.09,-641.77"/>
<text text-anchor="middle" x="1222.94" y="-449.3" font-family="Times,serif" font-size="14.00">Finish</text>
</g>
<!-- 70779318&#45;&gt;71696827 -->
<g id="edge1" class="edge">
<title>70779318&#45;&gt;71696827</title>
<path fill="none" stroke="black" d="M303.58,-446.2C285.75,-441.22 263.47,-432.32 248.94,-417 242.9,-410.62 238.86,-402.07 236.17,-393.84"/>
<polygon fill="black" stroke="black" points="239.53,-392.85 233.51,-384.13 232.78,-394.7 239.53,-392.85"/>
<text text-anchor="middle" x="260.44" y="-405.8" font-family="Times,serif" font-size="14.00">Exit</text>
</g>
<!-- 70779318&#45;&gt;1871579263 -->
<g id="edge2" class="edge">
<title>70779318&#45;&gt;1871579263</title>
<path fill="none" stroke="black" d="M350.65,-438.45C365.89,-427.76 388.19,-412.89 408.94,-402 419.65,-396.38 431.47,-391.02 442.8,-386.26"/>
<polygon fill="black" stroke="black" points="444.25,-389.45 452.17,-382.41 441.59,-382.97 444.25,-389.45"/>
<text text-anchor="middle" x="433.44" y="-405.8" font-family="Times,serif" font-size="14.00">ToEditor</text>
</g>
<!-- 70779318&#45;&gt;1367869265 -->
<g id="edge15" class="edge">
<title>70779318&#45;&gt;1367869265</title>
<path fill="none" stroke="black" d="M303.53,-446.32C275.87,-440.4 232.87,-430.15 196.94,-417 174.79,-408.89 151.02,-397.67 131.8,-387.91"/>
<polygon fill="black" stroke="black" points="133.25,-384.72 122.76,-383.25 130.05,-390.94 133.25,-384.72"/>
<text text-anchor="middle" x="216.44" y="-405.8" font-family="Times,serif" font-size="14.00">ToPlay</text>
</g>
<!-- 1205077728&#45;&gt;1207699172 -->
<g id="edge53" class="edge">
<title>1205077728&#45;&gt;1207699172</title>
<path fill="none" stroke="black" d="M1919.14,-471.44C1918.62,-481.42 1916.87,-493.92 1911.94,-504 1910.06,-507.85 1907.59,-511.55 1904.84,-515"/>
<polygon fill="black" stroke="black" points="1902.12,-512.79 1898.06,-522.57 1907.34,-517.46 1902.12,-512.79"/>
<text text-anchor="middle" x="1944.44" y="-492.8" font-family="Times,serif" font-size="14.00">ToOutside</text>
</g>
<!-- 1205077728&#45;&gt;1089275528 -->
<g id="edge54" class="edge">
<title>1205077728&#45;&gt;1089275528</title>
<path fill="none" stroke="black" d="M1911.22,-434.68C1907.84,-424.24 1906.03,-411.24 1912.94,-402 1919.74,-392.91 1941.13,-385.37 1963.93,-379.65"/>
<polygon fill="black" stroke="black" points="1964.84,-383.03 1973.75,-377.31 1963.21,-376.22 1964.84,-383.03"/>
<text text-anchor="middle" x="1937.44" y="-405.8" font-family="Times,serif" font-size="14.00">ToHover</text>
</g>
<!-- 1205077728&#45;&gt;104464913 -->
<g id="edge61" class="edge">
<title>1205077728&#45;&gt;104464913</title>
<path fill="none" stroke="black" d="M1908.06,-435.17C1896.19,-414.69 1879.87,-378.99 1887.94,-348 1892.03,-332.31 1900.62,-316.4 1908.61,-303.92"/>
<polygon fill="black" stroke="black" points="1911.59,-305.75 1914.24,-295.49 1905.77,-301.86 1911.59,-305.75"/>
<text text-anchor="middle" x="1918.44" y="-362.3" font-family="Times,serif" font-size="14.00">ToSelected</text>
</g>
<!-- 1205077728&#45;&gt;71500215 -->
<g id="edge52" class="edge">
<title>1205077728&#45;&gt;71500215</title>
<path fill="none" stroke="black" d="M1956.03,-468.7C1964.36,-473.83 1972.14,-480.5 1976.94,-489 2006.29,-540.99 1975.06,-582.88 1922.94,-612 1876.63,-637.87 1509.3,-644.95 1390.13,-646.57"/>
<polygon fill="black" stroke="black" points="1389.99,-643.07 1380.03,-646.71 1390.08,-650.07 1389.99,-643.07"/>
<text text-anchor="middle" x="2009.44" y="-536.3" font-family="Times,serif" font-size="14.00">ToBack</text>
</g>
<!-- 351667117&#45;&gt;1871579263 -->
<g id="edge13" class="edge">
<title>351667117&#45;&gt;1871579263</title>
<path fill="none" stroke="black" d="M376.28,-122.79C361.48,-157.96 333.25,-240.74 366.94,-297 381.07,-320.59 406.49,-336.46 430.9,-346.89"/>
<polygon fill="black" stroke="black" points="429.59,-350.14 440.18,-350.63 432.21,-343.65 429.59,-350.14"/>
<text text-anchor="middle" x="379.44" y="-231.8" font-family="Times,serif" font-size="14.00">ToOutside</text>
</g>
<!-- 351667117&#45;&gt;70779318 -->
<g id="edge12" class="edge">
<title>351667117&#45;&gt;70779318</title>
<path fill="none" stroke="black" d="M351.04,-118.57C322.57,-131.83 285.94,-155.75 285.94,-191 285.94,-367 285.94,-367 285.94,-367 285.94,-390 299.14,-412.75 311.39,-428.91"/>
<polygon fill="black" stroke="black" points="308.66,-431.1 317.64,-436.73 314.13,-426.73 308.66,-431.1"/>
<text text-anchor="middle" x="302.94" y="-275.3" font-family="Times,serif" font-size="14.00">Finish</text>
</g>
<!-- 3485469612&#45;&gt;3479178152 -->
<g id="edge64" class="edge">
<title>3485469612&#45;&gt;3479178152</title>
<path fill="none" stroke="black" d="M1453.77,-523.71C1444.02,-518.79 1434.78,-512.36 1427.94,-504 1422.78,-497.68 1419.91,-489.47 1418.34,-481.53"/>
<polygon fill="black" stroke="black" points="1421.78,-480.87 1416.96,-471.43 1414.85,-481.82 1421.78,-480.87"/>
<text text-anchor="middle" x="1451.94" y="-492.8" font-family="Times,serif" font-size="14.00">ToInside</text>
</g>
<!-- 3485469612&#45;&gt;71500215 -->
<g id="edge63" class="edge">
<title>3485469612&#45;&gt;71500215</title>
<path fill="none" stroke="black" d="M1421.33,-552.74C1406.22,-557.94 1391.61,-565.38 1379.94,-576 1367.54,-587.28 1360.8,-604.87 1357.15,-619.72"/>
<polygon fill="black" stroke="black" points="1353.64,-619.41 1355.01,-629.92 1360.49,-620.85 1353.64,-619.41"/>
<text text-anchor="middle" x="1401.44" y="-590.3" font-family="Times,serif" font-size="14.00">ToBack</text>
</g>
<!-- 1867647099&#45;&gt;1723009059 -->
<g id="edge7" class="edge">
<title>1867647099&#45;&gt;1723009059</title>
<path fill="none" stroke="black" d="M472.98,-261C471.55,-250.43 471.76,-237.16 478.94,-228 486.42,-218.45 496.34,-211.4 507.29,-206.21"/>
<polygon fill="black" stroke="black" points="508.83,-209.36 516.7,-202.27 506.13,-202.9 508.83,-209.36"/>
<text text-anchor="middle" x="503.44" y="-231.8" font-family="Times,serif" font-size="14.00">ToHover</text>
</g>
<!-- 1867647099&#45;&gt;1871579263 -->
<g id="edge6" class="edge">
<title>1867647099&#45;&gt;1871579263</title>
<path fill="none" stroke="black" d="M488.42,-297.1C491.48,-302.58 494.38,-308.83 495.94,-315 497.77,-322.21 498.16,-330.19 497.85,-337.62"/>
<polygon fill="black" stroke="black" points="494.36,-337.37 497.05,-347.62 501.34,-337.93 494.36,-337.37"/>
<text text-anchor="middle" x="525.44" y="-318.8" font-family="Times,serif" font-size="14.00">ToOutside</text>
</g>
<!-- 1867647099&#45;&gt;70779318 -->
<g id="edge5" class="edge">
<title>1867647099&#45;&gt;70779318</title>
<path fill="none" stroke="black" d="M420.43,-294C391.82,-304.12 359.34,-320.92 340.94,-348 325.71,-370.42 325.2,-402.13 327.41,-424.63"/>
<polygon fill="black" stroke="black" points="323.98,-425.35 328.67,-434.85 330.93,-424.5 323.98,-425.35"/>
<text text-anchor="middle" x="362.44" y="-362.3" font-family="Times,serif" font-size="14.00">ToBack</text>
</g>
<!-- 1867647099&#45;&gt;351667117 -->
<g id="edge14" class="edge">
<title>1867647099&#45;&gt;351667117</title>
<path fill="none" stroke="black" d="M463.48,-261.04C453.24,-247.66 439.2,-228.27 428.94,-210 414.73,-184.68 401.94,-153.98 393.66,-132.52"/>
<polygon fill="black" stroke="black" points="396.9,-131.19 390.08,-123.08 390.36,-133.67 396.9,-131.19"/>
<text text-anchor="middle" x="459.44" y="-188.3" font-family="Times,serif" font-size="14.00">ToSelected</text>
</g>
<!-- 71500215&#45;&gt;1874004097 -->
<g id="edge34" class="edge">
<title>71500215&#45;&gt;1874004097</title>
<path fill="none" stroke="black" d="M1325.91,-645.57C1259.63,-641.79 1093.27,-630.53 1076.94,-612 1066.53,-600.18 1067.49,-582.51 1071.07,-567.76"/>
<polygon fill="black" stroke="black" points="1074.44,-568.7 1073.86,-558.12 1067.72,-566.75 1074.44,-568.7"/>
<text text-anchor="middle" x="1101.44" y="-590.3" font-family="Times,serif" font-size="14.00">ToEditor</text>
</g>
<!-- 71500215&#45;&gt;1207699172 -->
<g id="edge49" class="edge">
<title>71500215&#45;&gt;1207699172</title>
<path fill="none" stroke="black" d="M1380.02,-646.86C1479,-646.1 1817.39,-641.36 1854.94,-612 1868.21,-601.63 1873.94,-583.48 1876.36,-568.13"/>
<polygon fill="black" stroke="black" points="1879.84,-568.42 1877.55,-558.08 1872.89,-567.59 1879.84,-568.42"/>
<text text-anchor="middle" x="1896.44" y="-590.3" font-family="Times,serif" font-size="14.00">ToBuild</text>
</g>
<!-- 71500215&#45;&gt;1505101769 -->
<g id="edge47" class="edge">
<title>71500215&#45;&gt;1505101769</title>
<path fill="none" stroke="black" d="M1326.01,-646.71C1218.4,-645.38 819.15,-638.72 695.94,-612 645.98,-601.17 591.77,-578.3 555.84,-561.43"/>
<polygon fill="black" stroke="black" points="557.2,-558.2 546.66,-557.06 554.19,-564.52 557.2,-558.2"/>
<text text-anchor="middle" x="719.44" y="-590.3" font-family="Times,serif" font-size="14.00">ToMenu</text>
</g>
<!-- 71500215&#45;&gt;3485469612 -->
<g id="edge62" class="edge">
<title>71500215&#45;&gt;3485469612</title>
<path fill="none" stroke="black" d="M1375.85,-638.16C1390.94,-631.87 1410.82,-622.65 1426.94,-612 1447.39,-598.49 1468.02,-580.04 1483.21,-565.33"/>
<polygon fill="black" stroke="black" points="1485.96,-567.54 1490.62,-558.03 1481.04,-562.55 1485.96,-567.54"/>
<text text-anchor="middle" x="1491.94" y="-590.3" font-family="Times,serif" font-size="14.00">ToPlace</text>
</g>
<!-- 1206519513&#45;&gt;71500215 -->
<g id="edge72" class="edge">
<title>1206519513&#45;&gt;71500215</title>
<path fill="none" stroke="black" d="M1597.67,-293.5C1629.61,-306.22 1666.94,-328.83 1666.94,-365 1666.94,-541 1666.94,-541 1666.94,-541 1666.94,-599 1472.16,-631.39 1389.42,-642.54"/>
<polygon fill="black" stroke="black" points="1388.9,-639.07 1379.44,-643.85 1389.81,-646.01 1388.9,-639.07"/>
<text text-anchor="middle" x="1688.44" y="-449.3" font-family="Times,serif" font-size="14.00">ToBack</text>
</g>
<!-- 1206519513&#45;&gt;1203898069 -->
<g id="edge73" class="edge">
<title>1206519513&#45;&gt;1203898069</title>
<path fill="none" stroke="black" d="M1555.14,-260.88C1557.3,-250.27 1561.57,-236.99 1569.94,-228 1576.82,-220.62 1585.49,-214.73 1594.63,-210.06"/>
<polygon fill="black" stroke="black" points="1596.27,-213.16 1603.87,-205.78 1593.33,-206.81 1596.27,-213.16"/>
<text text-anchor="middle" x="1593.94" y="-231.8" font-family="Times,serif" font-size="14.00">ToInside</text>
</g>
<!-- 104006150&#45;&gt;71500215 -->
<g id="edge81" class="edge">
<title>104006150&#45;&gt;71500215</title>
<path fill="none" stroke="black" d="M1696.89,-28.52C1724.45,-41.24 1765.94,-66.6 1765.94,-104 1765.94,-280 1765.94,-280 1765.94,-280 1765.94,-436.16 1790.83,-542.59 1650.94,-612 1605.89,-634.35 1459.27,-642.9 1389.93,-645.75"/>
<polygon fill="black" stroke="black" points="1389.74,-642.25 1379.88,-646.14 1390.01,-649.25 1389.74,-642.25"/>
<text text-anchor="middle" x="1785.44" y="-318.8" font-family="Times,serif" font-size="14.00">ToPlay</text>
</g>
<!-- 41681215&#45;&gt;71696827 -->
<g id="edge17" class="edge">
<title>41681215&#45;&gt;71696827</title>
<path fill="none" stroke="black" d="M181.42,-718.77C169.36,-702.53 152.94,-675.54 152.94,-649 152.94,-649 152.94,-649 152.94,-452 152.94,-428.92 152.58,-420.06 166.94,-402 169.48,-398.81 185.65,-389.98 201.1,-381.98"/>
<polygon fill="black" stroke="black" points="202.7,-385.1 210,-377.42 199.51,-378.87 202.7,-385.1"/>
<text text-anchor="middle" x="164.44" y="-536.3" font-family="Times,serif" font-size="14.00">Exit</text>
</g>
<!-- 41681215&#45;&gt;1551173521 -->
<g id="edge18" class="edge">
<title>41681215&#45;&gt;1551173521</title>
<path fill="none" stroke="black" d="M198.49,-753.06C210.23,-797.12 241.64,-915.03 255.82,-968.26"/>
<polygon fill="black" stroke="black" points="252.46,-969.24 258.41,-978.01 259.22,-967.44 252.46,-969.24"/>
<text text-anchor="middle" x="255.44" y="-861.8" font-family="Times,serif" font-size="14.00">ToEditor</text>
</g>
<!-- 41681215&#45;&gt;71500215 -->
<g id="edge33" class="edge">
<title>41681215&#45;&gt;71500215</title>
<path fill="none" stroke="black" d="M220.61,-732.04C373.49,-720.83 1138.18,-664.75 1315.97,-651.71"/>
<polygon fill="black" stroke="black" points="1316.4,-655.19 1326.12,-650.97 1315.89,-648.21 1316.4,-655.19"/>
<text text-anchor="middle" x="861.44" y="-687.8" font-family="Times,serif" font-size="14.00">ToPlay</text>
</g>
<!-- 1354696529 -->
<g id="node29" class="node">
<title>1354696529</title>
<ellipse fill="none" stroke="black" cx="279.94" cy="-594" rx="92.88" ry="18"/>
<text text-anchor="middle" x="279.94" y="-590.3" font-family="Times,serif" font-size="14.00">animation(map, menu)</text>
</g>
<!-- 41681215&#45;&gt;1354696529 -->
<g id="edge31" class="edge">
<title>41681215&#45;&gt;1354696529</title>
<path fill="none" stroke="black" d="M203.81,-718.05C218.54,-694.25 246.43,-649.16 264.06,-620.68"/>
<polygon fill="black" stroke="black" points="267.1,-622.4 269.39,-612.06 261.15,-618.72 267.1,-622.4"/>
<text text-anchor="middle" x="248.44" y="-687.8" font-family="Times,serif" font-size="14.00">ToMenu</text>
</g>
<!-- 3282635600&#45;&gt;3479178152 -->
<g id="edge70" class="edge">
<title>3282635600&#45;&gt;3479178152</title>
<path fill="none" stroke="black" d="M1375.23,-384.13C1367.46,-393.78 1361.25,-406.07 1366.94,-417 1369.24,-421.41 1372.37,-425.38 1375.96,-428.92"/>
<polygon fill="black" stroke="black" points="1373.94,-431.8 1383.83,-435.59 1378.46,-426.46 1373.94,-431.8"/>
<text text-anchor="middle" x="1390.94" y="-405.8" font-family="Times,serif" font-size="14.00">ToInside</text>
</g>
<!-- 3282635600&#45;&gt;3485469612 -->
<g id="edge69" class="edge">
<title>3282635600&#45;&gt;3485469612</title>
<path fill="none" stroke="black" d="M1464.17,-380.65C1494.93,-390.4 1528.12,-406.98 1546.94,-435 1567.28,-465.27 1555.4,-490.22 1548.94,-504 1547.08,-507.96 1544.53,-511.64 1541.6,-514.99"/>
<polygon fill="black" stroke="black" points="1538.89,-512.74 1534.2,-522.24 1543.79,-517.74 1538.89,-512.74"/>
<text text-anchor="middle" x="1586.44" y="-449.3" font-family="Times,serif" font-size="14.00">ToOutside</text>
</g>
<!-- 3282635600&#45;&gt;71500215 -->
<g id="edge68" class="edge">
<title>3282635600&#45;&gt;71500215</title>
<path fill="none" stroke="black" d="M1349.47,-382.84C1326.45,-393.71 1300.26,-410.63 1286.94,-435 1248.35,-505.6 1288.58,-540.23 1324.94,-612 1327.06,-616.17 1329.72,-620.32 1332.56,-624.21"/>
<polygon fill="black" stroke="black" points="1329.98,-626.59 1338.92,-632.27 1335.47,-622.25 1329.98,-626.59"/>
<text text-anchor="middle" x="1293.44" y="-492.8" font-family="Times,serif" font-size="14.00">ToBack</text>
</g>
<!-- 3282635600&#45;&gt;1206519513 -->
<g id="edge71" class="edge">
<title>3282635600&#45;&gt;1206519513</title>
<path fill="none" stroke="black" d="M1417.96,-348.33C1433.71,-338.15 1454.64,-325.17 1473.94,-315 1484.51,-309.43 1496.16,-303.93 1507.18,-299.01"/>
<polygon fill="black" stroke="black" points="1508.92,-302.07 1516.66,-294.84 1506.1,-295.66 1508.92,-302.07"/>
<text text-anchor="middle" x="1504.44" y="-318.8" font-family="Times,serif" font-size="14.00">ToSelected</text>
</g>
<!-- 1870071933&#45;&gt;1874004097 -->
<g id="edge38" class="edge">
<title>1870071933&#45;&gt;1874004097</title>
<path fill="none" stroke="black" d="M1019.12,-470.55C1009.1,-480.23 1000.85,-492.73 1007.94,-504 1011.85,-510.21 1017.21,-515.35 1023.26,-519.59"/>
<polygon fill="black" stroke="black" points="1021.5,-522.62 1031.86,-524.83 1025.14,-516.64 1021.5,-522.62"/>
<text text-anchor="middle" x="1036.44" y="-492.8" font-family="Times,serif" font-size="14.00">ToOutside</text>
</g>
<!-- 1870071933&#45;&gt;1725433893 -->
<g id="edge39" class="edge">
<title>1870071933&#45;&gt;1725433893</title>
<path fill="none" stroke="black" d="M1038.42,-434.83C1036.58,-424.94 1033.58,-412.44 1028.94,-402 1027.52,-398.81 1025.8,-395.59 1023.95,-392.48"/>
<polygon fill="black" stroke="black" points="1026.86,-390.54 1018.48,-384.06 1020.99,-394.36 1026.86,-390.54"/>
<text text-anchor="middle" x="1058.44" y="-405.8" font-family="Times,serif" font-size="14.00">ToHover</text>
</g>
<!-- 1870071933&#45;&gt;352453550 -->
<g id="edge46" class="edge">
<title>1870071933&#45;&gt;352453550</title>
<path fill="none" stroke="black" d="M971.03,-441.41C900.3,-427.64 806.46,-399.07 844.94,-348 867.21,-318.45 967.48,-297.8 1030.25,-287.51"/>
<polygon fill="black" stroke="black" points="1031.04,-290.92 1040.36,-285.88 1029.94,-284.01 1031.04,-290.92"/>
<text text-anchor="middle" x="875.44" y="-362.3" font-family="Times,serif" font-size="14.00">ToSelected</text>
</g>
<!-- 1870071933&#45;&gt;71500215 -->
<g id="edge37" class="edge">
<title>1870071933&#45;&gt;71500215</title>
<path fill="none" stroke="black" d="M1005.14,-469.66C967.13,-488.6 915.53,-522.39 938.94,-558 980.45,-621.15 1222.27,-640.27 1315.92,-645.35"/>
<polygon fill="black" stroke="black" points="1315.9,-648.85 1326.06,-645.88 1316.26,-641.86 1315.9,-648.85"/>
<text text-anchor="middle" x="960.44" y="-536.3" font-family="Times,serif" font-size="14.00">ToBack</text>
</g>
<!-- 1354696529&#45;&gt;70779318 -->
<g id="edge32" class="edge">
<title>1354696529&#45;&gt;70779318</title>
<path fill="none" stroke="black" d="M286.32,-575.96C295.25,-552.07 311.59,-508.41 322.09,-480.33"/>
<polygon fill="black" stroke="black" points="325.45,-481.34 325.68,-470.75 318.89,-478.89 325.45,-481.34"/>
<text text-anchor="middle" x="316.94" y="-536.3" font-family="Times,serif" font-size="14.00">End</text>
</g>
<!-- 1203898069&#45;&gt;1088095869 -->
<g id="edge76" class="edge">
<title>1203898069&#45;&gt;1088095869</title>
<path fill="none" stroke="black" d="M1631.65,-174.63C1618.78,-164.8 1601.99,-152.07 1586.94,-141 1581.28,-136.84 1575.22,-132.45 1569.35,-128.24"/>
<polygon fill="black" stroke="black" points="1571.14,-125.22 1560.97,-122.25 1567.07,-130.91 1571.14,-125.22"/>
<text text-anchor="middle" x="1631.44" y="-144.8" font-family="Times,serif" font-size="14.00">ToHover</text>
</g>
<!-- 1203898069&#45;&gt;71500215 -->
<g id="edge74" class="edge">
<title>1203898069&#45;&gt;71500215</title>
<path fill="none" stroke="black" d="M1676.58,-209.23C1682.55,-214.51 1688.3,-220.87 1691.94,-228 1718.02,-279.01 1721.13,-434.8 1713.94,-471 1705.79,-512.04 1702.89,-524.4 1677.94,-558 1655.35,-588.43 1646.7,-596.89 1611.94,-612 1572.9,-628.97 1451.94,-639.87 1390.13,-644.48"/>
<polygon fill="black" stroke="black" points="1389.74,-641 1380.02,-645.21 1390.25,-647.98 1389.74,-641"/>
<text text-anchor="middle" x="1738.44" y="-405.8" font-family="Times,serif" font-size="14.00">ToBack</text>
</g>
<!-- 1203898069&#45;&gt;1206519513 -->
<g id="edge75" class="edge">
<title>1203898069&#45;&gt;1206519513</title>
<path fill="none" stroke="black" d="M1643.62,-210.29C1637.37,-220.7 1628.39,-233.7 1617.94,-243 1611.61,-248.63 1604.21,-253.69 1596.72,-258.1"/>
<polygon fill="black" stroke="black" points="1594.99,-255.05 1587.94,-262.96 1598.39,-261.17 1594.99,-255.05"/>
<text text-anchor="middle" x="1659.44" y="-231.8" font-family="Times,serif" font-size="14.00">ToOutside</text>
</g>
<!-- 1203898069&#45;&gt;104006150 -->
<g id="edge82" class="edge">
<title>1203898069&#45;&gt;104006150</title>
<path fill="none" stroke="black" d="M1656.1,-173.95C1657.1,-168.25 1658.14,-161.86 1658.94,-156 1664.11,-118.15 1668.28,-74.17 1670.69,-46.47"/>
<polygon fill="black" stroke="black" points="1674.19,-46.61 1671.55,-36.35 1667.21,-46.01 1674.19,-46.61"/>
<text text-anchor="middle" x="1696.44" y="-101.3" font-family="Times,serif" font-size="14.00">ToSelected</text>
</g>
</g>
</svg>
