<?xml version="1.0" encoding="UTF-8" standalone="no"?>
<!DOCTYPE svg PUBLIC "-//W3C//DTD SVG 1.1//EN"
 "http://www.w3.org/Graphics/SVG/1.1/DTD/svg11.dtd">
<!-- Generated by graphviz version 2.43.0 (0)
 -->
<!-- Title: G Pages: 1 -->
<svg width="1537pt" height="1457pt"
 viewBox="0.00 0.00 1537.00 1457.00" xmlns="http://www.w3.org/2000/svg" xmlns:xlink="http://www.w3.org/1999/xlink">
<g id="graph0" class="graph" transform="scale(1 1) rotate(0) translate(4 1453)">
<title>G</title>
<polygon fill="white" stroke="transparent" points="-4,4 -4,-1453 1533,-1453 1533,4 -4,4"/>
<!-- 3352562643 -->
<g id="node1" class="node">
<title>3352562643</title>
<ellipse fill="none" stroke="black" cx="258" cy="-1431" rx="133.78" ry="18"/>
<text text-anchor="middle" x="258" y="-1427.3" font-family="Times,serif" font-size="14.00">hover(map, selected_button(map))</text>
</g>
<!-- 3549105195 -->
<g id="node22" class="node">
<title>3549105195</title>
<ellipse fill="none" stroke="black" cx="186" cy="-1344" rx="134.58" ry="18"/>
<text text-anchor="middle" x="186" y="-1340.3" font-family="Times,serif" font-size="14.00">inside(map, selected_button(map))</text>
</g>
<!-- 3352562643&#45;&gt;3549105195 -->
<g id="edge27" class="edge">
<title>3352562643&#45;&gt;3549105195</title>
<path fill="none" stroke="black" d="M253.11,-1412.98C249.54,-1402.67 243.94,-1389.68 236,-1380 232.43,-1375.65 228.19,-1371.6 223.71,-1367.91"/>
<polygon fill="black" stroke="black" points="225.56,-1364.92 215.48,-1361.67 221.33,-1370.5 225.56,-1364.92"/>
<text text-anchor="middle" x="269" y="-1383.8" font-family="Times,serif" font-size="14.00">ToInside</text>
</g>
<!-- 41681215 -->
<g id="node23" class="node">
<title>41681215</title>
<ellipse fill="none" stroke="black" cx="388" cy="-1083" rx="27" ry="18"/>
<text text-anchor="middle" x="388" y="-1079.3" font-family="Times,serif" font-size="14.00">map</text>
</g>
<!-- 3352562643&#45;&gt;41681215 -->
<g id="edge25" class="edge">
<title>3352562643&#45;&gt;41681215</title>
<path fill="none" stroke="black" d="M362.17,-1419.58C405.55,-1408.9 446,-1387.54 446,-1345 446,-1345 446,-1345 446,-1169 446,-1143.67 428.21,-1120.32 412.33,-1104.53"/>
<polygon fill="black" stroke="black" points="414.45,-1101.72 404.78,-1097.41 409.65,-1106.82 414.45,-1101.72"/>
<text text-anchor="middle" x="467.5" y="-1253.3" font-family="Times,serif" font-size="14.00">ToBack</text>
</g>
<!-- 3835038892 -->
<g id="node24" class="node">
<title>3835038892</title>
<ellipse fill="none" stroke="black" cx="164" cy="-996" rx="139.18" ry="18"/>
<text text-anchor="middle" x="164" y="-992.3" font-family="Times,serif" font-size="14.00">outside(map, selected_button(map))</text>
</g>
<!-- 3352562643&#45;&gt;3835038892 -->
<g id="edge26" class="edge">
<title>3352562643&#45;&gt;3835038892</title>
<path fill="none" stroke="black" d="M168.13,-1417.63C93.67,-1404.77 0,-1381.37 0,-1345 0,-1345 0,-1345 0,-1082 0,-1045.94 31.64,-1025.16 67.13,-1013.19"/>
<polygon fill="black" stroke="black" points="68.22,-1016.52 76.72,-1010.19 66.13,-1009.84 68.22,-1016.52"/>
<text text-anchor="middle" x="28.5" y="-1209.8" font-family="Times,serif" font-size="14.00">ToOutside</text>
</g>
<!-- 1437009876 -->
<g id="node26" class="node">
<title>1437009876</title>
<ellipse fill="none" stroke="black" cx="271" cy="-1257" rx="87.18" ry="18"/>
<text text-anchor="middle" x="271" y="-1253.3" font-family="Times,serif" font-size="14.00">selected_button(map)</text>
</g>
<!-- 3352562643&#45;&gt;1437009876 -->
<g id="edge28" class="edge">
<title>3352562643&#45;&gt;1437009876</title>
<path fill="none" stroke="black" d="M285.1,-1413.16C301.58,-1401.18 321.12,-1383.44 330,-1362 336.12,-1347.22 335.6,-1340.99 330,-1326 323.66,-1309.02 310.96,-1293.48 298.97,-1281.55"/>
<polygon fill="black" stroke="black" points="301.31,-1278.95 291.65,-1274.61 296.5,-1284.03 301.31,-1278.95"/>
<text text-anchor="middle" x="365.5" y="-1340.3" font-family="Times,serif" font-size="14.00">ToSelected</text>
</g>
<!-- 3824159937 -->
<g id="node2" class="node">
<title>3824159937</title>
<ellipse fill="none" stroke="black" cx="674" cy="-192" rx="142.17" ry="18"/>
<text text-anchor="middle" x="674" y="-188.3" font-family="Times,serif" font-size="14.00">hover(menu, selected_button(menu))</text>
</g>
<!-- 41094554 -->
<g id="node11" class="node">
<title>41094554</title>
<ellipse fill="none" stroke="black" cx="724" cy="-366" rx="147.57" ry="18"/>
<text text-anchor="middle" x="724" y="-362.3" font-family="Times,serif" font-size="14.00">outside(menu, selected_button(menu))</text>
</g>
<!-- 3824159937&#45;&gt;41094554 -->
<g id="edge9" class="edge">
<title>3824159937&#45;&gt;41094554</title>
<path fill="none" stroke="black" d="M692.44,-210.16C697.18,-215.46 701.84,-221.6 705,-228 722.35,-263.12 725.31,-309.12 725.16,-337.87"/>
<polygon fill="black" stroke="black" points="721.66,-337.92 724.98,-347.98 728.66,-338.05 721.66,-337.92"/>
<text text-anchor="middle" x="751.5" y="-275.3" font-family="Times,serif" font-size="14.00">ToOutside</text>
</g>
<!-- 70779318 -->
<g id="node17" class="node">
<title>70779318</title>
<ellipse fill="none" stroke="black" cx="658" cy="-453" rx="30.59" ry="18"/>
<text text-anchor="middle" x="658" y="-449.3" font-family="Times,serif" font-size="14.00">menu</text>
</g>
<!-- 3824159937&#45;&gt;70779318 -->
<g id="edge8" class="edge">
<title>3824159937&#45;&gt;70779318</title>
<path fill="none" stroke="black" d="M718.01,-209.17C794,-239.56 936.58,-308.94 881,-384 859.02,-413.69 755,-435.61 697.12,-445.75"/>
<polygon fill="black" stroke="black" points="696.48,-442.31 687.22,-447.45 697.67,-449.21 696.48,-442.31"/>
<text text-anchor="middle" x="910.5" y="-318.8" font-family="Times,serif" font-size="14.00">ToBack</text>
</g>
<!-- 4032236825 -->
<g id="node18" class="node">
<title>4032236825</title>
<ellipse fill="none" stroke="black" cx="556" cy="-279" rx="143.77" ry="18"/>
<text text-anchor="middle" x="556" y="-275.3" font-family="Times,serif" font-size="14.00">inside(menu, selected_button(menu))</text>
</g>
<!-- 3824159937&#45;&gt;4032236825 -->
<g id="edge10" class="edge">
<title>3824159937&#45;&gt;4032236825</title>
<path fill="none" stroke="black" d="M665.62,-210.19C659.71,-220.83 650.9,-234.11 640,-243 632.99,-248.72 624.91,-253.63 616.59,-257.81"/>
<polygon fill="black" stroke="black" points="615.08,-254.65 607.51,-262.06 618.05,-260.99 615.08,-254.65"/>
<text text-anchor="middle" x="677" y="-231.8" font-family="Times,serif" font-size="14.00">ToInside</text>
</g>
<!-- 1581647947 -->
<g id="node20" class="node">
<title>1581647947</title>
<ellipse fill="none" stroke="black" cx="674" cy="-105" rx="91.78" ry="18"/>
<text text-anchor="middle" x="674" y="-101.3" font-family="Times,serif" font-size="14.00">selected_button(menu)</text>
</g>
<!-- 3824159937&#45;&gt;1581647947 -->
<g id="edge11" class="edge">
<title>3824159937&#45;&gt;1581647947</title>
<path fill="none" stroke="black" d="M674,-173.8C674,-162.16 674,-146.55 674,-133.24"/>
<polygon fill="black" stroke="black" points="677.5,-133.18 674,-123.18 670.5,-133.18 677.5,-133.18"/>
<text text-anchor="middle" x="704.5" y="-144.8" font-family="Times,serif" font-size="14.00">ToSelected</text>
</g>
<!-- 284492598 -->
<g id="node3" class="node">
<title>284492598</title>
<ellipse fill="none" stroke="black" cx="276" cy="-1170" rx="45.49" ry="18"/>
<text text-anchor="middle" x="276" y="-1166.3" font-family="Times,serif" font-size="14.00">edit(map)</text>
</g>
<!-- 284492598&#45;&gt;41681215 -->
<g id="edge30" class="edge">
<title>284492598&#45;&gt;41681215</title>
<path fill="none" stroke="black" d="M294.73,-1153.34C306.9,-1143.31 323.19,-1130.14 338,-1119 345.43,-1113.42 353.63,-1107.55 361.21,-1102.25"/>
<polygon fill="black" stroke="black" points="363.51,-1104.92 369.74,-1096.34 359.52,-1099.16 363.51,-1104.92"/>
<text text-anchor="middle" x="355" y="-1122.8" font-family="Times,serif" font-size="14.00">Finish</text>
</g>
<!-- 284492598&#45;&gt;3835038892 -->
<g id="edge31" class="edge">
<title>284492598&#45;&gt;3835038892</title>
<path fill="none" stroke="black" d="M265.26,-1152.51C245.63,-1122.36 203.82,-1058.15 180.53,-1022.39"/>
<polygon fill="black" stroke="black" points="183.43,-1020.42 175.04,-1013.95 177.56,-1024.24 183.43,-1020.42"/>
<text text-anchor="middle" x="260.5" y="-1079.3" font-family="Times,serif" font-size="14.00">ToOutside</text>
</g>
<!-- 3827305667 -->
<g id="node4" class="node">
<title>3827305667</title>
<ellipse fill="none" stroke="black" cx="1238" cy="-366" rx="131.88" ry="18"/>
<text text-anchor="middle" x="1238" y="-362.3" font-family="Times,serif" font-size="14.00">hover(play, selected_button(play))</text>
</g>
<!-- 44240284 -->
<g id="node7" class="node">
<title>44240284</title>
<ellipse fill="none" stroke="black" cx="1139" cy="-540" rx="137.58" ry="18"/>
<text text-anchor="middle" x="1139" y="-536.3" font-family="Times,serif" font-size="14.00">outside(play, selected_button(play))</text>
</g>
<!-- 3827305667&#45;&gt;44240284 -->
<g id="edge53" class="edge">
<title>3827305667&#45;&gt;44240284</title>
<path fill="none" stroke="black" d="M1183.55,-382.46C1157.67,-392.85 1129.14,-409.44 1114,-435 1099.68,-459.19 1111.03,-491.13 1122.71,-513.21"/>
<polygon fill="black" stroke="black" points="1119.71,-515.01 1127.66,-522.01 1125.81,-511.58 1119.71,-515.01"/>
<text text-anchor="middle" x="1142.5" y="-449.3" font-family="Times,serif" font-size="14.00">ToOutside</text>
</g>
<!-- 4035382555 -->
<g id="node10" class="node">
<title>4035382555</title>
<ellipse fill="none" stroke="black" cx="1313" cy="-453" rx="133.48" ry="18"/>
<text text-anchor="middle" x="1313" y="-449.3" font-family="Times,serif" font-size="14.00">inside(play, selected_button(play))</text>
</g>
<!-- 3827305667&#45;&gt;4035382555 -->
<g id="edge54" class="edge">
<title>3827305667&#45;&gt;4035382555</title>
<path fill="none" stroke="black" d="M1268.59,-383.55C1276.26,-388.73 1284.01,-394.95 1290,-402 1295.81,-408.83 1300.45,-417.37 1304,-425.45"/>
<polygon fill="black" stroke="black" points="1300.83,-426.95 1307.79,-434.93 1307.33,-424.35 1300.83,-426.95"/>
<text text-anchor="middle" x="1323" y="-405.8" font-family="Times,serif" font-size="14.00">ToInside</text>
</g>
<!-- 1582434380 -->
<g id="node14" class="node">
<title>1582434380</title>
<ellipse fill="none" stroke="black" cx="1309" cy="-279" rx="87.18" ry="18"/>
<text text-anchor="middle" x="1309" y="-275.3" font-family="Times,serif" font-size="14.00">selected_button(play)</text>
</g>
<!-- 3827305667&#45;&gt;1582434380 -->
<g id="edge55" class="edge">
<title>3827305667&#45;&gt;1582434380</title>
<path fill="none" stroke="black" d="M1252.37,-347.8C1262.73,-335.39 1276.88,-318.46 1288.44,-304.62"/>
<polygon fill="black" stroke="black" points="1291.17,-306.8 1294.9,-296.89 1285.8,-302.32 1291.17,-306.8"/>
<text text-anchor="middle" x="1307.5" y="-318.8" font-family="Times,serif" font-size="14.00">ToSelected</text>
</g>
<!-- 71500215 -->
<g id="node21" class="node">
<title>71500215</title>
<ellipse fill="none" stroke="black" cx="1073" cy="-627" rx="27" ry="18"/>
<text text-anchor="middle" x="1073" y="-623.3" font-family="Times,serif" font-size="14.00">play</text>
</g>
<!-- 3827305667&#45;&gt;71500215 -->
<g id="edge52" class="edge">
<title>3827305667&#45;&gt;71500215</title>
<path fill="none" stroke="black" d="M1153.72,-379.91C1091.21,-394.53 1010.73,-425.23 974,-489 947.69,-534.67 1007.03,-583.69 1044.78,-608.88"/>
<polygon fill="black" stroke="black" points="1043.1,-611.96 1053.39,-614.47 1046.91,-606.09 1043.1,-611.96"/>
<text text-anchor="middle" x="995.5" y="-492.8" font-family="Times,serif" font-size="14.00">ToBack</text>
</g>
<!-- 71696827 -->
<g id="node5" class="node">
<title>71696827</title>
<ellipse fill="none" stroke="black" cx="248" cy="-366" rx="27" ry="18"/>
<text text-anchor="middle" x="248" y="-362.3" font-family="Times,serif" font-size="14.00">exit</text>
</g>
<!-- 2047740232 -->
<g id="node6" class="node">
<title>2047740232</title>
<ellipse fill="none" stroke="black" cx="780" cy="-801" rx="102.88" ry="18"/>
<text text-anchor="middle" x="780" y="-797.3" font-family="Times,serif" font-size="14.00">hover(map, selected_cell)</text>
</g>
<!-- 2430667297 -->
<g id="node8" class="node">
<title>2430667297</title>
<ellipse fill="none" stroke="black" cx="827" cy="-996" rx="107.78" ry="18"/>
<text text-anchor="middle" x="827" y="-992.3" font-family="Times,serif" font-size="14.00">outside(map, selected_cell)</text>
</g>
<!-- 2047740232&#45;&gt;2430667297 -->
<g id="edge42" class="edge">
<title>2047740232&#45;&gt;2430667297</title>
<path fill="none" stroke="black" d="M758.11,-818.75C734.67,-838.86 702.77,-873.9 718,-906 731.94,-935.39 760.87,-958.28 785.42,-973.49"/>
<polygon fill="black" stroke="black" points="783.85,-976.63 794.23,-978.74 787.43,-970.61 783.85,-976.63"/>
<text text-anchor="middle" x="746.5" y="-884.3" font-family="Times,serif" font-size="14.00">ToOutside</text>
</g>
<!-- 2203912608 -->
<g id="node9" class="node">
<title>2203912608</title>
<ellipse fill="none" stroke="black" cx="887" cy="-888" rx="103.18" ry="18"/>
<text text-anchor="middle" x="887" y="-884.3" font-family="Times,serif" font-size="14.00">inside(map, selected_cell)</text>
</g>
<!-- 2047740232&#45;&gt;2203912608 -->
<g id="edge43" class="edge">
<title>2047740232&#45;&gt;2203912608</title>
<path fill="none" stroke="black" d="M775.27,-819.3C773.48,-829.72 773.27,-842.72 780,-852 785.89,-860.13 793.73,-866.41 802.5,-871.24"/>
<polygon fill="black" stroke="black" points="801,-874.41 811.53,-875.62 804.06,-868.11 801,-874.41"/>
<text text-anchor="middle" x="804" y="-840.8" font-family="Times,serif" font-size="14.00">ToInside</text>
</g>
<!-- 625345865 -->
<g id="node13" class="node">
<title>625345865</title>
<ellipse fill="none" stroke="black" cx="919" cy="-714" rx="55.79" ry="18"/>
<text text-anchor="middle" x="919" y="-710.3" font-family="Times,serif" font-size="14.00">selected_cell</text>
</g>
<!-- 2047740232&#45;&gt;625345865 -->
<g id="edge44" class="edge">
<title>2047740232&#45;&gt;625345865</title>
<path fill="none" stroke="black" d="M799.05,-783.25C811.36,-772.91 828.01,-759.8 844,-750 854.14,-743.79 865.56,-737.93 876.37,-732.85"/>
<polygon fill="black" stroke="black" points="878.04,-735.94 885.68,-728.6 875.13,-729.58 878.04,-735.94"/>
<text text-anchor="middle" x="874.5" y="-753.8" font-family="Times,serif" font-size="14.00">ToSelected</text>
</g>
<!-- 2047740232&#45;&gt;41681215 -->
<g id="edge41" class="edge">
<title>2047740232&#45;&gt;41681215</title>
<path fill="none" stroke="black" d="M751.24,-818.33C742,-823.92 731.86,-830.43 723,-837 606.67,-923.17 599.07,-974.08 474,-1047 457.51,-1056.61 437.87,-1064.82 421.53,-1070.87"/>
<polygon fill="black" stroke="black" points="420.07,-1067.68 411.84,-1074.35 422.43,-1074.26 420.07,-1067.68"/>
<text text-anchor="middle" x="645.5" y="-938.3" font-family="Times,serif" font-size="14.00">ToBack</text>
</g>
<!-- 44240284&#45;&gt;4035382555 -->
<g id="edge48" class="edge">
<title>44240284&#45;&gt;4035382555</title>
<path fill="none" stroke="black" d="M1143.14,-521.74C1146.65,-510.8 1152.79,-497.2 1163,-489 1174.35,-479.89 1187.66,-473.07 1201.58,-467.98"/>
<polygon fill="black" stroke="black" points="1202.92,-471.22 1211.29,-464.73 1200.7,-464.58 1202.92,-471.22"/>
<text text-anchor="middle" x="1187" y="-492.8" font-family="Times,serif" font-size="14.00">ToInside</text>
</g>
<!-- 44240284&#45;&gt;71500215 -->
<g id="edge47" class="edge">
<title>44240284&#45;&gt;71500215</title>
<path fill="none" stroke="black" d="M1090.45,-556.89C1082.31,-561.74 1074.92,-567.99 1070,-576 1065.82,-582.8 1065.03,-591.15 1065.72,-599.07"/>
<polygon fill="black" stroke="black" points="1062.29,-599.74 1067.34,-609.06 1069.2,-598.63 1062.29,-599.74"/>
<text text-anchor="middle" x="1091.5" y="-579.8" font-family="Times,serif" font-size="14.00">ToBack</text>
</g>
<!-- 2430667297&#45;&gt;2203912608 -->
<g id="edge37" class="edge">
<title>2430667297&#45;&gt;2203912608</title>
<path fill="none" stroke="black" d="M857.21,-978.44C864.03,-973.37 870.55,-967.19 875,-960 883.07,-946.95 886.16,-930.1 887.19,-916.09"/>
<polygon fill="black" stroke="black" points="890.69,-916.18 887.63,-906.04 883.7,-915.87 890.69,-916.18"/>
<text text-anchor="middle" x="910" y="-938.3" font-family="Times,serif" font-size="14.00">ToInside</text>
</g>
<!-- 2430667297&#45;&gt;41681215 -->
<g id="edge36" class="edge">
<title>2430667297&#45;&gt;41681215</title>
<path fill="none" stroke="black" d="M782.17,-1012.5C744.36,-1025.39 693.12,-1042.34 672,-1047 584.68,-1066.28 479.75,-1075.75 425.14,-1079.68"/>
<polygon fill="black" stroke="black" points="424.64,-1076.2 414.91,-1080.39 425.13,-1083.18 424.64,-1076.2"/>
<text text-anchor="middle" x="742.5" y="-1035.8" font-family="Times,serif" font-size="14.00">ToBack</text>
</g>
<!-- 2203912608&#45;&gt;2047740232 -->
<g id="edge40" class="edge">
<title>2203912608&#45;&gt;2047740232</title>
<path fill="none" stroke="black" d="M869.74,-870.11C859.18,-860.09 845.2,-847.35 832,-837 826.53,-832.71 820.56,-828.39 814.67,-824.31"/>
<polygon fill="black" stroke="black" points="816.42,-821.27 806.18,-818.55 812.49,-827.06 816.42,-821.27"/>
<text text-anchor="middle" x="873.5" y="-840.8" font-family="Times,serif" font-size="14.00">ToHover</text>
</g>
<!-- 2203912608&#45;&gt;2430667297 -->
<g id="edge39" class="edge">
<title>2203912608&#45;&gt;2430667297</title>
<path fill="none" stroke="black" d="M836.8,-903.77C827.75,-908.74 819.47,-915.32 814,-924 805.73,-937.14 808.51,-954.2 813.58,-968.3"/>
<polygon fill="black" stroke="black" points="810.51,-970.03 817.56,-977.95 816.98,-967.37 810.51,-970.03"/>
<text text-anchor="middle" x="842.5" y="-938.3" font-family="Times,serif" font-size="14.00">ToOutside</text>
</g>
<!-- 2203912608&#45;&gt;625345865 -->
<g id="edge62" class="edge">
<title>2203912608&#45;&gt;625345865</title>
<path fill="none" stroke="black" d="M895.47,-869.9C897.92,-864.31 900.38,-858 902,-852 912.06,-814.83 916.19,-770.35 917.87,-742.38"/>
<polygon fill="black" stroke="black" points="921.37,-742.34 918.41,-732.17 914.38,-741.97 921.37,-742.34"/>
<text text-anchor="middle" x="944.5" y="-797.3" font-family="Times,serif" font-size="14.00">ToSelected</text>
</g>
<!-- 2203912608&#45;&gt;41681215 -->
<g id="edge38" class="edge">
<title>2203912608&#45;&gt;41681215</title>
<path fill="none" stroke="black" d="M827.44,-902.85C780.13,-916.12 714.31,-939.85 667,-978 638.12,-1001.29 651.41,-1027.25 620,-1047 588.27,-1066.95 482.25,-1076.31 425.16,-1079.99"/>
<polygon fill="black" stroke="black" points="424.86,-1076.5 415.1,-1080.61 425.3,-1083.49 424.86,-1076.5"/>
<text text-anchor="middle" x="688.5" y="-992.3" font-family="Times,serif" font-size="14.00">ToBack</text>
</g>
<!-- 4035382555&#45;&gt;3827305667 -->
<g id="edge51" class="edge">
<title>4035382555&#45;&gt;3827305667</title>
<path fill="none" stroke="black" d="M1262.77,-436.23C1254.24,-431.37 1246.41,-425.09 1241,-417 1236.57,-410.36 1234.92,-402.06 1234.65,-394.14"/>
<polygon fill="black" stroke="black" points="1238.14,-394.21 1234.94,-384.11 1231.15,-394 1238.14,-394.21"/>
<text text-anchor="middle" x="1265.5" y="-405.8" font-family="Times,serif" font-size="14.00">ToHover</text>
</g>
<!-- 4035382555&#45;&gt;44240284 -->
<g id="edge50" class="edge">
<title>4035382555&#45;&gt;44240284</title>
<path fill="none" stroke="black" d="M1279.48,-470.47C1259.58,-480.23 1233.86,-492.84 1211,-504 1201.73,-508.53 1191.78,-513.37 1182.32,-517.97"/>
<polygon fill="black" stroke="black" points="1180.54,-514.95 1173.07,-522.47 1183.6,-521.24 1180.54,-514.95"/>
<text text-anchor="middle" x="1267.5" y="-492.8" font-family="Times,serif" font-size="14.00">ToOutside</text>
</g>
<!-- 4035382555&#45;&gt;1582434380 -->
<g id="edge59" class="edge">
<title>4035382555&#45;&gt;1582434380</title>
<path fill="none" stroke="black" d="M1337.49,-435.3C1352.88,-423.15 1371.23,-405.16 1379,-384 1384.51,-368.98 1385.23,-362.74 1379,-348 1371.39,-330 1356.42,-314.41 1342.28,-302.72"/>
<polygon fill="black" stroke="black" points="1344.13,-299.72 1334.1,-296.3 1339.8,-305.23 1344.13,-299.72"/>
<text text-anchor="middle" x="1413.5" y="-362.3" font-family="Times,serif" font-size="14.00">ToSelected</text>
</g>
<!-- 4035382555&#45;&gt;71500215 -->
<g id="edge49" class="edge">
<title>4035382555&#45;&gt;71500215</title>
<path fill="none" stroke="black" d="M1313.35,-471.14C1312.87,-493.94 1308.57,-534.16 1286,-558 1239.61,-607.01 1158,-620.82 1110.39,-624.63"/>
<polygon fill="black" stroke="black" points="1109.94,-621.15 1100.21,-625.33 1110.42,-628.13 1109.94,-621.15"/>
<text text-anchor="middle" x="1326.5" y="-536.3" font-family="Times,serif" font-size="14.00">ToBack</text>
</g>
<!-- 41094554&#45;&gt;70779318 -->
<g id="edge3" class="edge">
<title>41094554&#45;&gt;70779318</title>
<path fill="none" stroke="black" d="M675.1,-383.1C667.1,-387.92 659.85,-394.1 655,-402 650.82,-408.8 650.03,-417.15 650.72,-425.07"/>
<polygon fill="black" stroke="black" points="647.29,-425.74 652.34,-435.06 654.2,-424.63 647.29,-425.74"/>
<text text-anchor="middle" x="676.5" y="-405.8" font-family="Times,serif" font-size="14.00">ToBack</text>
</g>
<!-- 41094554&#45;&gt;4032236825 -->
<g id="edge4" class="edge">
<title>41094554&#45;&gt;4032236825</title>
<path fill="none" stroke="black" d="M630.78,-351.98C614.84,-346.88 599.19,-339.81 586,-330 577.89,-323.97 571.54,-315.03 566.81,-306.38"/>
<polygon fill="black" stroke="black" points="569.87,-304.67 562.31,-297.24 563.59,-307.76 569.87,-304.67"/>
<text text-anchor="middle" x="610" y="-318.8" font-family="Times,serif" font-size="14.00">ToInside</text>
</g>
<!-- 1367869265 -->
<g id="node12" class="node">
<title>1367869265</title>
<ellipse fill="none" stroke="black" cx="386" cy="-366" rx="92.88" ry="18"/>
<text text-anchor="middle" x="386" y="-362.3" font-family="Times,serif" font-size="14.00">animation(menu, map)</text>
</g>
<!-- 1367869265&#45;&gt;41681215 -->
<g id="edge17" class="edge">
<title>1367869265&#45;&gt;41681215</title>
<path fill="none" stroke="black" d="M384.71,-384.25C383.54,-401.41 382,-428.51 382,-452 382,-997 382,-997 382,-997 382,-1016.3 383.56,-1037.99 385.09,-1054.64"/>
<polygon fill="black" stroke="black" points="381.62,-1055.15 386.07,-1064.77 388.59,-1054.48 381.62,-1055.15"/>
<text text-anchor="middle" x="393" y="-710.3" font-family="Times,serif" font-size="14.00">End</text>
</g>
<!-- 625345865&#45;&gt;71500215 -->
<g id="edge45" class="edge">
<title>625345865&#45;&gt;71500215</title>
<path fill="none" stroke="black" d="M945.82,-698.19C973.23,-683.07 1015.66,-659.65 1043.88,-644.07"/>
<polygon fill="black" stroke="black" points="1045.79,-647.01 1052.86,-639.12 1042.41,-640.89 1045.79,-647.01"/>
<text text-anchor="middle" x="1024.5" y="-666.8" font-family="Times,serif" font-size="14.00">ToPlay</text>
</g>
<!-- 352453550 -->
<g id="node16" class="node">
<title>352453550</title>
<ellipse fill="none" stroke="black" cx="1309" cy="-192" rx="44.69" ry="18"/>
<text text-anchor="middle" x="1309" y="-188.3" font-family="Times,serif" font-size="14.00">edit(play)</text>
</g>
<!-- 1582434380&#45;&gt;352453550 -->
<g id="edge56" class="edge">
<title>1582434380&#45;&gt;352453550</title>
<path fill="none" stroke="black" d="M1309,-260.8C1309,-249.16 1309,-233.55 1309,-220.24"/>
<polygon fill="black" stroke="black" points="1312.5,-220.18 1309,-210.18 1305.5,-220.18 1312.5,-220.18"/>
<text text-anchor="middle" x="1327.5" y="-231.8" font-family="Times,serif" font-size="14.00">ToEdit</text>
</g>
<!-- 1505101769 -->
<g id="node15" class="node">
<title>1505101769</title>
<ellipse fill="none" stroke="black" cx="771" cy="-540" rx="91.78" ry="18"/>
<text text-anchor="middle" x="771" y="-536.3" font-family="Times,serif" font-size="14.00">animation(play, menu)</text>
</g>
<!-- 1505101769&#45;&gt;70779318 -->
<g id="edge61" class="edge">
<title>1505101769&#45;&gt;70779318</title>
<path fill="none" stroke="black" d="M748.94,-522.41C730.48,-508.52 704.08,-488.66 684.48,-473.92"/>
<polygon fill="black" stroke="black" points="686.37,-470.96 676.27,-467.74 682.16,-476.55 686.37,-470.96"/>
<text text-anchor="middle" x="732" y="-492.8" font-family="Times,serif" font-size="14.00">End</text>
</g>
<!-- 352453550&#45;&gt;44240284 -->
<g id="edge58" class="edge">
<title>352453550&#45;&gt;44240284</title>
<path fill="none" stroke="black" d="M1265.87,-197.16C1187.78,-205.9 1031,-229.49 1031,-278 1031,-454 1031,-454 1031,-454 1031,-483.88 1056.85,-504.87 1083.25,-518.51"/>
<polygon fill="black" stroke="black" points="1082.05,-521.82 1092.57,-523.04 1085.1,-515.52 1082.05,-521.82"/>
<text text-anchor="middle" x="1059.5" y="-362.3" font-family="Times,serif" font-size="14.00">ToOutside</text>
</g>
<!-- 352453550&#45;&gt;71500215 -->
<g id="edge57" class="edge">
<title>352453550&#45;&gt;71500215</title>
<path fill="none" stroke="black" d="M1353.55,-194.52C1408.58,-199.06 1495,-216.05 1495,-278 1495,-541 1495,-541 1495,-541 1495,-619.14 1213.46,-626.34 1110.3,-626.35"/>
<polygon fill="black" stroke="black" points="1110.05,-622.85 1100.04,-626.33 1110.03,-629.85 1110.05,-622.85"/>
<text text-anchor="middle" x="1512" y="-405.8" font-family="Times,serif" font-size="14.00">Finish</text>
</g>
<!-- 70779318&#45;&gt;71696827 -->
<g id="edge1" class="edge">
<title>70779318&#45;&gt;71696827</title>
<path fill="none" stroke="black" d="M627.54,-449.91C562.62,-444.72 406.58,-428.3 284,-384 282.15,-383.33 280.26,-382.6 278.37,-381.83"/>
<polygon fill="black" stroke="black" points="279.6,-378.55 269.04,-377.75 276.8,-384.96 279.6,-378.55"/>
<text text-anchor="middle" x="405.5" y="-405.8" font-family="Times,serif" font-size="14.00">Exit</text>
</g>
<!-- 70779318&#45;&gt;41094554 -->
<g id="edge2" class="edge">
<title>70779318&#45;&gt;41094554</title>
<path fill="none" stroke="black" d="M678.21,-439.13C686.4,-433.16 695.45,-425.5 702,-417 707.35,-410.06 711.71,-401.61 715.09,-393.65"/>
<polygon fill="black" stroke="black" points="718.35,-394.91 718.73,-384.32 711.83,-392.36 718.35,-394.91"/>
<text text-anchor="middle" x="734.5" y="-405.8" font-family="Times,serif" font-size="14.00">ToEditor</text>
</g>
<!-- 70779318&#45;&gt;1367869265 -->
<g id="edge16" class="edge">
<title>70779318&#45;&gt;1367869265</title>
<path fill="none" stroke="black" d="M627.75,-450.38C588.34,-447.44 517.87,-439.27 462,-417 461.37,-416.75 439.53,-402.37 419.43,-389.1"/>
<polygon fill="black" stroke="black" points="421.26,-386.11 410.98,-383.52 417.4,-391.95 421.26,-386.11"/>
<text text-anchor="middle" x="481.5" y="-405.8" font-family="Times,serif" font-size="14.00">ToPlay</text>
</g>
<!-- 4032236825&#45;&gt;3824159937 -->
<g id="edge7" class="edge">
<title>4032236825&#45;&gt;3824159937</title>
<path fill="none" stroke="black" d="M564.75,-260.84C570.88,-250.2 579.96,-236.92 591,-228 598.06,-222.3 606.18,-217.38 614.52,-213.19"/>
<polygon fill="black" stroke="black" points="616.05,-216.34 623.62,-208.92 613.08,-210 616.05,-216.34"/>
<text text-anchor="middle" x="615.5" y="-231.8" font-family="Times,serif" font-size="14.00">ToHover</text>
</g>
<!-- 4032236825&#45;&gt;41094554 -->
<g id="edge6" class="edge">
<title>4032236825&#45;&gt;41094554</title>
<path fill="none" stroke="black" d="M594.39,-296.45C607.11,-302.1 621.26,-308.62 634,-315 651.37,-323.7 670.21,-334.02 686.14,-343.03"/>
<polygon fill="black" stroke="black" points="684.73,-346.25 695.15,-348.15 688.19,-340.16 684.73,-346.25"/>
<text text-anchor="middle" x="689.5" y="-318.8" font-family="Times,serif" font-size="14.00">ToOutside</text>
</g>
<!-- 4032236825&#45;&gt;70779318 -->
<g id="edge5" class="edge">
<title>4032236825&#45;&gt;70779318</title>
<path fill="none" stroke="black" d="M542.7,-296.92C527.53,-318.45 506.9,-356.15 524,-384 544.63,-417.6 587.61,-435.23 619.36,-444.03"/>
<polygon fill="black" stroke="black" points="618.67,-447.47 629.23,-446.59 620.42,-440.69 618.67,-447.47"/>
<text text-anchor="middle" x="545.5" y="-362.3" font-family="Times,serif" font-size="14.00">ToBack</text>
</g>
<!-- 4032236825&#45;&gt;1581647947 -->
<g id="edge15" class="edge">
<title>4032236825&#45;&gt;1581647947</title>
<path fill="none" stroke="black" d="M522.09,-261.47C486.2,-241.7 437.83,-207.13 462,-174 488.36,-137.86 534.21,-120.5 576.54,-112.32"/>
<polygon fill="black" stroke="black" points="577.41,-115.73 586.64,-110.53 576.18,-108.83 577.41,-115.73"/>
<text text-anchor="middle" x="492.5" y="-188.3" font-family="Times,serif" font-size="14.00">ToSelected</text>
</g>
<!-- 351667117 -->
<g id="node19" class="node">
<title>351667117</title>
<ellipse fill="none" stroke="black" cx="852" cy="-18" rx="50.09" ry="18"/>
<text text-anchor="middle" x="852" y="-14.3" font-family="Times,serif" font-size="14.00">edit(menu)</text>
</g>
<!-- 351667117&#45;&gt;41094554 -->
<g id="edge14" class="edge">
<title>351667117&#45;&gt;41094554</title>
<path fill="none" stroke="black" d="M852,-36.26C852,-53.43 852,-80.54 852,-104 852,-280 852,-280 852,-280 852,-312.15 823.63,-332.87 793.6,-345.8"/>
<polygon fill="black" stroke="black" points="792.22,-342.58 784.25,-349.56 794.84,-349.07 792.22,-342.58"/>
<text text-anchor="middle" x="880.5" y="-188.3" font-family="Times,serif" font-size="14.00">ToOutside</text>
</g>
<!-- 351667117&#45;&gt;70779318 -->
<g id="edge13" class="edge">
<title>351667117&#45;&gt;70779318</title>
<path fill="none" stroke="black" d="M884.5,-31.88C912.35,-45.31 948,-69.27 948,-104 948,-367 948,-367 948,-367 948,-418.4 778.09,-440.92 698.38,-448.65"/>
<polygon fill="black" stroke="black" points="697.84,-445.18 688.21,-449.6 698.5,-452.15 697.84,-445.18"/>
<text text-anchor="middle" x="965" y="-231.8" font-family="Times,serif" font-size="14.00">Finish</text>
</g>
<!-- 1581647947&#45;&gt;351667117 -->
<g id="edge12" class="edge">
<title>1581647947&#45;&gt;351667117</title>
<path fill="none" stroke="black" d="M707.06,-88.21C737.31,-73.77 782.06,-52.4 813.82,-37.23"/>
<polygon fill="black" stroke="black" points="815.72,-40.21 823.23,-32.74 812.7,-33.89 815.72,-40.21"/>
<text text-anchor="middle" x="791.5" y="-57.8" font-family="Times,serif" font-size="14.00">ToEdit</text>
</g>
<!-- 71500215&#45;&gt;44240284 -->
<g id="edge46" class="edge">
<title>71500215&#45;&gt;44240284</title>
<path fill="none" stroke="black" d="M1091.88,-614.09C1100.41,-607.99 1110.09,-599.97 1117,-591 1122.35,-584.06 1126.71,-575.61 1130.09,-567.65"/>
<polygon fill="black" stroke="black" points="1133.35,-568.91 1133.73,-558.32 1126.83,-566.36 1133.35,-568.91"/>
<text text-anchor="middle" x="1149.5" y="-579.8" font-family="Times,serif" font-size="14.00">ToEditor</text>
</g>
<!-- 71500215&#45;&gt;1505101769 -->
<g id="edge60" class="edge">
<title>71500215&#45;&gt;1505101769</title>
<path fill="none" stroke="black" d="M1047.1,-621.42C1015.07,-615.51 959.04,-604.4 912,-591 880.85,-582.13 846.6,-570.04 819.65,-559.97"/>
<polygon fill="black" stroke="black" points="820.67,-556.61 810.07,-556.36 818.2,-563.16 820.67,-556.61"/>
<text text-anchor="middle" x="935.5" y="-579.8" font-family="Times,serif" font-size="14.00">ToMenu</text>
</g>
<!-- 3549105195&#45;&gt;3352562643 -->
<g id="edge24" class="edge">
<title>3549105195&#45;&gt;3352562643</title>
<path fill="none" stroke="black" d="M182.15,-1362.02C180.78,-1372.34 180.85,-1385.33 187,-1395 190.31,-1400.2 194.63,-1404.65 199.52,-1408.46"/>
<polygon fill="black" stroke="black" points="197.94,-1411.61 208.2,-1414.28 201.84,-1405.8 197.94,-1411.61"/>
<text text-anchor="middle" x="211.5" y="-1383.8" font-family="Times,serif" font-size="14.00">ToHover</text>
</g>
<!-- 3549105195&#45;&gt;41681215 -->
<g id="edge22" class="edge">
<title>3549105195&#45;&gt;41681215</title>
<path fill="none" stroke="black" d="M277.06,-1330.67C310.95,-1321.2 346.2,-1304.49 367,-1275 385.11,-1249.32 387.94,-1157.99 388.17,-1111.55"/>
<polygon fill="black" stroke="black" points="391.67,-1111.31 388.18,-1101.3 384.67,-1111.3 391.67,-1111.31"/>
<text text-anchor="middle" x="404.5" y="-1209.8" font-family="Times,serif" font-size="14.00">ToBack</text>
</g>
<!-- 3549105195&#45;&gt;3835038892 -->
<g id="edge23" class="edge">
<title>3549105195&#45;&gt;3835038892</title>
<path fill="none" stroke="black" d="M176.18,-1326.04C167.43,-1309.31 156,-1282.73 156,-1258 156,-1258 156,-1258 156,-1082 156,-1062.67 158.08,-1040.97 160.11,-1024.34"/>
<polygon fill="black" stroke="black" points="163.61,-1024.58 161.42,-1014.21 156.67,-1023.68 163.61,-1024.58"/>
<text text-anchor="middle" x="184.5" y="-1166.3" font-family="Times,serif" font-size="14.00">ToOutside</text>
</g>
<!-- 3549105195&#45;&gt;1437009876 -->
<g id="edge32" class="edge">
<title>3549105195&#45;&gt;1437009876</title>
<path fill="none" stroke="black" d="M203.2,-1325.8C215.73,-1313.27 232.86,-1296.14 246.77,-1282.23"/>
<polygon fill="black" stroke="black" points="249.52,-1284.43 254.11,-1274.89 244.57,-1279.48 249.52,-1284.43"/>
<text text-anchor="middle" x="264.5" y="-1296.8" font-family="Times,serif" font-size="14.00">ToSelected</text>
</g>
<!-- 41681215&#45;&gt;71696827 -->
<g id="edge18" class="edge">
<title>41681215&#45;&gt;71696827</title>
<path fill="none" stroke="black" d="M383.33,-1064.95C368.42,-1009.02 323,-825.91 323,-671.5 323,-671.5 323,-671.5 323,-452 323,-422.77 297.75,-398.84 276.55,-383.91"/>
<polygon fill="black" stroke="black" points="278.36,-380.9 268.1,-378.25 274.47,-386.72 278.36,-380.9"/>
<text text-anchor="middle" x="337.5" y="-710.3" font-family="Times,serif" font-size="14.00">Exit</text>
</g>
<!-- 41681215&#45;&gt;2430667297 -->
<g id="edge35" class="edge">
<title>41681215&#45;&gt;2430667297</title>
<path fill="none" stroke="black" d="M415.14,-1081.79C491.83,-1080.83 708.77,-1075.59 773,-1047 785.89,-1041.26 797.72,-1031.16 806.99,-1021.54"/>
<polygon fill="black" stroke="black" points="809.7,-1023.76 813.85,-1014.01 804.53,-1019.04 809.7,-1023.76"/>
<text text-anchor="middle" x="813.5" y="-1035.8" font-family="Times,serif" font-size="14.00">ToPlay</text>
</g>
<!-- 41681215&#45;&gt;3835038892 -->
<g id="edge19" class="edge">
<title>41681215&#45;&gt;3835038892</title>
<path fill="none" stroke="black" d="M363.5,-1075.23C342.83,-1069.1 312.76,-1059.18 288,-1047 277.05,-1041.61 275.96,-1037.37 265,-1032 252.98,-1026.11 239.72,-1020.76 226.87,-1016.11"/>
<polygon fill="black" stroke="black" points="227.74,-1012.71 217.15,-1012.7 225.43,-1019.32 227.74,-1012.71"/>
<text text-anchor="middle" x="312.5" y="-1035.8" font-family="Times,serif" font-size="14.00">ToEditor</text>
</g>
<!-- 1354696529 -->
<g id="node25" class="node">
<title>1354696529</title>
<ellipse fill="none" stroke="black" cx="490" cy="-942" rx="92.88" ry="18"/>
<text text-anchor="middle" x="490" y="-938.3" font-family="Times,serif" font-size="14.00">animation(map, menu)</text>
</g>
<!-- 41681215&#45;&gt;1354696529 -->
<g id="edge33" class="edge">
<title>41681215&#45;&gt;1354696529</title>
<path fill="none" stroke="black" d="M399.31,-1066.59C416.7,-1042.89 450.21,-997.23 471.27,-968.53"/>
<polygon fill="black" stroke="black" points="474.28,-970.34 477.37,-960.21 468.63,-966.2 474.28,-970.34"/>
<text text-anchor="middle" x="446.5" y="-1035.8" font-family="Times,serif" font-size="14.00">ToMenu</text>
</g>
<!-- 3835038892&#45;&gt;3549105195 -->
<g id="edge21" class="edge">
<title>3835038892&#45;&gt;3549105195</title>
<path fill="none" stroke="black" d="M126.85,-1013.45C101.31,-1027.55 72,-1050.58 72,-1082 72,-1258 72,-1258 72,-1258 72,-1288.61 98.74,-1309.51 126.32,-1322.92"/>
<polygon fill="black" stroke="black" points="125.12,-1326.22 135.67,-1327.19 128.02,-1319.85 125.12,-1326.22"/>
<text text-anchor="middle" x="96" y="-1166.3" font-family="Times,serif" font-size="14.00">ToInside</text>
</g>
<!-- 3835038892&#45;&gt;41681215 -->
<g id="edge20" class="edge">
<title>3835038892&#45;&gt;41681215</title>
<path fill="none" stroke="black" d="M181.36,-1013.95C195.45,-1027.57 213.68,-1044.78 218,-1047 260.32,-1068.76 315.11,-1076.99 350.89,-1080.11"/>
<polygon fill="black" stroke="black" points="350.66,-1083.6 360.9,-1080.89 351.2,-1076.62 350.66,-1083.6"/>
<text text-anchor="middle" x="239.5" y="-1035.8" font-family="Times,serif" font-size="14.00">ToBack</text>
</g>
<!-- 1354696529&#45;&gt;70779318 -->
<g id="edge34" class="edge">
<title>1354696529&#45;&gt;70779318</title>
<path fill="none" stroke="black" d="M501.7,-923.9C513.19,-905.43 529,-874.69 529,-845.5 529,-845.5 529,-845.5 529,-539 529,-495.18 581.55,-472.67 619.57,-462.12"/>
<polygon fill="black" stroke="black" points="620.57,-465.47 629.37,-459.57 618.81,-458.7 620.57,-465.47"/>
<text text-anchor="middle" x="540" y="-710.3" font-family="Times,serif" font-size="14.00">End</text>
</g>
<!-- 1437009876&#45;&gt;284492598 -->
<g id="edge29" class="edge">
<title>1437009876&#45;&gt;284492598</title>
<path fill="none" stroke="black" d="M272.01,-1238.8C272.7,-1227.16 273.61,-1211.55 274.4,-1198.24"/>
<polygon fill="black" stroke="black" points="277.9,-1198.36 274.99,-1188.18 270.91,-1197.95 277.9,-1198.36"/>
<text text-anchor="middle" x="292.5" y="-1209.8" font-family="Times,serif" font-size="14.00">ToEdit</text>
</g>
</g>
</svg>
